<svg width="23" height="23" viewBox="0 0 23 23" fill="none" xmlns="http://www.w3.org/2000/svg">
<path d="M0.97536 18.0815H3.27182C3.53422 18.0815 3.74718 17.7469 3.74718 17.3346V10.1985C3.74718 9.78625 3.53422 9.45163 3.27182 9.45163H0.97536C0.71296 9.45163 0.5 9.78625 0.5 10.1985V17.3346C0.5 17.7469 0.71296 18.0815 0.97536 18.0815Z" stroke="#484769" style="stroke:#484769;stroke:color(display-p3 0.2824 0.2784 0.4118);stroke-opacity:1;" stroke-miterlimit="10" stroke-linecap="round" stroke-linejoin="round"/>
<path d="M10.6499 9.45187H11.5545C11.8521 9.45187 12.0931 9.83056 12.0931 10.2981V17.2363C12.0931 17.7038 11.8521 18.0825 11.5545 18.0825H6.96634C6.66924 18.0825 6.42822 17.7038 6.42822 17.2363V10.2981C6.42822 9.83056 6.66924 9.45187 6.96634 9.45187H7.87142H10.6499Z" stroke="#484769" style="stroke:#484769;stroke:color(display-p3 0.2824 0.2784 0.4118);stroke-opacity:1;" stroke-miterlimit="10" stroke-linecap="round" stroke-linejoin="round"/>
<path d="M6.42872 10.9666H3.75244V16.5678H6.42872V10.9666Z" stroke="#484769" style="stroke:#484769;stroke:color(display-p3 0.2824 0.2784 0.4118);stroke-opacity:1;" stroke-miterlimit="10" stroke-linecap="round" stroke-linejoin="round"/>
<path d="M22.015 20.4262L18.6385 22.2114L17.7472 18.4633C17.4995 17.3295 16.8212 16.5676 16.0563 16.5676H12.0933V10.9665H18.6142C18.9964 10.9665 19.3572 11.1607 19.6539 11.4908C19.95 11.821 20.1815 12.2945 20.3051 12.8704L22.015 20.4262Z" stroke="#484769" style="stroke:#484769;stroke:color(display-p3 0.2824 0.2784 0.4118);stroke-opacity:1;" stroke-miterlimit="10" stroke-linecap="round" stroke-linejoin="round"/>
<path d="M8.32422 9.45183V5.52602" stroke="#484769" style="stroke:#484769;stroke:color(display-p3 0.2824 0.2784 0.4118);stroke-opacity:1;" stroke-miterlimit="10" stroke-linecap="round" stroke-linejoin="round"/>
<path d="M10.1978 9.45183V5.52602" stroke="#484769" style="stroke:#484769;stroke:color(display-p3 0.2824 0.2784 0.4118);stroke-opacity:1;" stroke-miterlimit="10" stroke-linecap="round" stroke-linejoin="round"/>
<path d="M11.0057 3.24119C11.0057 3.66395 10.9463 4.07027 10.8332 4.42582C10.7528 4.69694 10.6449 4.95015 10.5104 5.16227C10.1924 5.66943 9.75078 5.98239 9.26114 5.98239C8.77104 5.98239 8.32945 5.66943 8.01143 5.16227C7.88261 4.95015 7.76946 4.70516 7.69388 4.43402C7.58076 4.07027 7.51611 3.66395 7.51611 3.24119C7.51611 2.75868 7.59169 2.31054 7.73145 1.92139C8.0276 1.07513 8.60421 0.5 9.26114 0.5C9.9181 0.5 10.4885 1.06691 10.7847 1.91243C10.9249 2.30232 11.0057 2.75047 11.0057 3.24119Z" stroke="#484769" style="stroke:#484769;stroke:color(display-p3 0.2824 0.2784 0.4118);stroke-opacity:1;" stroke-miterlimit="10" stroke-linecap="round" stroke-linejoin="round"/>
<path d="M7.73158 1.92109C7.59133 2.31025 7.51624 2.75914 7.51624 3.24091C7.51624 3.66441 7.58088 4.06999 7.69401 4.43448C7.05846 4.46809 6.41767 4.53531 5.77165 4.62867C5.22738 4.70486 4.75391 4.04459 4.75391 3.18189C4.75391 2.36925 5.17887 1.73512 5.68513 1.73512C5.70701 1.73512 5.73364 1.74333 5.76071 1.74333C6.41244 1.82773 7.07462 1.88748 7.73158 1.92109Z" stroke="#484769" style="stroke:#484769;stroke:color(display-p3 0.2824 0.2784 0.4118);stroke-opacity:1;" stroke-miterlimit="10" stroke-linecap="round" stroke-linejoin="round"/>
<path d="M13.768 3.17351C13.768 3.99439 13.3426 4.62852 12.8311 4.62852C12.804 4.62852 12.7717 4.6203 12.745 4.6203C12.1095 4.52768 11.4739 4.46792 10.8331 4.4261C10.9463 4.07057 11.0057 3.66425 11.0057 3.24148C11.0057 2.75076 10.9249 2.30186 10.7847 1.91272C11.4416 1.87911 12.0986 1.81936 12.7612 1.73495C13.305 1.66773 13.768 2.32726 13.768 3.17351Z" stroke="#484769" style="stroke:#484769;stroke:color(display-p3 0.2824 0.2784 0.4118);stroke-opacity:1;" stroke-miterlimit="10" stroke-linecap="round" stroke-linejoin="round"/>
<path d="M18.125 22.5L22.5002 20.1681" stroke="#484769" style="stroke:#484769;stroke:color(display-p3 0.2824 0.2784 0.4118);stroke-opacity:1;" stroke-miterlimit="10" stroke-linecap="round" stroke-linejoin="round"/>
</svg>
