<svg width="22" height="22" viewBox="0 0 22 22" fill="none" xmlns="http://www.w3.org/2000/svg">
<path d="M19.2299 0H2.76999C1.24649 0 0 0.783732 0 1.74166V16.0508C0 16.8438 0.86021 17.5129 2.02644 17.7192V18.9704C2.02644 19.6213 2.86485 20.1483 3.89991 20.1483H4.46122V21.1475C4.46122 21.6196 5.07352 22 5.82437 22H6.80845C7.55929 22 8.17159 21.6196 8.17159 21.1475V20.1483H14.0179V21.1475C14.0179 21.6196 14.6302 22 15.381 22H16.3652C17.1159 22 17.7282 21.6196 17.7282 21.1475V20.1483H18.1C19.1352 20.1483 19.9735 19.6213 19.9735 18.9704V17.7192C21.1398 17.5129 22 16.8438 22 16.0508V1.74166C22 0.783732 20.7534 0 19.2299 0ZM5.00064 0.6875H16.9993V6.27C16.9993 6.69624 16.489 7.03999 15.8548 7.03999H6.14516C5.51818 7.03999 5.00064 6.69624 5.00064 6.27V0.6875ZM7.07816 21.1475C7.07816 21.2392 6.9542 21.3125 6.80845 21.3125H5.82437C5.67123 21.3125 5.55466 21.2392 5.55466 21.1475V20.1483H7.07816V21.1475ZM14.5791 18.8694C14.3701 18.7384 14.3607 18.5206 14.5791 18.3838C14.7759 18.2553 15.1475 18.2553 15.3518 18.3838C15.5658 18.5179 15.5647 18.7361 15.3518 18.8694C15.1163 19.0079 14.7866 18.9999 14.5791 18.8694ZM16.6348 21.1475C16.6348 21.2392 16.5182 21.3125 16.3652 21.3125H15.381C15.2352 21.3125 15.1113 21.2392 15.1113 21.1475V20.1483H16.6348V21.1475ZM17.5679 18.8694C17.3538 19.004 17.0091 19.0039 16.7951 18.8694C16.5861 18.7384 16.5768 18.5206 16.7951 18.3838C16.992 18.2553 17.3636 18.2553 17.5679 18.3838C17.7839 18.5196 17.7785 18.737 17.5679 18.8694ZM20.9066 16.0508C20.9066 16.6283 20.1484 17.1004 19.2299 17.1004H2.76999C1.85149 17.1004 1.09344 16.6283 1.09344 16.0508V1.74166C1.09344 1.15957 1.85149 0.6875 2.76999 0.6875H3.90721V6.27C3.90721 7.07208 4.91317 7.72749 6.14516 7.72749H15.8548C17.0868 7.72749 18.0927 7.07208 18.0927 6.27V0.6875H19.2299C20.1484 0.6875 20.9066 1.15957 20.9066 1.74166V16.0508Z" fill="#484769" style="fill:#484769;fill:color(display-p3 0.2824 0.2784 0.4118);fill-opacity:1;"/>
</svg>
