<svg width="23" height="23" viewBox="0 0 23 23" fill="none" xmlns="http://www.w3.org/2000/svg">
<path d="M21.5538 13.1601H1.44624C0.923436 13.1601 0.5 12.5718 0.5 11.8456V1.81444C0.5 1.08888 0.923436 0.5 1.44624 0.5H21.5538C22.0766 0.5 22.5 1.08888 22.5 1.81444V11.8456C22.5 12.5718 22.0766 13.1601 21.5538 13.1601Z" stroke="#484769" style="stroke:#484769;stroke:color(display-p3 0.2824 0.2784 0.4118);stroke-opacity:1;" stroke-miterlimit="10" stroke-linecap="round" stroke-linejoin="round"/>
<path d="M20.4011 13.1601H2.59863V10.2066C2.59863 9.48099 3.02254 8.89212 3.54487 8.89212H19.4549C19.9777 8.89212 20.4011 9.48099 20.4011 10.2066V13.1601Z" stroke="#484769" style="stroke:#484769;stroke:color(display-p3 0.2824 0.2784 0.4118);stroke-opacity:1;" stroke-miterlimit="10" stroke-linecap="round" stroke-linejoin="round"/>
<ellipse cx="3.32115" cy="3.68803" rx="0.354839" ry="0.492916" fill="#484769" style="fill:#484769;fill:color(display-p3 0.2824 0.2784 0.4118);fill-opacity:1;"/>
<ellipse cx="4.96031" cy="3.68803" rx="0.354839" ry="0.492916" fill="#484769" style="fill:#484769;fill:color(display-p3 0.2824 0.2784 0.4118);fill-opacity:1;"/>
<path d="M9.5166 5.24754H13.4832" stroke="#484769" style="stroke:#484769;stroke:color(display-p3 0.2824 0.2784 0.4118);stroke-opacity:1;" stroke-miterlimit="10" stroke-linecap="round" stroke-linejoin="round"/>
<path d="M2.59863 11.0262H20.4011" stroke="#484769" style="stroke:#484769;stroke:color(display-p3 0.2824 0.2784 0.4118);stroke-opacity:1;" stroke-miterlimit="10" stroke-linecap="round" stroke-linejoin="round"/>
<path d="M18.7542 22.5C18.08 21.5635 18.08 20.0453 18.7542 19.1087C19.4284 18.1722 19.4284 16.654 18.7542 15.7175" stroke="#484769" style="stroke:#484769;stroke:color(display-p3 0.2824 0.2784 0.4118);stroke-opacity:1;" stroke-miterlimit="10" stroke-linecap="round" stroke-linejoin="round"/>
<path d="M15.1272 22.5C14.453 21.5635 14.453 20.0453 15.1272 19.1087C15.8014 18.1722 15.8014 16.654 15.1272 15.7175" stroke="#484769" style="stroke:#484769;stroke:color(display-p3 0.2824 0.2784 0.4118);stroke-opacity:1;" stroke-miterlimit="10" stroke-linecap="round" stroke-linejoin="round"/>
<path d="M11.4998 22.5C10.8256 21.5635 10.8256 20.0453 11.4998 19.1087C12.174 18.1722 12.174 16.654 11.4998 15.7175" stroke="#484769" style="stroke:#484769;stroke:color(display-p3 0.2824 0.2784 0.4118);stroke-opacity:1;" stroke-miterlimit="10" stroke-linecap="round" stroke-linejoin="round"/>
<path d="M7.87235 22.5C7.19815 21.5635 7.19815 20.0453 7.87235 19.1087C8.54653 18.1722 8.54653 16.654 7.87235 15.7175" stroke="#484769" style="stroke:#484769;stroke:color(display-p3 0.2824 0.2784 0.4118);stroke-opacity:1;" stroke-miterlimit="10" stroke-linecap="round" stroke-linejoin="round"/>
<path d="M4.2449 22.5C3.57071 21.5635 3.57071 20.0453 4.2449 19.1087C4.91909 18.1722 4.91909 16.654 4.2449 15.7175" stroke="#484769" style="stroke:#484769;stroke:color(display-p3 0.2824 0.2784 0.4118);stroke-opacity:1;" stroke-miterlimit="10" stroke-linecap="round" stroke-linejoin="round"/>
</svg>
