<svg width="23" height="23" viewBox="0 0 23 23" fill="none" xmlns="http://www.w3.org/2000/svg">
<path d="M6.08625 4.37888C6.62322 3.59924 6.62322 2.3352 6.08625 1.55557C5.54928 0.775932 4.67868 0.775932 4.14171 1.55557C3.60473 2.3352 3.60473 3.59924 4.14171 4.37888C4.67868 5.15852 5.54928 5.15852 6.08625 4.37888Z" stroke="#484769" style="stroke:#484769;stroke:color(display-p3 0.2824 0.2784 0.4118);stroke-opacity:1;" stroke-width="0.8" stroke-miterlimit="10" stroke-linecap="round" stroke-linejoin="round"/>
<path d="M3.1499 10.6676H1.97133C1.10345 10.6676 0.399902 9.64607 0.399902 8.38599V1.54124C0.399902 0.848356 0.825329 0.299798 1.31759 0.41607C1.70389 0.507315 1.97133 1.034 1.97133 1.60226V8.38598H2.02689C2.20212 7.40363 2.81136 6.6748 3.54276 6.6748H6.68562C7.41702 6.6748 8.02626 7.40363 8.20149 8.38598H8.25705V1.54124C8.25705 0.848356 8.68247 0.299798 9.17473 0.41607C9.56104 0.507315 9.82847 1.034 9.82847 1.60226V8.38598C9.82847 9.64607 9.12492 10.6676 8.25705 10.6676H7.07847H3.1499Z" stroke="#484769" style="stroke:#484769;stroke:color(display-p3 0.2824 0.2784 0.4118);stroke-opacity:1;" stroke-width="0.8" stroke-miterlimit="10" stroke-linecap="round" stroke-linejoin="round"/>
<path d="M8.6499 10.6676H1.57847C0.927566 10.6676 0.399902 11.4337 0.399902 12.3787C0.399902 13.3238 0.927566 14.0899 1.57847 14.0899H8.6499C9.30081 14.0899 9.82847 13.3238 9.82847 12.3787C9.82847 11.4337 9.30081 10.6676 8.6499 10.6676Z" stroke="#484769" style="stroke:#484769;stroke:color(display-p3 0.2824 0.2784 0.4118);stroke-opacity:1;" stroke-width="0.8" stroke-miterlimit="10" stroke-linecap="round" stroke-linejoin="round"/>
<path d="M0.399902 14.5919C1.77435 14.5919 1.77435 15.8696 3.1488 15.8696C4.52325 15.8696 4.52325 14.5919 5.8977 14.5919C7.27217 14.5919 7.27217 15.8696 8.64664 15.8696C10.0215 15.8696 10.0215 14.5919 11.3963 14.5919C12.7704 14.5919 12.7704 15.8696 14.1445 15.8696C15.5197 15.8696 15.5197 14.5919 16.895 14.5919C18.2712 14.5919 18.2712 15.8696 19.6475 15.8696C21.0237 15.8696 21.0237 14.5919 22.3999 14.5919" stroke="#484769" style="stroke:#484769;stroke:color(display-p3 0.2824 0.2784 0.4118);stroke-opacity:1;" stroke-width="0.8" stroke-miterlimit="10" stroke-linecap="round" stroke-linejoin="round"/>
<path d="M0.399902 20.8662C1.77435 20.8662 1.77435 22.1439 3.1488 22.1439C4.52325 22.1439 4.52325 20.8662 5.8977 20.8662C7.27217 20.8662 7.27217 22.1439 8.64664 22.1439C10.0215 22.1439 10.0215 20.8662 11.3963 20.8662C12.7704 20.8662 12.7704 22.1439 14.1445 22.1439C15.5197 22.1439 15.5197 20.8662 16.895 20.8662C18.2712 20.8662 18.2712 22.1439 19.6475 22.1439C21.0237 22.1439 21.0237 20.8662 22.3999 20.8662" stroke="#484769" style="stroke:#484769;stroke:color(display-p3 0.2824 0.2784 0.4118);stroke-opacity:1;" stroke-width="0.8" stroke-miterlimit="10" stroke-linecap="round" stroke-linejoin="round"/>
<path d="M16.9 0.400452H16.1143C15.6804 0.400452 15.3286 0.911201 15.3286 1.54124V11.238" stroke="#484769" style="stroke:#484769;stroke:color(display-p3 0.2824 0.2784 0.4118);stroke-opacity:1;" stroke-width="0.8" stroke-miterlimit="10" stroke-linecap="round" stroke-linejoin="round"/>
<path d="M20.4357 0.400452H19.65C19.216 0.400452 18.8643 0.911201 18.8643 1.54124V11.238" stroke="#484769" style="stroke:#484769;stroke:color(display-p3 0.2824 0.2784 0.4118);stroke-opacity:1;" stroke-width="0.8" stroke-miterlimit="10" stroke-linecap="round" stroke-linejoin="round"/>
<path d="M15.3286 5.53401H18.8643" stroke="#484769" style="stroke:#484769;stroke:color(display-p3 0.2824 0.2784 0.4118);stroke-opacity:1;" stroke-width="0.8" stroke-miterlimit="10" stroke-linecap="round" stroke-linejoin="round"/>
<path d="M15.3286 8.38599H18.8643" stroke="#484769" style="stroke:#484769;stroke:color(display-p3 0.2824 0.2784 0.4118);stroke-opacity:1;" stroke-width="0.8" stroke-miterlimit="10" stroke-linecap="round" stroke-linejoin="round"/>
</svg>
