<svg width="23" height="22" viewBox="0 0 23 22" fill="none" xmlns="http://www.w3.org/2000/svg">
<path fill-rule="evenodd" clip-rule="evenodd" d="M20.8078 0.00539178C21.1197 0.0404515 21.3599 0.236672 21.5138 0.474142C21.6853 0.738955 21.7589 1.06071 21.7629 1.35695C21.7667 1.64679 21.7036 1.964 21.547 2.23293L21.549 2.23195L21.55 2.23L21.5509 2.22707C21.5516 2.22588 21.5525 2.2248 21.5529 2.22414C21.5527 2.2248 21.5524 2.2261 21.5519 2.22707C21.5487 2.23432 21.5415 2.25138 21.5314 2.27883C21.5106 2.33515 21.4769 2.43601 21.4416 2.59133C21.3711 2.90102 21.2911 3.4257 21.2746 4.23879C21.4527 6.37198 21.675 9.28067 21.6945 10.7525C21.714 12.2232 21.5689 15.1389 21.4474 17.2788C21.4853 18.0928 21.5787 18.6144 21.6574 18.9214C21.697 19.0758 21.7338 19.176 21.756 19.231L21.7746 19.2759C21.9373 19.537 22.008 19.8501 22.0119 20.1392C22.0158 20.4356 21.9508 20.761 21.7863 21.0337C21.6392 21.2773 21.4049 21.4855 21.0939 21.5357C20.79 21.5846 20.5182 21.4646 20.3224 21.272V21.273L20.3273 21.2779C20.3263 21.2771 20.323 21.2742 20.3175 21.27C20.3058 21.2612 20.2841 21.2453 20.2521 21.2251C20.1869 21.1841 20.0792 21.1235 19.9289 21.0669C19.6328 20.9556 19.1573 20.8496 18.4884 20.9204C16.6722 21.2707 14.0066 21.6756 11.1476 21.7417C8.28857 21.8077 5.61446 21.5264 3.7902 21.2603C3.11982 21.2205 2.64749 21.3482 2.35465 21.4732C2.20598 21.5366 2.10133 21.602 2.03727 21.646C2.00522 21.668 1.98234 21.6844 1.97086 21.6939C1.96536 21.6984 1.96173 21.7021 1.9611 21.7027L1.92203 21.7427C1.73551 21.9168 1.48475 22.027 1.20426 21.9956C0.892399 21.9605 0.652146 21.7633 0.498207 21.5259C0.32653 21.2609 0.253138 20.9385 0.249183 20.6421C0.2454 20.3525 0.307706 20.0358 0.464027 19.7671L0.463051 19.7681L0.462074 19.77C0.465809 19.7616 0.472784 19.7451 0.481605 19.7212C0.502417 19.6648 0.535063 19.5634 0.570472 19.4077C0.641015 19.0975 0.721133 18.5727 0.737465 17.7573C0.559423 15.6243 0.337018 12.7174 0.317543 11.2466C0.298078 9.77484 0.442135 6.85748 0.563637 4.71731C0.525609 3.90549 0.433237 3.38488 0.354652 3.07863C0.315324 2.92549 0.279276 2.82646 0.256996 2.77102L0.234535 2.71926C0.234973 2.72003 0.2359 2.7212 0.236488 2.72219L0.237465 2.72414L0.238441 2.72512V2.72609C0.238491 2.7261 0.238545 2.72561 0.239418 2.72512C0.075795 2.46357 0.00399843 2.14977 0.000159979 1.85988C-0.00368074 1.56362 0.0613465 1.23891 0.225746 0.966329C0.372743 0.722732 0.607216 0.513639 0.918129 0.4634C1.19835 0.418371 1.45242 0.516544 1.64371 0.683126L1.68668 0.724142H1.68473C1.68629 0.725397 1.68965 0.727088 1.69352 0.730001C1.70525 0.738904 1.72828 0.755357 1.7609 0.7759C1.82615 0.816929 1.93328 0.875759 2.08317 0.93215C2.37916 1.04345 2.85377 1.14837 3.52262 1.07766C5.33878 0.727389 8.00423 0.323446 10.8634 0.257345C13.7225 0.191272 16.3975 0.471686 18.2218 0.737814C18.8923 0.777652 19.3635 0.650816 19.6564 0.5259C19.8053 0.462387 19.9117 0.399049 19.9757 0.355001C20.0075 0.333179 20.0286 0.315666 20.0402 0.306173C20.0427 0.304098 20.0455 0.302597 20.047 0.30129C20.2373 0.102131 20.5044 -0.0286787 20.8078 0.00539178ZM1.96403 21.6988L1.96598 21.6978V21.6968H1.96696L1.96598 21.6958L1.96403 21.6988ZM1.62125 21.3345L1.30289 21.0015H1.30094L1.62125 21.3345ZM20.6711 1.0757C20.6385 1.10249 20.5933 1.1371 20.5363 1.17629C20.4219 1.25494 20.2569 1.35276 20.0412 1.44484C19.6068 1.6301 18.9732 1.78905 18.132 1.73586C18.1185 1.73498 18.1044 1.73294 18.091 1.73098C16.2999 1.46879 13.674 1.19274 10.8771 1.25734C8.07985 1.32201 5.46192 1.72014 3.67887 2.06496C3.6657 2.0675 3.65215 2.06935 3.63883 2.07082C2.79939 2.16284 2.16181 2.03379 1.72282 1.86867C1.50485 1.78665 1.33827 1.69685 1.22184 1.62356C1.16371 1.58696 1.1175 1.55415 1.08414 1.52883C1.0762 1.52279 1.06921 1.51643 1.06266 1.51125C1.02597 1.58885 0.998395 1.70365 1.00016 1.83742C1.00224 1.99259 1.0424 2.12025 1.09 2.19387C1.09363 2.19946 1.09736 2.20572 1.10075 2.21145L0.670082 2.46926L1.10075 2.21242L1.10368 2.21535C1.10455 2.21687 1.10563 2.21942 1.10661 2.22121C1.10864 2.22483 1.11099 2.22937 1.11344 2.23391C1.11883 2.24391 1.12581 2.25738 1.13297 2.27199C1.14725 2.30114 1.16499 2.34015 1.18473 2.38918C1.2244 2.48778 1.27299 2.62922 1.32243 2.8218C1.42142 3.20767 1.52467 3.8028 1.56461 4.68215C1.56538 4.69912 1.5646 4.71692 1.56364 4.73391C1.4412 6.88699 1.2976 9.78662 1.31657 11.2232C1.33559 12.6596 1.55612 15.5523 1.73551 17.6988C1.73691 17.7156 1.73778 17.7326 1.73746 17.7495C1.72085 18.6307 1.63384 19.2304 1.54508 19.6206C1.50072 19.8156 1.45519 19.9587 1.41813 20.0591C1.39963 20.1092 1.3838 20.1494 1.37028 20.1792L1.34489 20.231C1.34401 20.2326 1.34371 20.2344 1.34293 20.2359L1.34098 20.2388L1.34 20.2398V20.2407C1.33676 20.2466 1.33274 20.2526 1.32926 20.2583C1.28359 20.334 1.24721 20.4635 1.24918 20.6187C1.25095 20.7518 1.28104 20.8651 1.3195 20.9409C1.32581 20.9356 1.33336 20.9296 1.34098 20.9234C1.37358 20.8966 1.41877 20.862 1.47575 20.8228C1.59023 20.7441 1.75504 20.6463 1.97086 20.5542C2.35101 20.3921 2.88347 20.2506 3.57438 20.2534L3.88004 20.2642L3.92008 20.2681C5.71116 20.5303 8.33766 20.8063 11.1349 20.7417C13.932 20.6771 16.5491 20.2799 18.3322 19.9351C18.3456 19.9325 18.3596 19.9307 18.3732 19.9292C19.2128 19.8372 19.8502 19.9662 20.2892 20.1314C20.5072 20.2134 20.6738 20.3032 20.7902 20.3765C20.8483 20.413 20.8936 20.4459 20.9269 20.4712C20.9344 20.4769 20.9422 20.4819 20.9484 20.4868C20.9849 20.4092 21.0136 20.2951 21.0119 20.1616C21.0097 20.0067 20.9686 19.8797 20.9211 19.8062V19.8052C20.9164 19.798 20.9128 19.7921 20.9113 19.7896L20.8791 19.731C20.8644 19.7013 20.8471 19.6619 20.8273 19.6128C20.7875 19.514 20.7391 19.3714 20.6896 19.1782C20.5906 18.7921 20.4883 18.1965 20.4484 17.3169C20.4476 17.3001 20.4465 17.283 20.4474 17.2661C20.5699 15.1128 20.7135 12.2123 20.6945 10.7759C20.6755 9.3395 20.4549 6.44762 20.2756 4.30129C20.2742 4.28443 20.2752 4.26646 20.2756 4.24953C20.2922 3.36895 20.3782 2.76959 20.467 2.37942C20.5113 2.18433 20.5559 2.04038 20.5929 1.93996C20.6114 1.88991 20.6292 1.85063 20.6427 1.82082C20.6494 1.80612 20.6552 1.79289 20.6603 1.78274C20.6626 1.77808 20.6652 1.77375 20.6672 1.77004C20.6682 1.76805 20.6692 1.76492 20.6701 1.7632L20.6711 1.76027L20.673 1.75832C20.6762 1.75255 20.6794 1.74638 20.6828 1.74074C20.7284 1.66494 20.7659 1.5356 20.7638 1.38039C20.762 1.24635 20.7294 1.13395 20.6906 1.05813C20.6845 1.06335 20.6784 1.06966 20.6711 1.0757ZM21.757 19.2486C21.753 19.2428 21.747 19.2322 21.7384 19.2212C21.7345 19.2162 21.7245 19.2053 21.7189 19.1988C21.7179 19.1976 21.7164 19.1963 21.715 19.1948C21.73 19.2116 21.744 19.2296 21.757 19.2486ZM21.675 19.1558C21.6719 19.153 21.6689 19.1494 21.6662 19.147L21.6642 19.146C21.6678 19.149 21.6715 19.1527 21.675 19.1558ZM21.3146 19.0327C21.3179 19.0325 21.3211 19.0329 21.3244 19.0327C21.3226 19.0326 21.3203 19.0319 21.3185 19.0318C21.3172 19.0322 21.3159 19.0323 21.3146 19.0327ZM4.79118 3.98391C5.03113 4.00852 5.21259 4.19979 5.23356 4.43117L5.23258 4.53274V4.53469L5.2277 4.57375C5.2247 4.60127 5.22059 4.64212 5.215 4.69484C5.20377 4.80092 5.18729 4.95584 5.16813 5.14895C5.12974 5.53571 5.07929 6.07742 5.02946 6.69387C4.92943 7.93124 4.83496 9.45673 4.85075 10.6499C4.86658 11.846 5.00424 13.6291 5.14079 15.1255C5.20881 15.8709 5.2763 16.5415 5.32633 17.0249C5.35134 17.2665 5.37239 17.4618 5.38688 17.5962C5.39412 17.6635 5.39962 17.7163 5.40348 17.7515C5.40538 17.7688 5.40739 17.7827 5.40836 17.7915C5.40882 17.7956 5.40911 17.7992 5.40934 17.8013L5.41032 17.8042C5.44052 18.0782 5.24212 18.3276 4.96793 18.3609C4.69364 18.3939 4.44567 18.1984 4.4152 17.9243V17.9204C4.41494 17.9181 4.41471 17.9141 4.41422 17.9097C4.41321 17.9005 4.41221 17.887 4.41032 17.8696C4.4064 17.8339 4.40002 17.781 4.39274 17.7134C4.37813 17.5778 4.35734 17.3812 4.33219 17.1382C4.28186 16.6519 4.21513 15.9775 4.14664 15.2271C4.01015 13.7313 3.86717 11.9129 3.85075 10.6734C3.8343 9.43116 3.93187 7.86705 4.03239 6.62356C4.08283 5.9996 4.13514 5.45148 4.17399 5.06008C4.1934 4.8645 4.20941 4.70725 4.22086 4.59914C4.22657 4.54527 4.23047 4.50254 4.23356 4.47414C4.23509 4.46024 4.23764 4.44917 4.23844 4.44192V4.4302C4.26938 4.15589 4.51715 3.95622 4.79118 3.98391Z" fill="#484769" style="fill:#484769;fill:color(display-p3 0.2824 0.2784 0.4118);fill-opacity:1;"/>
</svg>
