<svg width="22" height="22" viewBox="0 0 22 22" fill="none" xmlns="http://www.w3.org/2000/svg">
<path d="M5.60764 9.4902C5.3694 9.4902 5.17627 9.68333 5.17627 9.92158V10.7843C5.17627 11.0225 5.3694 11.2157 5.60764 11.2157C5.84585 11.2157 6.03901 11.0225 6.03901 10.7843V9.92158C6.03901 9.68333 5.84585 9.4902 5.60764 9.4902Z" fill="#484769" style="fill:#484769;fill:color(display-p3 0.2824 0.2784 0.4118);fill-opacity:1;"/>
<path d="M9.05881 9.4902C8.82057 9.4902 8.62744 9.68333 8.62744 9.92158V10.7843C8.62744 11.0225 8.82057 11.2157 9.05881 11.2157C9.29706 11.2157 9.49019 11.0225 9.49019 10.7843V9.92158C9.49019 9.68333 9.29706 9.4902 9.05881 9.4902Z" fill="#484769" style="fill:#484769;fill:color(display-p3 0.2824 0.2784 0.4118);fill-opacity:1;"/>
<path d="M17.0392 15.098H16.1765C15.9383 15.098 15.7451 15.2912 15.7451 15.5294C15.7451 15.7676 15.9383 15.9608 16.1765 15.9608H17.0392C17.2774 15.9608 17.4706 15.7676 17.4706 15.5294C17.4706 15.2912 17.2774 15.098 17.0392 15.098Z" fill="#484769" style="fill:#484769;fill:color(display-p3 0.2824 0.2784 0.4118);fill-opacity:1;"/>
<path d="M18.5491 3.88235H14.6667C14.4285 3.88235 14.2354 4.07552 14.2354 4.31373V12.0784C14.2354 12.3166 14.4285 12.5098 14.6667 12.5098H18.5491C18.7873 12.5098 18.9804 12.3166 18.9804 12.0784V4.31373C18.9804 4.07552 18.7873 3.88235 18.5491 3.88235ZM18.1177 11.6471H15.0981V4.7451H18.1177V11.6471Z" fill="#484769" style="fill:#484769;fill:color(display-p3 0.2824 0.2784 0.4118);fill-opacity:1;"/>
<path d="M20.7059 0H1.29412C0.580541 0 0 0.580541 0 1.29412V2.58824C0 2.82644 0.193126 3.01961 0.431373 3.01961H1.29412C1.29412 3.88947 1.29412 19.0426 1.29412 19.8431C1.29412 20.0813 1.48724 20.2745 1.72549 20.2745H3.01961V21.5686C3.01961 21.8068 3.21273 22 3.45098 22H5.17647C5.37443 22 5.54698 21.8653 5.59495 21.6733L5.94466 20.2745H16.0554L16.4051 21.6733C16.453 21.8653 16.6256 22 16.8235 22H18.549C18.7872 22 18.9804 21.8068 18.9804 21.5686V20.2745H20.2745C20.5127 20.2745 20.7059 20.0813 20.7059 19.8431C20.7059 19.1636 20.7059 3.89279 20.7059 3.01961H21.5686C21.8068 3.01961 22 2.82644 22 2.58824V1.29412C22 0.580541 21.4195 0 20.7059 0ZM12.5098 3.01961C12.5098 3.32976 12.5098 16.5333 12.5098 16.8235H7.76471V3.01961H12.5098ZM19.8431 16.8235H13.3725V14.2353H19.8431V16.8235ZM6.90196 16.8235H2.15686V3.01961H6.90196V16.8235ZM4.83966 21.1373H3.88235V20.2745H5.05534L4.83966 21.1373ZM18.1176 21.1373H17.1603L16.9447 20.2745H18.1176V21.1373ZM19.8431 19.4118H2.15686V17.6863C2.39602 17.6863 19.3589 17.6863 19.8431 17.6863V19.4118ZM19.8431 13.3725H13.3725V3.01961H19.8431V13.3725ZM21.1373 2.15686C20.3685 2.15686 1.81103 2.15686 0.862745 2.15686V1.29412C0.862745 1.05626 1.05626 0.862745 1.29412 0.862745H20.7059C20.9437 0.862745 21.1373 1.05626 21.1373 1.29412V2.15686Z" fill="#484769" style="fill:#484769;fill:color(display-p3 0.2824 0.2784 0.4118);fill-opacity:1;"/>
</svg>
