<svg width="22" height="22" viewBox="0 0 22 22" fill="none" xmlns="http://www.w3.org/2000/svg">
<path d="M21.5686 22H13.9592C13.721 22 13.5278 21.8068 13.5278 21.5686V20.2745C13.5278 19.3231 14.2903 18.549 15.2274 18.549H16.6462C16.8844 18.549 17.0776 18.7422 17.0776 18.9804C17.0776 19.2186 16.8844 19.4118 16.6462 19.4118H15.2274C14.766 19.4118 14.3906 19.7988 14.3906 20.2745V21.1372H21.1372V20.2745C21.1372 19.7988 20.7618 19.4118 20.3004 19.4118H18.8816C18.6434 19.4118 18.4503 19.2186 18.4503 18.9804C18.4503 18.7422 18.6434 18.549 18.8816 18.549H20.3004C21.2376 18.549 22 19.3231 22 20.2745V21.5686C22 21.8068 21.8068 22 21.5686 22Z" fill="#484769" style="fill:#484769;fill:color(display-p3 0.2824 0.2784 0.4118);fill-opacity:1;"/>
<path d="M6.1382 18.549C4.38515 18.549 2.95898 17.1229 2.95898 15.3698V12.0784C2.95898 11.8402 3.15215 11.6471 3.39036 11.6471H8.88604C9.12429 11.6471 9.31742 11.8402 9.31742 12.0784V15.3698C9.31742 17.1229 7.89126 18.549 6.1382 18.549ZM3.82173 12.5098V15.3698C3.82173 16.6471 4.86091 17.6863 6.1382 17.6863C7.41549 17.6863 8.45467 16.6471 8.45467 15.3698V12.5098H3.82173Z" fill="#484769" style="fill:#484769;fill:color(display-p3 0.2824 0.2784 0.4118);fill-opacity:1;"/>
<path d="M19.4549 17.2549H19.0408V8.62745C19.0408 8.3892 18.8477 8.19608 18.6094 8.19608H18.1847C17.9634 3.6385 14.2567 0 9.73181 0H7.40671C6.46951 0 5.7071 0.774055 5.7071 1.72549V1.78196C4.97817 1.97629 4.43882 2.65087 4.43882 3.45098V3.76873C2.55386 4.49973 1.26824 6.38613 1.26824 8.4653V17.8693C0.52222 18.204 0 18.9625 0 19.8431C0 21.0324 0.952082 22 2.12235 22C2.97073 22 3.70407 21.4913 4.04351 20.7585L9.31126 20.7507C10.2472 20.7496 11.0087 19.9755 11.0087 19.0253V8.41176C11.0087 6.26073 9.67159 4.45483 7.83804 3.76062V3.45098C7.83804 2.65083 7.29874 1.97629 6.5698 1.78196V1.72549C6.5698 1.24977 6.94523 0.862745 7.40667 0.862745H9.73177C13.7811 0.862745 17.1007 4.11452 17.3206 8.19608H16.9184C16.6802 8.19608 16.4871 8.3892 16.4871 8.62745V17.2549H16.0729C15.8347 17.2549 15.6416 17.4481 15.6416 17.6863C15.6416 18.8756 16.5937 19.8431 17.7639 19.8431C18.9342 19.8431 19.8863 18.8756 19.8863 17.6863C19.8863 17.4481 19.6931 17.2549 19.4549 17.2549ZM10.1459 9.4902H2.13098C2.1337 8.49536 2.1246 8.43368 2.14008 8.19608H10.1404C10.15 8.38627 10.1442 8.42803 10.1459 9.4902ZM2.12235 21.1373C1.42784 21.1373 0.862745 20.5567 0.862745 19.8431C0.862745 19.1296 1.42784 18.549 2.12235 18.549C2.81686 18.549 3.38196 19.1296 3.38196 19.8431C3.38196 20.5567 2.81691 21.1373 2.12235 21.1373ZM9.3101 19.888L4.24341 19.8955C4.27193 18.6796 3.30988 17.6913 2.13098 17.6865V10.3529H10.1459V19.0253C10.1459 19.5004 9.77102 19.8874 9.3101 19.888ZM10.0063 7.33333H2.28735C2.78123 5.56924 4.35272 4.29858 6.17087 4.31373C8.02556 4.32891 9.55344 5.62415 10.0063 7.33333ZM6.97529 3.45098V3.52384C6.42758 3.4276 5.86205 3.42471 5.30157 3.52595V3.45098C5.30157 2.97526 5.67695 2.58824 6.13839 2.58824C6.59987 2.58824 6.97529 2.97526 6.97529 3.45098ZM17.3498 9.05882H18.178V17.2549H17.3498V9.05882ZM17.7639 18.9804C17.2165 18.9804 16.7495 18.6198 16.5763 18.1176C17.4345 18.1176 18.0926 18.1176 18.9516 18.1176C18.7783 18.6198 18.3113 18.9804 17.7639 18.9804Z" fill="#484769" style="fill:#484769;fill:color(display-p3 0.2824 0.2784 0.4118);fill-opacity:1;"/>
<path d="M2.12229 20.2745C2.36053 20.2745 2.55366 20.0814 2.55366 19.8431C2.55366 19.6049 2.36053 19.4118 2.12229 19.4118C1.88405 19.4118 1.69092 19.6049 1.69092 19.8431C1.69092 20.0814 1.88405 20.2745 2.12229 20.2745Z" fill="#484769" style="fill:#484769;fill:color(display-p3 0.2824 0.2784 0.4118);fill-opacity:1;"/>
</svg>
