<svg width="22" height="22" viewBox="0 0 22 22" fill="none" xmlns="http://www.w3.org/2000/svg">
<path d="M19.6279 15.9609C19.8659 15.9612 20.0586 16.1545 20.0586 16.3926V17.6865H20.4902C20.7283 17.6865 20.9216 17.8792 20.9219 18.1172C20.9219 18.3554 20.7284 18.5488 20.4902 18.5488H20.0586V19.4121H21.5684C21.8064 19.4121 21.9998 19.6047 22 19.8428V21.5684C22 21.8066 21.8066 22 21.5684 22H0.431641C0.193394 22 0 21.8066 0 21.5684V19.8428C0.000197934 19.6047 0.193516 19.4121 0.431641 19.4121H1.94141V18.5488H1.50977C1.27158 18.5488 1.07812 18.3554 1.07812 18.1172C1.07837 17.8792 1.27173 17.6865 1.50977 17.6865H1.94141V16.3926C1.94141 16.1545 2.13409 15.9612 2.37207 15.9609C2.61027 15.9609 2.80371 16.1544 2.80371 16.3926V17.6865H3.23535C3.47338 17.6866 3.66674 17.8792 3.66699 18.1172C3.66699 18.3554 3.47353 18.5488 3.23535 18.5488H2.80371V19.4121H5.39258V18.5488H4.96094C4.72273 18.5488 4.5293 18.3554 4.5293 18.1172C4.52955 17.8792 4.72289 17.6865 4.96094 17.6865H5.39258V16.3926C5.39258 16.1545 5.58513 15.9611 5.82324 15.9609C6.06149 15.9609 6.25488 16.1544 6.25488 16.3926V17.6865H6.68652C6.9245 17.6867 7.11694 17.8793 7.11719 18.1172C7.11719 18.3553 6.92466 18.5487 6.68652 18.5488H6.25488V19.4121H8.84277V18.5488H8.41211C8.17386 18.5488 7.98047 18.3554 7.98047 18.1172C7.98072 17.8792 8.17402 17.6865 8.41211 17.6865H8.84277V16.3926C8.84277 16.1544 9.03621 15.961 9.27441 15.9609C9.51266 15.9609 9.70605 16.1544 9.70605 16.3926V17.6865H10.1377C10.3756 17.6868 10.5681 17.8793 10.5684 18.1172C10.5684 18.3552 10.3757 18.5486 10.1377 18.5488H9.70605V19.4121H12.2939V18.5488H11.8623C11.6243 18.5486 11.4316 18.3552 11.4316 18.1172C11.4319 17.8793 11.6245 17.6868 11.8623 17.6865H12.2939V16.3926C12.2939 16.1544 12.4874 15.9609 12.7256 15.9609C12.9637 15.961 13.1572 16.1544 13.1572 16.3926V17.6865H13.5879C13.8259 17.6865 14.0193 17.8792 14.0195 18.1172C14.0195 18.3554 13.8261 18.5488 13.5879 18.5488H13.1572V19.4121H15.7451V18.5488H15.3135C15.0754 18.5487 14.8828 18.3553 14.8828 18.1172C14.8831 17.8793 15.0755 17.6867 15.3135 17.6865H15.7451V16.3926C15.7451 16.1544 15.9386 15.9609 16.1768 15.9609C16.4148 15.9611 16.6074 16.1545 16.6074 16.3926V17.6865H17.0391C17.2771 17.6865 17.4705 17.8792 17.4707 18.1172C17.4707 18.3554 17.2773 18.5488 17.0391 18.5488H16.6074V19.4121H19.1963V18.5488H18.7646C18.5265 18.5488 18.333 18.3554 18.333 18.1172C18.3333 17.8792 18.5266 17.6866 18.7646 17.6865H19.1963V16.3926C19.1963 16.1544 19.3897 15.9609 19.6279 15.9609ZM0.862305 21.1377H21.1377V20.2744H0.862305V21.1377ZM11 0C14.4489 0 17.2549 2.80594 17.2549 6.25488V7.28906C17.2561 7.30834 17.2583 7.32785 17.2568 7.34766C17.2566 7.35128 17.2552 7.3548 17.2549 7.3584V10.7842H21.5684C21.8066 10.7842 22 10.9776 22 11.2158C21.9999 11.454 21.8065 11.6475 21.5684 11.6475H20.0586V12.5098H20.4902C20.7284 12.5098 20.9219 12.7032 20.9219 12.9414C20.9218 13.1795 20.7283 13.372 20.4902 13.3721H20.0586V14.667C20.0584 14.9049 19.8658 15.0974 19.6279 15.0977C19.3898 15.0977 19.1965 14.905 19.1963 14.667V13.3721H18.7646C18.5265 13.372 18.3331 13.1795 18.333 12.9414C18.333 12.7032 18.5265 12.5098 18.7646 12.5098H19.1963V11.6475H16.6074V12.5098H17.0391C17.2773 12.5098 17.4707 12.7032 17.4707 12.9414C17.4706 13.1795 17.2772 13.3721 17.0391 13.3721H16.6074V14.667C16.6072 14.905 16.4147 15.0975 16.1768 15.0977C15.9387 15.0977 15.7453 14.905 15.7451 14.667V13.3721H15.3135C15.0755 13.3719 14.8829 13.1794 14.8828 12.9414C14.8828 12.7033 15.0754 12.5099 15.3135 12.5098H15.7451V11.6475H13.1572V12.5098H13.5879C13.8261 12.5098 14.0195 12.7032 14.0195 12.9414C14.0194 13.1795 13.826 13.3721 13.5879 13.3721H13.1572V14.667C13.1571 14.905 12.9636 15.0976 12.7256 15.0977C12.4875 15.0977 12.2941 14.905 12.2939 14.667V13.3721H11.8623C11.6244 13.3718 11.4318 13.1794 11.4316 12.9414C11.4316 12.7033 11.6243 12.51 11.8623 12.5098H12.2939V11.6475H9.70605V12.5098H10.1377C10.3757 12.51 10.5684 12.7033 10.5684 12.9414C10.5682 13.1794 10.3757 13.3718 10.1377 13.3721H9.70605V14.667C9.70588 14.905 9.51255 15.0977 9.27441 15.0977C9.03632 15.0976 8.84295 14.905 8.84277 14.667V13.3721H8.41211C8.17394 13.3721 7.98059 13.1795 7.98047 12.9414C7.98047 12.7032 8.17386 12.5098 8.41211 12.5098H8.84277V11.6475H6.25488V12.5098H6.68652C6.92466 12.5099 7.11719 12.7033 7.11719 12.9414C7.11706 13.1794 6.92458 13.3719 6.68652 13.3721H6.25488V14.667C6.25471 14.905 6.06138 15.0977 5.82324 15.0977C5.58524 15.0975 5.39275 14.905 5.39258 14.667V13.3721H4.96094C4.72281 13.3721 4.52942 13.1795 4.5293 12.9414C4.5293 12.7032 4.72273 12.5098 4.96094 12.5098H5.39258V11.6475H2.80371V12.5098H3.23535C3.47353 12.5098 3.66699 12.7032 3.66699 12.9414C3.66687 13.1795 3.47345 13.372 3.23535 13.3721H2.80371V14.667C2.80353 14.905 2.61017 15.0977 2.37207 15.0977C2.1342 15.0974 1.94158 14.9049 1.94141 14.667V13.3721H1.50977C1.27166 13.372 1.07825 13.1795 1.07812 12.9414C1.07812 12.7032 1.27158 12.5098 1.50977 12.5098H1.94141V11.6475H0.431641C0.193438 11.6475 7.27931e-05 11.454 0 11.2158C0 10.9776 0.193394 10.7842 0.431641 10.7842H4.74512V6.25488C4.74513 2.80594 7.55105 1.5962e-07 11 0ZM6.9043 7.40137C6.48585 7.54509 6.05159 7.64633 5.60742 7.70508V10.7842H6.9043V7.40137ZM11.0029 3.42188C10.4079 4.99887 9.23855 6.28505 7.76758 7.03516V10.7842H14.2383V7.03516C12.7664 6.28456 11.5976 4.99773 11.0029 3.42188ZM15.1006 10.7842H16.3926V7.7041C15.9502 7.64521 15.5175 7.54459 15.1006 7.40137V10.7842ZM10.5713 0.880859C7.79775 1.1001 5.60743 3.42597 5.60742 6.25488V6.83301C8.42549 6.40197 10.5712 3.94694 10.5713 1.0498V0.880859ZM11.4346 1.0498C11.4346 3.94507 13.5772 6.39866 16.3926 6.83203V6.25488C16.3926 3.42798 14.2053 1.10391 11.4346 0.881836V1.0498Z" fill="#484769" style="fill:#484769;fill:color(display-p3 0.2824 0.2784 0.4118);fill-opacity:1;"/>
</svg>
