<svg width="22" height="22" viewBox="0 0 22 22" fill="none" xmlns="http://www.w3.org/2000/svg">
<path d="M10.9994 10.3529C8.50196 10.3529 6.47021 12.3848 6.47021 14.8823C6.47021 17.3799 8.50196 19.4118 10.9994 19.4118C13.4968 19.4118 15.5286 17.3799 15.5286 14.8823C15.5286 12.3848 13.4968 10.3529 10.9994 10.3529ZM10.9994 18.549C8.9777 18.549 7.33292 16.9041 7.33292 14.8823C7.33292 12.8605 8.9777 11.2157 10.9994 11.2157C13.0211 11.2157 14.6659 12.8605 14.6659 14.8823C14.6659 16.9041 13.0211 18.549 10.9994 18.549Z" fill="#484769" style="fill:#484769;fill:color(display-p3 0.2824 0.2784 0.4118);fill-opacity:1;"/>
<path d="M10.9994 12.1743C9.50627 12.1743 8.2915 13.3892 8.2915 14.8824C8.2915 16.3756 9.50627 17.5904 10.9994 17.5904C12.4925 17.5904 13.7073 16.3756 13.7073 14.8824C13.7073 13.3892 12.4925 12.1743 10.9994 12.1743ZM10.9994 16.7276C9.98192 16.7276 9.1542 15.8999 9.1542 14.8824C9.1542 13.8648 9.98192 13.0371 10.9994 13.0371C12.0169 13.0371 12.8446 13.8648 12.8446 14.8824C12.8446 15.8999 12.0168 16.7276 10.9994 16.7276Z" fill="#484769" style="fill:#484769;fill:color(display-p3 0.2824 0.2784 0.4118);fill-opacity:1;"/>
<path d="M10.9996 6.90196C11.7132 6.90196 12.2937 6.32141 12.2937 5.60784C12.2937 4.89426 11.7132 4.31372 10.9996 4.31372C10.2861 4.31372 9.70557 4.89426 9.70557 5.60784C9.70557 6.32141 10.2861 6.90196 10.9996 6.90196ZM10.9996 5.17647C11.2375 5.17647 11.431 5.36998 11.431 5.60784C11.431 5.8457 11.2375 6.03921 10.9996 6.03921C10.7618 6.03921 10.5683 5.8457 10.5683 5.60784C10.5683 5.36998 10.7618 5.17647 10.9996 5.17647Z" fill="#484769" style="fill:#484769;fill:color(display-p3 0.2824 0.2784 0.4118);fill-opacity:1;"/>
<path d="M10.9994 8.62746C12.6644 8.62746 14.0189 7.27286 14.0189 5.60785C14.0189 3.94284 12.6644 2.58824 10.9994 2.58824C9.33451 2.58824 7.97998 3.94284 7.97998 5.60785C7.97998 7.27286 9.33451 8.62746 10.9994 8.62746ZM10.9994 3.45099C12.1887 3.45099 13.1562 4.41856 13.1562 5.60785C13.1562 6.79714 12.1887 7.76471 10.9994 7.76471C9.8102 7.76471 8.84268 6.79714 8.84268 5.60785C8.84268 4.41856 9.81016 3.45099 10.9994 3.45099Z" fill="#484769" style="fill:#484769;fill:color(display-p3 0.2824 0.2784 0.4118);fill-opacity:1;"/>
<path d="M15.9599 0H6.03888C5.08749 0 4.31348 0.774055 4.31348 1.72549V20.2745C4.31348 21.2259 5.08749 22 6.03888 22H15.9599C16.9113 22 17.6853 21.2259 17.6853 20.2745V1.72549C17.6853 0.774055 16.9113 0 15.9599 0ZM16.8226 20.2745C16.8226 20.7502 16.4356 21.1373 15.9599 21.1373H6.03888C5.56318 21.1373 5.17618 20.7502 5.17618 20.2745V1.72549C5.17618 1.24977 5.56318 0.862745 6.03888 0.862745H15.9599C16.4356 0.862745 16.8226 1.24977 16.8226 1.72549V20.2745Z" fill="#484769" style="fill:#484769;fill:color(display-p3 0.2824 0.2784 0.4118);fill-opacity:1;"/>
<path d="M19.2628 8.55981C19.0943 8.3914 18.8212 8.3914 18.6527 8.55981C18.4843 8.72826 18.4843 9.0014 18.6527 9.1699C19.6641 10.1813 19.6643 11.8186 18.6527 12.8302C18.4843 12.9986 18.4843 13.2718 18.6527 13.4403C18.8213 13.6088 19.0942 13.6087 19.2628 13.4403C20.6114 12.0915 20.6115 9.90854 19.2628 8.55981Z" fill="#484769" style="fill:#484769;fill:color(display-p3 0.2824 0.2784 0.4118);fill-opacity:1;"/>
<path d="M20.4829 7.33972C20.3144 7.17131 20.0414 7.17131 19.8729 7.33972C19.7045 7.50817 19.7045 7.78131 19.8729 7.94976C21.5587 9.63552 21.5588 12.3643 19.8729 14.0502C19.7045 14.2187 19.7045 14.4918 19.8729 14.6603C20.0414 14.8288 20.3144 14.8287 20.4829 14.6603C22.5058 12.6374 22.506 9.36294 20.4829 7.33972Z" fill="#484769" style="fill:#484769;fill:color(display-p3 0.2824 0.2784 0.4118);fill-opacity:1;"/>
<path d="M3.34634 8.55981C3.17794 8.39148 2.9049 8.3914 2.73628 8.55981C2.08456 9.21157 1.72559 10.0782 1.72559 11C1.72559 11.9218 2.08456 12.7884 2.73633 13.4402C2.9049 13.6087 3.17786 13.6086 3.34638 13.4402C3.51483 13.2717 3.51483 12.9986 3.34638 12.8301C2.85749 12.3413 2.58829 11.6913 2.58829 11C2.58829 10.3087 2.85749 9.65868 3.34634 9.16985C3.51478 9.0014 3.51478 8.72826 3.34634 8.55981Z" fill="#484769" style="fill:#484769;fill:color(display-p3 0.2824 0.2784 0.4118);fill-opacity:1;"/>
<path d="M0.862701 11C0.862701 9.84776 1.31139 8.76449 2.12613 7.94976C2.29457 7.78131 2.29457 7.50817 2.12613 7.33971C1.95768 7.17135 1.68464 7.17131 1.51607 7.33971C0.538411 8.31742 0 9.61732 0 11C0 12.3827 0.538411 13.6826 1.51607 14.6603C1.6846 14.8288 1.9576 14.8287 2.12613 14.6603C2.29457 14.4919 2.29457 14.2187 2.12613 14.0502C1.31139 13.2355 0.862701 12.1522 0.862701 11Z" fill="#484769" style="fill:#484769;fill:color(display-p3 0.2824 0.2784 0.4118);fill-opacity:1;"/>
<path d="M6.47041 2.58841C6.70864 2.58841 6.90176 2.39528 6.90176 2.15703C6.90176 1.91879 6.70864 1.72566 6.47041 1.72566C6.23218 1.72566 6.03906 1.91879 6.03906 2.15703C6.03906 2.39528 6.23218 2.58841 6.47041 2.58841Z" fill="#484769" style="fill:#484769;fill:color(display-p3 0.2824 0.2784 0.4118);fill-opacity:1;"/>
<path d="M6.47041 20.2746C6.70864 20.2746 6.90176 20.0815 6.90176 19.8432C6.90176 19.605 6.70864 19.4118 6.47041 19.4118C6.23218 19.4118 6.03906 19.605 6.03906 19.8432C6.03906 20.0815 6.23218 20.2746 6.47041 20.2746Z" fill="#484769" style="fill:#484769;fill:color(display-p3 0.2824 0.2784 0.4118);fill-opacity:1;"/>
<path d="M15.5285 20.2746C15.7667 20.2746 15.9599 20.0815 15.9599 19.8432C15.9599 19.605 15.7667 19.4118 15.5285 19.4118C15.2903 19.4118 15.0972 19.605 15.0972 19.8432C15.0972 20.0815 15.2903 20.2746 15.5285 20.2746Z" fill="#484769" style="fill:#484769;fill:color(display-p3 0.2824 0.2784 0.4118);fill-opacity:1;"/>
<path d="M15.5285 2.58841C15.7667 2.58841 15.9599 2.39528 15.9599 2.15703C15.9599 1.91879 15.7667 1.72566 15.5285 1.72566C15.2903 1.72566 15.0972 1.91879 15.0972 2.15703C15.0972 2.39528 15.2903 2.58841 15.5285 2.58841Z" fill="#484769" style="fill:#484769;fill:color(display-p3 0.2824 0.2784 0.4118);fill-opacity:1;"/>
</svg>
