<svg width="22" height="22" viewBox="0 0 22 22" fill="none" xmlns="http://www.w3.org/2000/svg">
<path d="M17.2832 0C17.5592 6.79896e-05 17.783 0.224075 17.7832 0.5V5.38672H21.502C21.7779 5.38698 22.002 5.61074 22.002 5.88672V21.502C22.0017 21.7778 21.7777 22.0017 21.502 22.002H0.500977C0.224965 22.002 0.000211509 21.7779 0 21.502V5.88672C0 5.61058 0.224834 5.38672 0.500977 5.38672H4.81934V0.5C4.81954 0.224033 5.04332 0 5.31934 0H17.2832ZM1.00098 21.002H21.002V6.38672H17.7832V6.94336C17.7832 7.21946 17.5593 7.44329 17.2832 7.44336H5.31934C5.21041 7.44336 5.11045 7.40776 5.02832 7.34863C4.80464 7.29887 4.63773 7.09998 4.6377 6.86133V6.38672H1.00098V21.002ZM11.8311 9.99316C12.1069 9.99348 12.3309 10.2173 12.3311 10.4932V12.248H13.8066C14.0823 12.2485 14.3065 12.4723 14.3066 12.748V14.6416C14.3063 14.9172 14.0822 15.1411 13.8066 15.1416H12.3311V16.8955C12.3309 17.1713 12.1068 17.3952 11.8311 17.3955H10.1719C9.89605 17.3953 9.67206 17.1713 9.67188 16.8955V15.1416H8.19629C7.92034 15.1416 7.69658 14.9175 7.69629 14.6416V12.748C7.69645 12.472 7.92025 12.2481 8.19629 12.248H9.67188V10.4932C9.672 10.2173 9.89601 9.9934 10.1719 9.99316H11.8311ZM10.6719 12.748C10.6718 13.024 10.4478 13.2478 10.1719 13.248H8.69629V14.1416H10.1719C10.4478 14.1419 10.6719 14.3656 10.6719 14.6416V16.3955H11.3311V14.6416C11.3311 14.3655 11.5549 14.1416 11.8311 14.1416H13.3066V13.248H11.8311C11.5549 13.248 11.3311 13.0242 11.3311 12.748V10.9932H10.6719V12.748ZM5.81934 6.36133H16.6016V5.88672C16.6016 5.73182 16.6726 5.59464 16.7832 5.50293V1H5.81934V6.36133ZM15.8193 1.17969C16.0953 1.17969 16.319 1.40383 16.3193 1.67969V4.79004C16.3193 5.06618 16.0955 5.29004 15.8193 5.29004H6.78223C6.50623 5.28987 6.28223 5.06608 6.28223 4.79004V1.67969C6.28257 1.40386 6.50632 1.17972 6.78223 1.17969H15.8193ZM7.28223 4.29004H15.3193V2.17969H7.28223V4.29004Z" fill="#484769" style="fill:#484769;fill:color(display-p3 0.2824 0.2784 0.4118);fill-opacity:1;"/>
</svg>
