<svg width="22" height="22" viewBox="0 0 22 22" fill="none" xmlns="http://www.w3.org/2000/svg">
<path d="M5.60772 1.69435H2.58811C2.34991 1.69435 2.15674 1.88752 2.15674 2.12572V3.82007C2.15674 4.05827 2.34991 4.25144 2.58811 4.25144H5.60772C5.84597 4.25144 6.03909 4.05827 6.03909 3.82007V2.12572C6.03909 1.88752 5.84597 1.69435 5.60772 1.69435ZM5.17635 3.38874H3.01948V2.5571H5.17635V3.38874Z" fill="#484769" style="fill:#484769;fill:color(display-p3 0.2824 0.2784 0.4118);fill-opacity:1;"/>
<path d="M19.4119 1.69435H16.3923C16.1541 1.69435 15.9609 1.88752 15.9609 2.12572V3.82007C15.9609 4.05827 16.1541 4.25144 16.3923 4.25144H19.4119C19.6501 4.25144 19.8433 4.05827 19.8433 3.82007V2.12572C19.8433 1.88752 19.6501 1.69435 19.4119 1.69435ZM18.9805 3.38874H16.8237V2.5571H18.9805V3.38874Z" fill="#484769" style="fill:#484769;fill:color(display-p3 0.2824 0.2784 0.4118);fill-opacity:1;"/>
<path d="M11.0002 4.25148C11.7137 4.25148 12.2943 3.67793 12.2943 2.97294C12.2943 2.2679 11.7137 1.69435 11.0002 1.69435C10.2866 1.69435 9.70605 2.2679 9.70605 2.97294C9.70605 3.67793 10.2866 4.25148 11.0002 4.25148ZM11.0002 2.5571C11.238 2.5571 11.4315 2.74362 11.4315 2.97294C11.4315 3.20217 11.238 3.38874 11.0002 3.38874C10.7623 3.38874 10.5688 3.20221 10.5688 2.97294C10.5688 2.74366 10.7623 2.5571 11.0002 2.5571Z" fill="#484769" style="fill:#484769;fill:color(display-p3 0.2824 0.2784 0.4118);fill-opacity:1;"/>
<path d="M22 4.24371V1.70215C22 0.763573 21.2259 0 20.2745 0H1.72549C0.774055 0 0 0.763573 0 1.70215V4.24371C0 5.18229 0.774055 5.94587 1.72549 5.94587V18.5957C0.774055 18.5957 0 19.3593 0 20.2978V21.5686C0 21.8068 0.193126 22 0.431373 22H21.5686C21.8068 22 22 21.8068 22 21.5686V20.2978C22 19.3593 21.2259 18.5957 20.2745 18.5957V5.94587C21.2259 5.94587 22 5.18229 22 4.24371ZM0.862745 4.24371V1.70215C0.862745 1.23929 1.24977 0.862745 1.72549 0.862745H20.2745C20.7502 0.862745 21.1373 1.23929 21.1373 1.70215V4.24371C21.1373 4.70653 20.7502 5.08312 20.2745 5.08312C18.2567 5.08312 3.62107 5.08312 1.72549 5.08312C1.24977 5.08312 0.862745 4.70653 0.862745 4.24371ZM10.5686 8.89542V8.06382H11.4314V8.89542H10.5686ZM9.05882 7.20107V5.94587H12.9412V7.20107C11.994 7.20107 10.0058 7.20107 9.05882 7.20107ZM21.1373 20.2978V21.1373H0.862745V20.2978C0.862745 19.835 1.24977 19.4584 1.72549 19.4584C2.24322 19.4584 19.1955 19.4584 20.2745 19.4584C20.7502 19.4584 21.1373 19.835 21.1373 20.2978ZM15.9608 18.5957H6.03922V17.7641H15.9608V18.5957ZM19.4118 18.5957H16.8235V17.3327C16.8235 17.0945 16.6304 16.9013 16.3922 16.9013H5.60784C5.36964 16.9013 5.17647 17.0945 5.17647 17.3327V18.5957H2.58824V5.94587H8.19608V7.63245C8.19608 7.87069 8.3892 8.06382 8.62745 8.06382H9.70588V9.32679C9.70588 9.56504 9.89901 9.75817 10.1373 9.75817H10.5686V12.2496C10.5686 12.4878 10.7618 12.681 11 12.681C11.2382 12.681 11.4314 12.4878 11.4314 12.2496V9.75817H11.8627C12.1009 9.75817 12.2941 9.56504 12.2941 9.32679V8.06382H13.3725C13.6108 8.06382 13.8039 7.87069 13.8039 7.63245V5.94587H19.4118V18.5957Z" fill="#484769" style="fill:#484769;fill:color(display-p3 0.2824 0.2784 0.4118);fill-opacity:1;"/>
<path d="M13.8041 12.6654V12.2496C13.8041 12.0114 13.611 11.8182 13.3728 11.8182H8.62766C8.38941 11.8182 8.19629 12.0114 8.19629 12.2496V15.0029C8.19629 16.5254 9.43493 17.7641 10.9574 17.7641H11.043C12.1924 17.7641 13.1795 17.058 13.5946 16.057C14.6292 16.1812 15.5296 15.3812 15.5296 14.3676C15.5296 13.429 14.7556 12.6654 13.8041 12.6654ZM12.9414 12.681V13.5126H9.05903V12.681H12.9414ZM11.043 16.9014H10.9574C9.91065 16.9014 9.05903 16.0497 9.05903 15.003V14.3753H12.9414V15.003C12.9414 16.0497 12.0898 16.9014 11.043 16.9014ZM13.7958 15.2066C13.8109 15.0018 13.8009 15.0492 13.8041 13.5282C14.2799 13.5282 14.6669 13.9047 14.6669 14.3676C14.6669 14.8258 14.2833 15.2112 13.7958 15.2066Z" fill="#484769" style="fill:#484769;fill:color(display-p3 0.2824 0.2784 0.4118);fill-opacity:1;"/>
</svg>
