<svg width="22" height="22" viewBox="0 0 22 22" fill="none" xmlns="http://www.w3.org/2000/svg">
<g clip-path="url(#clip0_217_145)">
<path d="M10.5229 6.40457C9.824 6.40457 9.14081 6.61054 8.55971 6.99643C7.97861 7.38232 7.52569 7.9308 7.25824 8.57251C6.99079 9.21422 6.92081 9.92034 7.05716 10.6016C7.1935 11.2828 7.53005 11.9086 8.02423 12.3997C8.51842 12.8909 9.14805 13.2253 9.83351 13.3608C10.519 13.4963 11.2295 13.4268 11.8751 13.161C12.5208 12.8952 13.0727 12.4451 13.461 11.8675C13.8493 11.29 14.0565 10.611 14.0565 9.91645C14.0565 9.45526 13.9651 8.99859 13.7875 8.57251C13.61 8.14643 13.3497 7.75928 13.0215 7.43318C12.6934 7.10707 12.3039 6.84839 11.8751 6.6719C11.4464 6.49541 10.9869 6.40457 10.5229 6.40457ZM10.5229 12.4512C10.0161 12.4512 9.52075 12.3017 9.09952 12.0217C8.6783 11.7417 8.35016 11.3437 8.15667 10.8782C7.96319 10.4127 7.91306 9.90064 8.01264 9.40681C8.11222 8.91298 8.35702 8.45963 8.71604 8.10417C9.07506 7.74872 9.53215 7.50715 10.0294 7.41007C10.5267 7.31299 11.0418 7.36476 11.5094 7.55883C11.977 7.75289 12.3762 8.08052 12.6563 8.50022C12.9365 8.91992 13.085 9.4128 13.0831 9.91645C13.0805 10.5896 12.8096 11.2343 12.3298 11.7094C11.8499 12.1844 11.2002 12.4512 10.5229 12.4512Z" fill="#484769" style="fill:#484769;fill:color(display-p3 0.2824 0.2784 0.4118);fill-opacity:1;"/>
<path d="M21.1531 7.62357C21.3786 7.62102 21.594 7.5302 21.7525 7.37082C21.9111 7.21143 22 6.99634 22 6.77221V5.43712C21.9975 5.21467 21.9074 5.00204 21.7491 4.84473C21.5909 4.68743 21.3769 4.59794 21.1531 4.59543H21.0557V1.93492C21.0557 1.42174 20.8506 0.929591 20.4855 0.566724C20.1204 0.203857 19.6252 0 19.1088 0L1.9469 0C1.43055 0 0.93535 0.203857 0.570235 0.566724C0.20512 0.929591 0 1.42174 0 1.93492L0 17.9077C0 18.4208 0.20512 18.913 0.570235 19.2758C0.93535 19.6387 1.43055 19.8426 1.9469 19.8426H2.92035V21.168C2.92035 21.3938 3.01061 21.6103 3.17126 21.77C3.33191 21.9297 3.5498 22.0193 3.77699 22.0193H7.01858C7.2441 22.0194 7.46053 21.931 7.6209 21.7734C7.78128 21.6158 7.87266 21.4018 7.87522 21.1777V19.8329H13.1903V21.1583C13.1903 21.3841 13.2805 21.6007 13.4412 21.7603C13.6018 21.92 13.8197 22.0097 14.0469 22.0097H17.2982C17.5237 22.0097 17.7402 21.9213 17.9005 21.7637C18.0609 21.6062 18.1523 21.3921 18.1549 21.168V19.8329H19.1283C19.6447 19.8329 20.1399 19.629 20.505 19.2662C20.8701 18.9033 21.0752 18.4111 21.0752 17.898V15.2375H21.1726C21.3981 15.2375 21.6145 15.1491 21.7749 14.9915C21.9353 14.834 22.0266 14.6199 22.0292 14.3958V13.0607C22.0267 12.8382 21.9366 12.6256 21.7784 12.4683C21.6201 12.311 21.4061 12.2215 21.1823 12.219H21.085V7.62357H21.1531ZM21.0363 13.1768V14.27H17.0159V13.1768H21.0363ZM16.8991 12.2093C16.6736 12.2119 16.4582 12.3027 16.2997 12.4621C16.1411 12.6215 16.0522 12.8366 16.0522 13.0607V14.3958C16.0522 14.6216 16.1425 14.8381 16.3031 14.9978C16.4638 15.1574 16.6817 15.2471 16.9088 15.2471H17.5221V16.4468H3.5531V3.3861H17.5221V4.59543H16.9186C16.6931 4.59797 16.4777 4.68879 16.3191 4.84818C16.1606 5.00757 16.0717 5.22266 16.0717 5.44679V6.77221C16.0717 6.998 16.1619 7.21455 16.3226 7.37421C16.4832 7.53387 16.7011 7.62357 16.9283 7.62357H17.5221V12.2093H16.8991ZM17.0257 6.65611V5.56288H21.0265V6.65611H17.0257ZM6.89203 21.0325H3.89381V19.8329H6.89203V21.0325ZM17.1717 21.0325H14.154V19.8329H17.1619L17.1717 21.0325ZM20.092 17.9077C20.092 18.1642 19.9895 18.4103 19.8069 18.5917C19.6244 18.7732 19.3768 18.8751 19.1186 18.8751H1.9469C1.68873 18.8751 1.44113 18.7732 1.25857 18.5917C1.07601 18.4103 0.973451 18.1642 0.973451 17.9077V1.93492C0.973451 1.67833 1.07601 1.43225 1.25857 1.25082C1.44113 1.06939 1.68873 0.967458 1.9469 0.967458H19.1186C19.3768 0.967458 19.6244 1.06939 19.8069 1.25082C19.9895 1.43225 20.092 1.67833 20.092 1.93492V4.59543H18.4956V2.90237C18.4956 2.77408 18.4443 2.65104 18.353 2.56033C18.2617 2.46961 18.1379 2.41865 18.0088 2.41865H3.06637C2.93728 2.41865 2.81348 2.46961 2.7222 2.56033C2.63093 2.65104 2.57965 2.77408 2.57965 2.90237V16.9305C2.57965 17.0588 2.63093 17.1819 2.7222 17.2726C2.81348 17.3633 2.93728 17.4142 3.06637 17.4142H17.9894C18.1185 17.4142 18.2423 17.3633 18.3335 17.2726C18.4248 17.1819 18.4761 17.0588 18.4761 16.9305V15.2375H20.0823L20.092 17.9077ZM20.092 12.2093H18.4956V7.62357H20.1018L20.092 12.2093Z" fill="#484769" style="fill:#484769;fill:color(display-p3 0.2824 0.2784 0.4118);fill-opacity:1;"/>
</g>
<defs>
<clipPath id="clip0_217_145">
<rect width="22" height="22" fill="white" style="fill:white;fill-opacity:1;"/>
</clipPath>
</defs>
</svg>
