<svg width="22" height="22" viewBox="0 0 22 22" fill="none" xmlns="http://www.w3.org/2000/svg">
<path d="M3.58789 2.82617C3.86152 1.70599 4.91096 1.04162 5.93164 1.3418L15.4092 4.12891C15.4633 4.3676 15.5382 4.59728 15.6318 4.81543L5.79004 1.9209C5.06101 1.70649 4.31178 2.18141 4.11621 2.98145L3.13965 6.97949C2.94438 7.77964 3.37739 8.60196 4.10645 8.81641L17.4561 12.7432L18.1826 9.76953C18.226 9.59198 18.3173 9.433 18.4453 9.31445L21.4531 6.52734L20.6758 6.29883C20.8581 6.15948 21.0277 6.00097 21.1816 5.82617L21.5947 5.94727C22.0212 6.07277 22.143 6.67366 21.8057 6.98633L18.7979 9.77344C18.7553 9.81296 18.7244 9.86574 18.71 9.9248L17.9844 12.8984C17.9061 13.2183 17.606 13.408 17.3145 13.3223L12.0801 11.7832C12 12.111 11.8621 12.4183 11.6738 12.6875C11.4855 12.9569 11.2503 13.1828 10.9824 13.3525C10.7146 13.5222 10.4189 13.6325 10.1123 13.6768C9.91778 13.7049 9.72128 13.7069 9.52734 13.6816C9.25716 16.2033 7.3028 18.1602 4.93262 18.1602H3.19238V19.8994C3.19238 21.0593 2.33513 22 1.27832 22H0V14.0381H1.27832C2.33506 14.0381 3.19229 14.9779 3.19238 16.1377V17.5596H4.93262C7.0448 17.5596 8.78229 15.7977 8.99121 13.54C8.76884 13.4502 8.5597 13.3239 8.37109 13.165C8.12566 12.9584 7.91932 12.7003 7.76465 12.4062C7.61006 12.1123 7.51008 11.7877 7.46973 11.4512C7.42936 11.1146 7.44926 10.7723 7.5293 10.4443L3.96484 9.39648C2.94408 9.09625 2.3388 7.94459 2.6123 6.82422L3.58789 2.82617ZM0.546875 21.4004H1.27832C2.03318 21.4004 2.64551 20.7279 2.64551 19.8994V16.1377C2.64541 15.3093 2.03312 14.6377 1.27832 14.6377H0.546875V21.4004ZM8.05762 10.5996C8.00959 10.7965 7.9897 11.0002 7.99805 11.2031C8.0004 11.2597 8.00499 11.3167 8.01172 11.373C8.04276 11.6314 8.11952 11.8807 8.23828 12.1064C8.35707 12.3323 8.51564 12.5297 8.7041 12.6885C8.89256 12.8472 9.10745 12.9637 9.33691 13.0312C9.56628 13.0987 9.80551 13.116 10.041 13.082C10.2765 13.048 10.5042 12.9634 10.71 12.833C10.9156 12.7027 11.0957 12.529 11.2402 12.3223C11.2717 12.2772 11.3013 12.2304 11.3291 12.1826C11.4287 12.0116 11.5047 11.8247 11.5527 11.6279L8.05762 10.5996ZM18.8438 0C20.5799 0 21.9873 1.54471 21.9873 3.4502C21.9873 5.35578 20.5799 6.90039 18.8438 6.90039C17.1076 6.90034 15.7002 5.35574 15.7002 3.4502C15.7002 1.54474 17.1076 5.35078e-05 18.8438 0ZM18.8438 0.599609C17.4096 0.599663 16.2471 1.87615 16.2471 3.4502C16.2471 5.02437 17.4096 6.30073 18.8438 6.30078C20.278 6.30078 21.4404 5.0244 21.4404 3.4502C21.4404 1.87611 20.278 0.599609 18.8438 0.599609ZM18.8438 4.08691C18.9804 4.08691 19.1166 4.11123 19.2451 4.1582C19.3736 4.2052 19.4941 4.27474 19.5977 4.36621C19.7152 4.47012 19.7333 4.65908 19.6387 4.78809C19.5441 4.91707 19.3725 4.93767 19.2549 4.83398C19.2056 4.79045 19.1435 4.75362 19.0723 4.72754C19.001 4.70147 18.9232 4.6875 18.8438 4.6875C18.7642 4.68751 18.6865 4.70147 18.6152 4.72754C18.544 4.75361 18.4819 4.79047 18.4326 4.83398C18.315 4.93758 18.1434 4.91707 18.0488 4.78809C17.9542 4.6591 17.9724 4.47013 18.0898 4.36621C18.1934 4.27476 18.314 4.2052 18.4424 4.1582C18.5709 4.11122 18.707 4.08692 18.8438 4.08691ZM18.8438 3.02246C19.0585 3.02246 19.2718 3.06698 19.4707 3.1543C19.6695 3.24163 19.8508 3.36998 20.0039 3.53223C20.1125 3.64732 20.1157 3.83784 20.0107 3.95703C19.9059 4.07613 19.7326 4.07892 19.624 3.96387C19.5225 3.85635 19.4014 3.7707 19.2676 3.71191C19.1336 3.65308 18.9893 3.62207 18.8438 3.62207C18.6982 3.62208 18.5539 3.65309 18.4199 3.71191C18.2861 3.77071 18.165 3.85635 18.0635 3.96387C17.9549 4.07894 17.7816 4.07619 17.6768 3.95703C17.5718 3.83784 17.575 3.64732 17.6836 3.53223C17.8367 3.36998 18.018 3.24164 18.2168 3.1543C18.4157 3.067 18.629 3.02247 18.8438 3.02246ZM18.8438 1.74414C19.2068 1.74414 19.5662 1.82916 19.9004 1.99219C20.2342 2.15513 20.5365 2.39287 20.79 2.69141C20.893 2.81265 20.8868 3.00323 20.7764 3.11621C20.6659 3.22887 20.4935 3.22166 20.3906 3.10059C20.1857 2.85926 19.9429 2.66935 19.6777 2.54004C19.4127 2.41078 19.1293 2.34473 18.8438 2.34473C18.5581 2.34474 18.2748 2.41076 18.0098 2.54004C17.7446 2.66936 17.5018 2.85923 17.2969 3.10059C17.194 3.22169 17.0216 3.22896 16.9111 3.11621C16.8007 3.00323 16.7945 2.81265 16.8975 2.69141C17.1512 2.3927 17.454 2.15515 17.7881 1.99219C18.1222 1.82924 18.4808 1.74415 18.8438 1.74414Z" fill="#484769" style="fill:#484769;fill:color(display-p3 0.2824 0.2784 0.4118);fill-opacity:1;"/>
</svg>
