<svg width="22" height="22" viewBox="0 0 22 22" fill="none" xmlns="http://www.w3.org/2000/svg">
<path d="M15.8994 0.142561C16.7673 -0.120823 17.6725 -0.0175902 18.498 0.43846C19.3233 0.89451 20.0318 1.68266 20.5332 2.70213C21.0346 3.72183 21.3062 4.92671 21.3125 6.16209C21.7414 9.98805 21.9712 13.8526 22 17.7246C22 20.0389 21.3121 21.5215 19.999 21.8945C19.7526 21.9647 19.5016 21.9994 19.25 21.999C18.6588 22.0164 18.0797 21.7621 17.6035 21.2744C17.1273 20.7867 16.7808 20.0931 16.6172 19.3027C16.3491 18.2412 15.8679 16.7872 15.5723 15.917C15.2072 16.1466 14.8099 16.2628 14.4092 16.2568C14.0085 16.2508 13.6134 16.1233 13.252 15.8828C12.8905 15.6423 12.5712 15.2943 12.3164 14.8642C12.0617 14.4342 11.878 13.9319 11.7773 13.3926H10.2227C10.1222 13.9332 9.93789 14.4371 9.68262 14.8681C9.42735 15.299 9.10735 15.6471 8.74512 15.8877C8.3829 16.1282 7.98728 16.2556 7.58594 16.2607C7.18444 16.2658 6.78634 16.1484 6.4209 15.917C6.12527 16.7968 5.6441 18.2508 5.37598 19.3027C5.21262 20.0915 4.86737 20.7839 4.39258 21.2715C3.91775 21.759 3.34008 22.0142 2.75 21.999C2.50072 21.9987 2.25203 21.964 2.00781 21.8945C0.687816 21.5502 3.30577e-06 20.0389 0 17.7246C0.0288024 13.8526 0.258568 9.98805 0.6875 6.16209C0.693838 4.92671 0.965386 3.72183 1.4668 2.70213C1.96816 1.68266 2.67672 0.89451 3.50195 0.43846C4.32749 -0.0175902 5.23275 -0.120823 6.10059 0.142561C6.96828 0.405965 7.76014 1.02325 8.37402 1.916H13.626C14.2399 1.02325 15.0317 0.405965 15.8994 0.142561ZM1.11328 8.84959C0.845869 11.7936 0.704006 14.7573 0.6875 17.7246C0.687502 19.0059 0.941777 20.6029 2.14453 20.957C2.40765 21.0694 2.68514 21.107 2.95898 21.0683C3.23256 21.0297 3.49793 20.9158 3.73926 20.7324C3.98078 20.5488 4.19395 20.2997 4.36523 20C4.53648 19.7003 4.66318 19.3559 4.7373 18.9873C5.01918 17.8684 5.5 16.3856 5.84375 15.4101C5.52313 15.053 5.26438 14.6005 5.08594 14.0859C4.90753 13.5714 4.81383 13.0078 4.8125 12.4365C4.02319 12.3465 3.26494 11.9668 2.61523 11.3369C1.96558 10.707 1.44708 9.84853 1.11328 8.84959ZM20.8867 8.86912C20.5516 9.86512 20.0325 10.7201 19.3828 11.3467C18.7331 11.9732 17.9755 12.3493 17.1875 12.4365C17.1862 13.0078 17.0925 13.5714 16.9141 14.0859C16.7356 14.6005 16.4769 15.053 16.1562 15.4101C16.5 16.3856 16.9808 17.8684 17.2627 18.9873C17.3368 19.3559 17.4635 19.7003 17.6348 20C17.806 20.2997 18.0192 20.5488 18.2607 20.7324C18.5021 20.9158 18.7674 21.0297 19.041 21.0683C19.3149 21.107 19.5923 21.0694 19.8555 20.957C21.0582 20.6029 21.3125 19.0059 21.3125 17.7246C21.2953 14.7637 21.1534 11.8068 20.8867 8.86912ZM5.80469 1.03807C4.97407 0.836917 4.11874 1.02769 3.375 1.58006C2.63131 2.13245 2.04211 3.01494 1.7002 4.0869C1.35826 5.15894 1.28359 6.35932 1.48828 7.49705C1.69297 8.63459 2.16461 9.64461 2.8291 10.3662C3.49374 11.0878 4.31312 11.4795 5.15625 11.4795H5.5V12.0244C5.49266 12.1613 5.49266 12.2996 5.5 12.4365C5.50008 13.1973 5.71777 13.9269 6.10449 14.4648C6.49127 15.0027 7.01557 15.3047 7.5625 15.3047C8.04133 15.3233 8.50984 15.1097 8.8877 14.7002C9.26553 14.2906 9.52873 13.7109 9.63281 13.0605C9.7369 12.4101 9.67528 11.7296 9.45801 11.1357C9.24074 10.542 8.88158 10.0723 8.44238 9.80662L8.07812 9.56737L8.29785 9.14647C8.76694 8.17192 8.98906 7.00661 8.92773 5.8369C8.86635 4.66741 8.52561 3.55984 7.95996 2.69041C7.39419 1.82085 6.63533 1.23926 5.80469 1.03807ZM18.6592 1.59276C17.9185 1.03609 17.0656 0.83911 16.2354 1.03319C15.4051 1.22731 14.6453 1.8012 14.0762 2.66405C13.507 3.52694 13.1605 4.62957 13.0928 5.79686C13.0251 6.96407 13.2399 8.12969 13.7021 9.10838L13.9219 9.56737L13.5645 9.84471C13.2099 10.0752 12.9098 10.4415 12.6992 10.9004C12.4887 11.3592 12.376 11.8922 12.375 12.4365C12.3751 13.1973 12.5928 13.9269 12.9795 14.4648C13.3663 15.0027 13.8906 15.3047 14.4375 15.3047C14.9844 15.3047 15.5087 15.0027 15.8955 14.4648C16.2822 13.9269 16.4999 13.1973 16.5 12.4365C16.5073 12.2996 16.5073 12.1613 16.5 12.0244L16.418 11.4795H16.8574C17.6993 11.4809 18.5178 11.0917 19.1826 10.373C19.8473 9.65444 20.3204 8.64775 20.5273 7.51268C20.7342 6.37752 20.6625 5.17878 20.3242 4.10643C19.9859 3.03404 19.3999 2.14946 18.6592 1.59276ZM7.5625 10.5195C7.92717 10.5195 8.27729 10.7214 8.53516 11.0801C8.79273 11.4386 8.93741 11.9247 8.9375 12.4316C8.9375 12.8099 8.85714 13.1806 8.70605 13.4951C8.555 13.8095 8.34001 14.0545 8.08887 14.1992C7.83762 14.344 7.56067 14.3814 7.29395 14.3076C7.02738 14.2337 6.78205 14.0515 6.58984 13.7842C6.39779 13.5168 6.26693 13.1763 6.21387 12.8056C6.16082 12.4347 6.18794 12.0496 6.29199 11.7002C6.39606 11.3507 6.57271 11.0519 6.79883 10.8418C7.02492 10.6317 7.2906 10.5195 7.5625 10.5195ZM14.4375 10.5195C14.8022 10.5195 15.1523 10.7214 15.4102 11.0801C15.6677 11.4386 15.8124 11.9247 15.8125 12.4316C15.8125 12.8099 15.7321 13.1806 15.5811 13.4951C15.43 13.8095 15.215 14.0545 14.9639 14.1992C14.7126 14.344 14.4357 14.3814 14.1689 14.3076C13.9024 14.2337 13.657 14.0515 13.4648 13.7842C13.2728 13.5168 13.1419 13.1763 13.0889 12.8056C13.0358 12.4347 13.0629 12.0496 13.167 11.7002C13.2711 11.3507 13.4477 11.0519 13.6738 10.8418C13.8999 10.6317 14.1656 10.5195 14.4375 10.5195ZM7.42871 11.4941C7.29535 11.531 7.17232 11.6221 7.07617 11.7558C6.98014 11.8895 6.91524 12.0598 6.88867 12.2451C6.86215 12.4306 6.87573 12.6231 6.92773 12.7978C6.97977 12.9726 7.06761 13.1224 7.18066 13.2275C7.29368 13.3325 7.42661 13.3887 7.5625 13.3887C7.74483 13.3887 7.9199 13.2877 8.04883 13.1084C8.17773 12.929 8.25 12.6852 8.25 12.4316C8.24993 12.2427 8.20927 12.0575 8.13379 11.9004C8.05826 11.7433 7.95069 11.6211 7.8252 11.5488C7.69972 11.4766 7.56191 11.4574 7.42871 11.4941ZM14.3037 11.4941C14.1704 11.531 14.0473 11.6221 13.9512 11.7558C13.8551 11.8895 13.7902 12.0598 13.7637 12.2451C13.7372 12.4306 13.7507 12.6231 13.8027 12.7978C13.8548 12.9726 13.9426 13.1224 14.0557 13.2275C14.1687 13.3325 14.3016 13.3887 14.4375 13.3887C14.6198 13.3887 14.7949 13.2877 14.9238 13.1084C15.0527 12.929 15.125 12.6852 15.125 12.4316C15.1249 12.2427 15.0843 12.0575 15.0088 11.9004C14.9333 11.7433 14.8257 11.6211 14.7002 11.5488C14.5747 11.4766 14.4369 11.4574 14.3037 11.4941ZM8.9375 2.87303C9.36938 3.81848 9.60907 4.90952 9.63086 6.02928C9.65258 7.14893 9.45598 8.25595 9.06152 9.23241C9.44511 9.5793 9.76006 10.0541 9.97852 10.6133C10.197 11.1727 10.3121 11.7998 10.3125 12.4365H11.6875C11.6849 11.8035 11.7953 11.1791 12.0088 10.6201C12.2224 10.061 12.5325 9.58381 12.9111 9.23241C12.5207 8.25238 12.3288 7.14327 12.3555 6.02342C12.3821 4.90367 12.6264 3.81495 13.0625 2.87303H8.9375ZM16.4492 7.75975C16.6376 7.65121 16.8449 7.6224 17.0449 7.67772C17.2449 7.73306 17.429 7.86972 17.5732 8.0703C17.7174 8.27082 17.8156 8.52655 17.8555 8.80467C17.8952 9.08285 17.8749 9.37172 17.7969 9.63377C17.7189 9.89571 17.5864 10.1197 17.417 10.2773C17.2474 10.4349 17.0477 10.5195 16.8438 10.5195C16.5703 10.5195 16.3076 10.3686 16.1143 10.0996C15.9209 9.83058 15.8125 9.46539 15.8125 9.08494C15.8125 8.80126 15.873 8.52395 15.9863 8.28807C16.0996 8.05217 16.2608 7.86832 16.4492 7.75975ZM16.8438 8.60643C16.7526 8.60643 16.6651 8.65738 16.6006 8.74705C16.5362 8.83671 16.5 8.95822 16.5 9.08494C16.5 9.17945 16.5199 9.27197 16.5576 9.35057C16.5953 9.42904 16.6493 9.49013 16.7119 9.52635C16.7747 9.56254 16.8445 9.57214 16.9111 9.55369C16.9777 9.53518 17.0389 9.48958 17.0869 9.42283C17.1348 9.35611 17.1674 9.27116 17.1807 9.17869C17.1939 9.08604 17.1871 8.98962 17.1611 8.90233C17.1352 8.81511 17.0915 8.74001 17.0352 8.68748C16.9786 8.63494 16.9117 8.60643 16.8438 8.60643ZM6.1875 3.82518H7.5625V6.69432H6.1875V8.60643H4.125V6.69432H2.75V3.82518H4.125V1.91209H6.1875V3.82518ZM4.8125 4.78123H3.4375V5.73826H4.8125V7.65037H5.5V5.73826H6.875V4.78123H5.5V2.86912H4.8125V4.78123ZM14.3867 4.89061C14.5751 4.78211 14.7825 4.75328 14.9824 4.80858C15.1824 4.86391 15.3665 5.00063 15.5107 5.20116C15.655 5.40177 15.7532 5.65825 15.793 5.93651C15.8327 6.2145 15.8123 6.50275 15.7344 6.76463C15.6563 7.02674 15.5241 7.25154 15.3545 7.40916C15.1849 7.56674 14.9852 7.65037 14.7812 7.65037C14.5077 7.65037 14.2452 7.49947 14.0518 7.23045C13.8584 6.96144 13.75 6.59623 13.75 6.2158C13.75 5.93215 13.8105 5.65478 13.9238 5.41893C14.0371 5.18306 14.1983 4.99917 14.3867 4.89061ZM18.5117 4.89061C18.7001 4.78211 18.9075 4.75328 19.1074 4.80858C19.3074 4.86391 19.4915 5.00063 19.6357 5.20116C19.78 5.40177 19.8782 5.65825 19.918 5.93651C19.9577 6.2145 19.9373 6.50275 19.8594 6.76463C19.7813 7.02674 19.6491 7.25154 19.4795 7.40916C19.3099 7.56674 19.1102 7.65037 18.9062 7.65037C18.6327 7.65037 18.3702 7.49947 18.1768 7.23045C17.9834 6.96144 17.875 6.59623 17.875 6.2158C17.875 5.93215 17.9355 5.65478 18.0488 5.41893C18.1621 5.18306 18.3233 4.99917 18.5117 4.89061ZM14.7812 5.73826C14.6901 5.73826 14.6026 5.78824 14.5381 5.87791C14.4737 5.96754 14.4375 6.08909 14.4375 6.2158C14.4375 6.31026 14.4574 6.40286 14.4951 6.48143C14.5329 6.56005 14.5866 6.622 14.6494 6.65819C14.7122 6.69437 14.782 6.703 14.8486 6.68455C14.9152 6.66603 14.9764 6.62043 15.0244 6.55369C15.0723 6.48695 15.1049 6.40204 15.1182 6.30955C15.1314 6.21685 15.1246 6.12052 15.0986 6.03319C15.0726 5.94593 15.0291 5.87087 14.9727 5.81834C14.9161 5.7658 14.8492 5.73826 14.7812 5.73826ZM18.9062 5.73826C18.8151 5.73826 18.7276 5.78824 18.6631 5.87791C18.5987 5.96754 18.5625 6.08909 18.5625 6.2158C18.5625 6.31026 18.5824 6.40286 18.6201 6.48143C18.6579 6.56005 18.7116 6.622 18.7744 6.65819C18.8372 6.69437 18.907 6.703 18.9736 6.68455C19.0402 6.66603 19.1014 6.62043 19.1494 6.55369C19.1973 6.48695 19.2299 6.40204 19.2432 6.30955C19.2564 6.21685 19.2496 6.12052 19.2236 6.03319C19.1976 5.94593 19.1541 5.87087 19.0977 5.81834C19.0411 5.7658 18.9742 5.73826 18.9062 5.73826ZM16.4492 2.02147C16.6376 1.91298 16.8449 1.88508 17.0449 1.94041C17.2449 1.99578 17.429 2.1324 17.5732 2.33299C17.7173 2.53355 17.8157 2.78928 17.8555 3.06737C17.8952 3.34536 17.8748 3.6336 17.7969 3.89549C17.7188 4.1576 17.5866 4.3824 17.417 4.54002C17.2474 4.69764 17.0477 4.78123 16.8438 4.78123C16.5702 4.78123 16.3077 4.63032 16.1143 4.36131C15.9209 4.09231 15.8125 3.72704 15.8125 3.34666C15.8125 3.06306 15.8731 2.7856 15.9863 2.54979C16.0996 2.31398 16.2608 2.13001 16.4492 2.02147ZM16.8438 2.86912C16.7526 2.86912 16.6651 2.9191 16.6006 3.00877C16.5362 3.09837 16.5001 3.21996 16.5 3.34666C16.5 3.44107 16.52 3.53374 16.5576 3.61229C16.5954 3.69088 16.6491 3.75285 16.7119 3.78905C16.7747 3.82523 16.8445 3.83484 16.9111 3.81639C16.9777 3.79793 17.0389 3.7522 17.0869 3.68553C17.135 3.61871 17.1674 3.53309 17.1807 3.44041C17.1939 3.34766 17.1871 3.25141 17.1611 3.16405C17.1351 3.07675 17.0916 3.00174 17.0352 2.9492C16.9786 2.89666 16.9117 2.86912 16.8438 2.86912Z" fill="#484769" style="fill:#484769;fill:color(display-p3 0.2824 0.2784 0.4118);fill-opacity:1;"/>
</svg>
