<svg width="22" height="22" viewBox="0 0 22 22" fill="none" xmlns="http://www.w3.org/2000/svg">
<g clip-path="url(#clip0_198_111)">
<path d="M3.91016 0.0429688H0.472656C0.235383 0.0429688 0.0429688 0.235383 0.0429688 0.472656V8.63672C0.0429688 8.87399 0.235383 9.06641 0.472656 9.06641C0.70993 9.06641 0.902344 8.87399 0.902344 8.63672V7.34766H3.48047V8.63672C3.48047 8.87399 3.67288 9.06641 3.91016 9.06641C4.14743 9.06641 4.33984 8.87399 4.33984 8.63672V0.472656C4.33984 0.235383 4.14743 0.0429688 3.91016 0.0429688ZM0.902344 6.48828V0.902344H3.48047V6.48828H0.902344Z" fill="#484769" style="fill:#484769;fill:color(display-p3 0.2824 0.2784 0.4118);fill-opacity:1;"/>
<path d="M18.9492 0.0429688H15.5117C15.2744 0.0429688 15.082 0.235383 15.082 0.472656V8.63672C15.082 8.87399 15.2744 9.06641 15.5117 9.06641C15.749 9.06641 15.9414 8.87399 15.9414 8.63672V7.34766H18.5195V8.63672C18.5195 8.87399 18.7119 9.06641 18.9492 9.06641C19.1865 9.06641 19.3789 8.87399 19.3789 8.63672V0.472656C19.3789 0.235383 19.1865 0.0429688 18.9492 0.0429688ZM15.9414 6.48828V0.902344H18.5195V6.48828H15.9414Z" fill="#484769" style="fill:#484769;fill:color(display-p3 0.2824 0.2784 0.4118);fill-opacity:1;"/>
<path d="M12.4518 0.0429688H11.2148C10.0302 0.0429688 9.06641 1.00676 9.06641 2.19141V8.63672C9.06641 8.87399 9.25882 9.06641 9.49609 9.06641C9.73337 9.06641 9.92578 8.87399 9.92578 8.63672V2.19141C9.92578 1.48062 10.5041 0.902344 11.2148 0.902344H12.4518C12.7175 0.902344 12.9336 1.11848 12.9336 1.38415C12.9336 1.511 12.8822 1.63518 12.7925 1.72485L12.4681 2.04927C11.937 2.58032 11.6445 3.28642 11.6445 4.03752V8.63672C11.6445 8.87399 11.8369 9.06641 12.0742 9.06641C12.3115 9.06641 12.5039 8.87399 12.5039 8.63672V4.03752C12.5039 3.51596 12.707 3.02569 13.0758 2.65693L13.4002 2.33252C13.6534 2.07921 13.793 1.74243 13.793 1.38415C13.793 0.644617 13.1913 0.0429688 12.4518 0.0429688Z" fill="#484769" style="fill:#484769;fill:color(display-p3 0.2824 0.2784 0.4118);fill-opacity:1;"/>
<path d="M2.19141 3.05066C2.42872 3.05066 2.62109 2.85828 2.62109 2.62097C2.62109 2.38366 2.42872 2.19128 2.19141 2.19128C1.9541 2.19128 1.76172 2.38366 1.76172 2.62097C1.76172 2.85828 1.9541 3.05066 2.19141 3.05066Z" fill="#484769" style="fill:#484769;fill:color(display-p3 0.2824 0.2784 0.4118);fill-opacity:1;"/>
<path d="M17.2305 3.05066C17.4678 3.05066 17.6602 2.85828 17.6602 2.62097C17.6602 2.38366 17.4678 2.19128 17.2305 2.19128C16.9932 2.19128 16.8008 2.38366 16.8008 2.62097C16.8008 2.85828 16.9932 3.05066 17.2305 3.05066Z" fill="#484769" style="fill:#484769;fill:color(display-p3 0.2824 0.2784 0.4118);fill-opacity:1;"/>
<path d="M7.77734 8.20703H0.472656C0.235383 8.20703 0.0429688 8.39945 0.0429688 8.63672V19.0638C0.0429688 20.6592 1.34084 21.957 2.93618 21.957H7.77734C8.01462 21.957 8.20703 21.7646 8.20703 21.5273V8.63672C8.20703 8.39945 8.01462 8.20703 7.77734 8.20703ZM0.902344 19.0638V9.06641H5.19922V21.0977H2.93618C1.8147 21.0977 0.902344 20.1853 0.902344 19.0638ZM7.34766 21.0977H6.05859V9.06641H7.34766V21.0977Z" fill="#484769" style="fill:#484769;fill:color(display-p3 0.2824 0.2784 0.4118);fill-opacity:1;"/>
<path d="M21.5273 8.20703H15.5117C15.2744 8.20703 15.082 8.39945 15.082 8.63672V21.5273C15.082 21.7646 15.2744 21.957 15.5117 21.957C19.0657 21.957 21.957 19.0657 21.957 15.5117V8.63672C21.957 8.39945 21.7646 8.20703 21.5273 8.20703ZM19.3789 9.06641V15.2324C19.3789 17.3293 17.9322 19.1536 15.9414 19.665V9.06641H19.3789ZM21.0977 15.5117C21.0977 18.4472 18.8215 20.8612 15.9414 21.0813V20.5481C18.4156 20.0214 20.2383 17.8228 20.2383 15.2324V9.06641H21.0977V15.5117Z" fill="#484769" style="fill:#484769;fill:color(display-p3 0.2824 0.2784 0.4118);fill-opacity:1;"/>
<path d="M13.793 8.20703H9.49609C9.25882 8.20703 9.06641 8.39945 9.06641 8.63672V17.8869C9.06641 19.1721 9.36362 20.5043 9.97116 21.7195C10.0911 21.9593 10.5123 21.9468 10.6133 21.8711C12.8864 20.1663 14.2227 17.4865 14.2227 14.6523V8.63672C14.2227 8.39945 14.0302 8.20703 13.793 8.20703ZM9.92578 9.06641H11.6445V13.793C11.6445 15.5976 11.0565 17.324 9.97434 18.7407C9.9425 18.4572 9.92578 18.172 9.92578 17.8869V9.06641ZM13.3633 14.6523C13.3633 17.0287 12.3083 19.3059 10.5168 20.8468C10.381 20.5192 10.2683 20.182 10.1786 19.8388C11.6798 18.1771 12.5039 16.0398 12.5039 13.793V9.06641H13.3633V14.6523Z" fill="#484769" style="fill:#484769;fill:color(display-p3 0.2824 0.2784 0.4118);fill-opacity:1;"/>
</g>
<defs>
<clipPath id="clip0_198_111">
<rect width="22" height="22" fill="white" style="fill:white;fill-opacity:1;"/>
</clipPath>
</defs>
</svg>
