<svg width="22" height="22" viewBox="0 0 22 22" fill="none" xmlns="http://www.w3.org/2000/svg">
<path d="M21.4764 22H0.524026C0.338248 22 0.166439 21.8837 0.0725022 21.6942C-0.0217835 21.5051 -0.0242279 21.2709 0.0658673 21.0785L9.44311 1.04975C9.45009 1.03444 9.45777 1.01996 9.4658 1.00547C9.82199 0.375708 10.4125 0 11.0463 0C11.6553 0 12.1976 0.341364 12.5343 0.9372C12.5427 0.951683 12.5503 0.966992 12.5577 0.982302L21.9346 21.0794C22.0243 21.2713 22.0215 21.5055 21.9276 21.6946C21.8333 21.8841 21.6618 22 21.4764 22ZM1.4138 20.7587H20.5884L11.6529 1.60917C11.4633 1.28974 11.1926 1.24132 11.0463 1.24132C10.769 1.24132 10.5089 1.40394 10.3472 1.67744L1.4138 20.7587Z" fill="#484769" style="fill:#484769;fill:color(display-p3 0.2824 0.2784 0.4118);fill-opacity:1;"/>
<path d="M12.8507 10.56L10.9102 11.3685L11.9505 7.51791H10.3183L9.16309 14.1913L11.1071 13.1622L10.7967 15.8062L10.0361 14.4896L10.9126 19.3858L12.5008 15.5092L11.8157 16.0226L12.8507 10.56Z" fill="#484769" style="fill:#484769;fill:color(display-p3 0.2824 0.2784 0.4118);fill-opacity:1;"/>
</svg>
