<svg width="22" height="22" viewBox="0 0 22 22" fill="none" xmlns="http://www.w3.org/2000/svg">
<path d="M21.646 9.2251C20.1545 9.2251 18.6629 9.2251 17.1714 9.2251C14.1601 9.2251 11.144 9.2251 8.13259 9.2251C5.79618 9.2251 3.45505 9.2251 1.11864 9.2251C0.863763 9.2251 0.608882 9.2251 0.354001 9.2251C0.472002 9.34498 0.590002 9.46487 0.708003 9.58475C0.708003 8.93738 0.708003 8.2948 0.708003 7.64742C0.590002 7.7673 0.472002 7.88719 0.354001 8.00707C1.84553 8.00707 3.33705 8.00707 4.82858 8.00707C7.83995 8.00707 10.856 8.00707 13.8674 8.00707C16.2038 8.00707 18.5449 8.00707 20.8814 8.00707C21.1362 8.00707 21.3911 8.00707 21.646 8.00707C21.528 7.88719 21.41 7.7673 21.292 7.64742C21.292 8.2948 21.292 8.93738 21.292 9.58475C21.292 10.0499 22 10.0499 22 9.58475C22 8.93738 22 8.2948 22 7.64742C22 7.45081 21.8395 7.28777 21.646 7.28777C20.1545 7.28777 18.6629 7.28777 17.1714 7.28777C14.1601 7.28777 11.144 7.28777 8.13259 7.28777C5.79618 7.28777 3.45505 7.28777 1.11864 7.28777C0.863763 7.28777 0.608882 7.28777 0.354001 7.28777C0.160481 7.28777 0 7.45081 0 7.64742C0 8.2948 0 8.93738 0 9.58475C0 9.78136 0.160481 9.94441 0.354001 9.94441C1.84553 9.94441 3.33705 9.94441 4.82858 9.94441C7.83995 9.94441 10.856 9.94441 13.8674 9.94441C16.2038 9.94441 18.5449 9.94441 20.8814 9.94441C21.1362 9.94441 21.3911 9.94441 21.646 9.94441C22.1038 9.94441 22.1038 9.2251 21.646 9.2251Z" fill="#484769" style="fill:#484769;fill:color(display-p3 0.2824 0.2784 0.4118);fill-opacity:1;"/>
<path d="M19.522 8.01188C20.23 8.01188 20.938 8.01188 21.646 8.01188C21.528 7.892 21.41 7.77211 21.292 7.65223C21.292 9.53202 21.292 11.4118 21.292 13.2964C21.292 15.9626 21.292 18.6289 21.292 21.2999C21.292 21.415 21.292 21.5301 21.292 21.6404C21.41 21.5205 21.528 21.4006 21.646 21.2807C20.938 21.2807 20.23 21.2807 19.522 21.2807C19.64 21.4006 19.758 21.5205 19.876 21.6404C19.876 19.4489 19.876 17.2574 19.876 15.0659C19.876 13.2388 19.876 11.4166 19.876 9.58956C19.876 9.12441 19.168 9.12441 19.168 9.58956C19.168 11.7811 19.168 13.9725 19.168 16.164C19.168 17.9911 19.168 19.8133 19.168 21.6404C19.168 21.837 19.3284 22 19.522 22C20.23 22 20.938 22 21.646 22C21.8395 22 22 21.837 22 21.6404C22 19.4489 22 17.2574 22 15.0659C22 13.0374 22 11.0042 22 8.97576C22 8.53458 22 8.0982 22 7.65703C22 7.46041 21.8395 7.29737 21.646 7.29737C20.938 7.29737 20.23 7.29737 19.522 7.29737C19.0688 7.29258 19.0688 8.01188 19.522 8.01188Z" fill="#484769" style="fill:#484769;fill:color(display-p3 0.2824 0.2784 0.4118);fill-opacity:1;"/>
<path d="M8.07123 12.2366C5.73482 12.2366 3.39841 12.2366 1.062 12.2366C0.826003 12.2366 0.590002 12.2366 0.354001 12.2366C0.472002 12.3565 0.590002 12.4764 0.708003 12.5963C0.708003 11.594 0.708003 10.5918 0.708003 9.58956C0.590002 9.70944 0.472002 9.82933 0.354001 9.94921C2.69041 9.94921 5.02682 9.94921 7.36323 9.94921C7.59923 9.94921 7.83523 9.94921 8.07123 9.94921C7.95323 9.82933 7.83523 9.70944 7.71723 9.58956C7.71723 10.5918 7.71723 11.594 7.71723 12.5963C7.71723 13.0614 8.42523 13.0614 8.42523 12.5963C8.42523 11.594 8.42523 10.5918 8.42523 9.58956C8.42523 9.39295 8.26475 9.2299 8.07123 9.2299C5.73482 9.2299 3.39841 9.2299 1.062 9.2299C0.826003 9.2299 0.590002 9.2299 0.354001 9.2299C0.160481 9.2299 0 9.39295 0 9.58956C0 10.5918 0 11.594 0 12.5963C0 12.7929 0.160481 12.9559 0.354001 12.9559C2.69041 12.9559 5.02682 12.9559 7.36323 12.9559C7.59923 12.9559 7.83523 12.9559 8.07123 12.9559C8.52907 12.9559 8.52907 12.2366 8.07123 12.2366Z" fill="#484769" style="fill:#484769;fill:color(display-p3 0.2824 0.2784 0.4118);fill-opacity:1;"/>
<path d="M8.07123 15.2577C5.73482 15.2577 3.39841 15.2577 1.062 15.2577C0.826003 15.2577 0.590002 15.2577 0.354001 15.2577C0.472002 15.3776 0.590002 15.4975 0.708003 15.6174C0.708003 14.6151 0.708003 13.6129 0.708003 12.6106C0.590002 12.7305 0.472002 12.8504 0.354001 12.9703C2.69041 12.9703 5.02682 12.9703 7.36323 12.9703C7.59923 12.9703 7.83523 12.9703 8.07123 12.9703C7.95323 12.8504 7.83523 12.7305 7.71723 12.6106C7.71723 13.6129 7.71723 14.6151 7.71723 15.6174C7.71723 16.0825 8.42523 16.0825 8.42523 15.6174C8.42523 14.6151 8.42523 13.6129 8.42523 12.6106C8.42523 12.414 8.26475 12.251 8.07123 12.251C5.73482 12.251 3.39841 12.251 1.062 12.251C0.826003 12.251 0.590002 12.251 0.354001 12.251C0.160481 12.251 0 12.414 0 12.6106C0 13.6129 0 14.6151 0 15.6174C0 15.814 0.160481 15.977 0.354001 15.977C2.69041 15.977 5.02682 15.977 7.36323 15.977C7.59923 15.977 7.83523 15.977 8.07123 15.977C8.52907 15.977 8.52907 15.2577 8.07123 15.2577Z" fill="#484769" style="fill:#484769;fill:color(display-p3 0.2824 0.2784 0.4118);fill-opacity:1;"/>
<path d="M8.07123 18.2692C5.73482 18.2692 3.39841 18.2692 1.062 18.2692C0.826003 18.2692 0.590002 18.2692 0.354001 18.2692C0.472002 18.3891 0.590002 18.509 0.708003 18.6289C0.708003 17.6266 0.708003 16.6244 0.708003 15.6222C0.590002 15.742 0.472002 15.8619 0.354001 15.9818C2.69041 15.9818 5.02682 15.9818 7.36323 15.9818C7.59923 15.9818 7.83523 15.9818 8.07123 15.9818C7.95323 15.8619 7.83523 15.742 7.71723 15.6222C7.71723 16.6244 7.71723 17.6266 7.71723 18.6289C7.71723 19.094 8.42523 19.094 8.42523 18.6289C8.42523 17.6266 8.42523 16.6244 8.42523 15.6222C8.42523 15.4255 8.26475 15.2625 8.07123 15.2625C5.73482 15.2625 3.39841 15.2625 1.062 15.2625C0.826003 15.2625 0.590002 15.2625 0.354001 15.2625C0.160481 15.2625 0 15.4255 0 15.6222C0 16.6244 0 17.6266 0 18.6289C0 18.8255 0.160481 18.9885 0.354001 18.9885C2.69041 18.9885 5.02682 18.9885 7.36323 18.9885C7.59923 18.9885 7.83523 18.9885 8.07123 18.9885C8.52907 18.9885 8.52907 18.2692 8.07123 18.2692Z" fill="#484769" style="fill:#484769;fill:color(display-p3 0.2824 0.2784 0.4118);fill-opacity:1;"/>
<path d="M8.07123 21.2759C5.73482 21.2759 3.39841 21.2759 1.062 21.2759C0.826003 21.2759 0.590002 21.2759 0.354001 21.2759C0.472002 21.3958 0.590002 21.5157 0.708003 21.6356C0.708003 20.6333 0.708003 19.6311 0.708003 18.6288C0.590002 18.7487 0.472002 18.8686 0.354001 18.9885C2.69041 18.9885 5.02682 18.9885 7.36323 18.9885C7.59923 18.9885 7.83523 18.9885 8.07123 18.9885C7.95323 18.8686 7.83523 18.7487 7.71723 18.6288C7.71723 19.6311 7.71723 20.6333 7.71723 21.6356C7.71723 22.1007 8.42523 22.1007 8.42523 21.6356C8.42523 20.6333 8.42523 19.6311 8.42523 18.6288C8.42523 18.4322 8.26475 18.2692 8.07123 18.2692C5.73482 18.2692 3.39841 18.2692 1.062 18.2692C0.826003 18.2692 0.590002 18.2692 0.354001 18.2692C0.160481 18.2692 0 18.4322 0 18.6288C0 19.6311 0 20.6333 0 21.6356C0 21.8322 0.160481 21.9952 0.354001 21.9952C2.69041 21.9952 5.02682 21.9952 7.36323 21.9952C7.59923 21.9952 7.83523 21.9952 8.07123 21.9952C8.52907 21.9952 8.52907 21.2759 8.07123 21.2759Z" fill="#484769" style="fill:#484769;fill:color(display-p3 0.2824 0.2784 0.4118);fill-opacity:1;"/>
<path d="M3.40283 11.4502C3.94091 11.4502 4.48371 11.4502 5.0218 11.4502C5.47964 11.4502 5.47964 10.7309 5.0218 10.7309C4.48371 10.7309 3.94091 10.7309 3.40283 10.7309C2.94971 10.7309 2.94971 11.4502 3.40283 11.4502Z" fill="#484769" style="fill:#484769;fill:color(display-p3 0.2824 0.2784 0.4118);fill-opacity:1;"/>
<path d="M3.40283 14.476C3.94091 14.476 4.48371 14.476 5.0218 14.476C5.47964 14.476 5.47964 13.7567 5.0218 13.7567C4.48371 13.7567 3.94091 13.7567 3.40283 13.7567C2.94971 13.7567 2.94971 14.476 3.40283 14.476Z" fill="#484769" style="fill:#484769;fill:color(display-p3 0.2824 0.2784 0.4118);fill-opacity:1;"/>
<path d="M3.40283 17.4827C3.94091 17.4827 4.48371 17.4827 5.0218 17.4827C5.47964 17.4827 5.47964 16.7634 5.0218 16.7634C4.48371 16.7634 3.94091 16.7634 3.40283 16.7634C2.94971 16.7634 2.94971 17.4827 3.40283 17.4827Z" fill="#484769" style="fill:#484769;fill:color(display-p3 0.2824 0.2784 0.4118);fill-opacity:1;"/>
<path d="M3.40283 20.4942C3.94091 20.4942 4.48371 20.4942 5.0218 20.4942C5.47964 20.4942 5.47964 19.7749 5.0218 19.7749C4.48371 19.7749 3.94091 19.7749 3.40283 19.7749C2.94971 19.7749 2.94971 20.4942 3.40283 20.4942Z" fill="#484769" style="fill:#484769;fill:color(display-p3 0.2824 0.2784 0.4118);fill-opacity:1;"/>
<path d="M2.2373 7.65221C2.2373 6.56846 2.2373 5.4847 2.2373 4.40095C2.2373 3.69602 2.2373 2.98631 2.2373 2.28139C2.2373 1.90735 2.1665 1.43261 2.36002 1.09693C2.7801 0.35844 3.86571 0.761252 3.86571 1.55728C3.86571 2.02244 4.57371 2.02244 4.57371 1.55728C4.57371 0.353644 3.28986 -0.384844 2.26562 0.209783C1.8125 0.473529 1.5293 1.01061 1.5293 1.53331C1.5293 1.6436 1.5293 1.7491 1.5293 1.85939C1.5293 3.24526 1.5293 4.63592 1.5293 6.02178C1.5293 6.56366 1.5293 7.11034 1.5293 7.65221C1.5293 8.11257 2.2373 8.11257 2.2373 7.65221Z" fill="#484769" style="fill:#484769;fill:color(display-p3 0.2824 0.2784 0.4118);fill-opacity:1;"/>
<path d="M5.32406 3.32199C4.58774 3.32199 3.8467 3.32199 3.11038 3.32199C3.22838 3.44187 3.34638 3.56176 3.46438 3.68164C3.46438 3.36994 3.46438 3.05824 3.46438 2.74175C3.46438 2.29098 3.75702 1.92174 4.21958 1.91215C5.1447 1.88337 4.97478 3.07742 4.97478 3.68164C4.97478 4.14679 5.68279 4.14679 5.68279 3.68164C5.68279 3.32678 5.69223 2.96713 5.68279 2.61227C5.65919 1.81144 4.98422 1.21682 4.2243 1.19284C3.47854 1.16886 2.8319 1.80665 2.77054 2.54514C2.7375 2.91918 2.7611 3.30281 2.7611 3.68164C2.7611 3.87825 2.92158 4.0413 3.1151 4.0413C3.85142 4.0413 4.59246 4.0413 5.32879 4.0413C5.77719 4.0413 5.77719 3.32199 5.32406 3.32199Z" fill="#484769" style="fill:#484769;fill:color(display-p3 0.2824 0.2784 0.4118);fill-opacity:1;"/>
</svg>
