<svg width="22" height="22" viewBox="0 0 22 22" fill="none" xmlns="http://www.w3.org/2000/svg">
<path d="M6.0498 0C6.39022 0.000735947 6.72232 0.0828881 7 0.234375C7.27734 0.385745 7.48709 0.599121 7.60059 0.845703H12.1992C12.3127 0.599134 12.5225 0.385755 12.7998 0.234375C13.0775 0.0828882 13.4096 0.000735994 13.75 0H18.1504C18.4907 0.000797497 18.822 0.0829561 19.0996 0.234375C19.3772 0.385799 19.5877 0.598947 19.7012 0.845703H22V22H0V0.845703H2.29883C2.41233 0.598946 2.62283 0.385799 2.90039 0.234375C3.17795 0.0829558 3.50934 0.000797573 3.84961 0H6.0498ZM1.09961 21.1543H20.9004V5.92285H1.09961V21.1543ZM15.9502 8.46191C16.6794 8.46191 17.3788 8.68445 17.8945 9.08105C18.4103 9.47777 18.7002 10.0161 18.7002 10.5771V15.6543C18.7001 15.9318 18.6292 16.2065 18.4912 16.4629C18.353 16.7195 18.1499 16.953 17.8945 17.1494C17.6392 17.3458 17.3365 17.5021 17.0029 17.6084C16.6693 17.7147 16.3113 17.7695 15.9502 17.7695H6.05078C5.68971 17.7695 5.33164 17.7147 4.99805 17.6084C4.6644 17.5021 4.36083 17.3458 4.10547 17.1494C3.85024 16.953 3.64791 16.7194 3.50977 16.4629C3.37175 16.2065 3.30086 15.9318 3.30078 15.6543V10.5771C3.30078 10.0162 3.58983 9.47776 4.10547 9.08105C4.62119 8.68434 5.32144 8.46191 6.05078 8.46191H15.9502ZM6.05078 9.30762C5.61318 9.30762 5.19322 9.44167 4.88379 9.67969C4.57435 9.91771 4.40039 10.2405 4.40039 10.5771V15.6543C4.40055 15.9908 4.57449 16.3138 4.88379 16.5518C5.19319 16.7896 5.61334 16.9229 6.05078 16.9229H15.9502C16.3878 16.9229 16.8078 16.7897 17.1172 16.5518C17.4265 16.3138 17.6004 15.9908 17.6006 15.6543V10.5771C17.6006 10.2406 17.4265 9.9177 17.1172 9.67969C16.8078 9.44166 16.3878 9.30762 15.9502 9.30762H6.05078ZM15.4004 7.61523H6.60059V6.76953H15.4004V7.61523ZM1.09961 5.07715H20.9004V1.69238H1.09961V5.07715ZM3.2998 2.53809C3.90727 2.53813 4.39941 2.91747 4.39941 3.38477C4.39931 3.85199 3.90721 4.23043 3.2998 4.23047C2.69236 4.23047 2.2003 3.85201 2.2002 3.38477C2.2002 2.91745 2.69229 2.53809 3.2998 2.53809ZM8.7998 2.53809C9.40727 2.53813 9.89941 2.91747 9.89941 3.38477C9.89931 3.85199 9.40721 4.23043 8.7998 4.23047C8.19236 4.23047 7.7003 3.85201 7.7002 3.38477C7.7002 2.91745 8.19229 2.53809 8.7998 2.53809ZM12.0996 2.53809C12.7071 2.53809 13.2002 2.91745 13.2002 3.38477C13.2001 3.85201 12.7071 4.23047 12.0996 4.23047C11.4923 4.23031 11.0001 3.85191 11 3.38477C11 2.91755 11.4923 2.53825 12.0996 2.53809ZM15.4004 2.53809C16.0079 2.53813 16.5 2.91747 16.5 3.38477C16.4999 3.85199 16.0078 4.23043 15.4004 4.23047C14.7929 4.23047 14.3009 3.85201 14.3008 3.38477C14.3008 2.91745 14.7929 2.53809 15.4004 2.53809ZM18.7002 2.53809C19.3077 2.53813 19.7998 2.91747 19.7998 3.38477C19.7997 3.85199 19.3076 4.23043 18.7002 4.23047C18.0927 4.23047 17.6007 3.85201 17.6006 3.38477C17.6006 2.91745 18.0927 2.53809 18.7002 2.53809Z" fill="#484769" style="fill:#484769;fill:color(display-p3 0.2824 0.2784 0.4118);fill-opacity:1;"/>
</svg>
