<svg width="22" height="22" viewBox="0 0 22 22" fill="none" xmlns="http://www.w3.org/2000/svg">
<path d="M17.6626 5.79227V4.6409H10.061V5.79227C8.78658 5.9694 7.8252 6.83736 7.8252 7.88245V22H19.8984V7.90016C19.8984 6.83736 18.9146 5.9694 17.6626 5.79227ZM16.7683 5.34943V5.75684H10.9553V5.34943H16.7683ZM8.7195 10.4509H11.626C12.0061 10.4509 12.2967 10.6812 12.2967 10.9823V16.7923C12.2967 17.0934 12.0061 17.3237 11.626 17.3237H8.7195V10.4509ZM19.0041 21.2915H8.7195V18.0322H11.626C12.498 18.0322 13.191 17.4831 13.191 16.7923V10.9823C13.191 10.2915 12.498 9.74235 11.626 9.74235H8.7195V7.90016C8.7195 7.12077 9.52438 6.48309 10.5081 6.48309H17.2154C18.1992 6.48309 19.0041 7.12077 19.0041 7.90016V21.2915Z" fill="#484769" style="fill:#484769;fill:color(display-p3 0.2824 0.2784 0.4118);fill-opacity:1;"/>
<path d="M18.5122 1.93076H16.5224C16.3659 0.867955 15.2256 0.0354267 13.8618 0.0354267C12.5427 0.0354267 11.4248 0.797102 11.2236 1.80676H9.81504C9.6809 1.29308 9.14431 0.885668 8.47358 0.832528L0 0V4.33977L8.45122 3.50725C9.12195 3.43639 9.65854 3.02899 9.79268 2.53301H11.2012C11.4248 3.54267 12.5203 4.30435 13.8394 4.30435C15.1138 4.30435 16.187 3.59581 16.4553 2.657H18.5122C18.9817 2.657 19.4512 2.81643 19.7866 3.06441L21.374 4.32206L22 3.82609L20.4126 2.56844C19.8984 2.14332 19.2276 1.93076 18.5122 1.93076ZM8.94309 2.26731C8.94309 2.53301 8.69716 2.76329 8.36179 2.79871L0.916667 3.54267V0.797101L8.36179 1.54106C8.69716 1.57649 8.94309 1.80676 8.94309 2.07246V2.26731ZM13.8618 3.5781C12.8781 3.5781 12.0732 2.94042 12.0732 2.16103C12.0732 1.38164 12.8781 0.743961 13.8618 0.743961C14.8455 0.743961 15.6504 1.38164 15.6504 2.16103C15.6504 2.94042 14.8455 3.5781 13.8618 3.5781Z" fill="#484769" style="fill:#484769;fill:color(display-p3 0.2824 0.2784 0.4118);fill-opacity:1;"/>
</svg>
