<svg width="22" height="20" viewBox="0 0 22 20" fill="none" xmlns="http://www.w3.org/2000/svg">
<path d="M21.7855 18.8394L21.7905 18.8297L11.6615 9.49419L12.94 8.2729C12.9595 8.25613 12.9775 8.23548 12.997 8.21807L13.2405 7.96516L13.231 7.96839C14 7.14065 14.5 5.90968 14.5 4.51613C14.5 2.02194 12.933 0 11 0C9.067 0 7.5 2.02194 7.5 4.51613C7.5 5.67677 7.849 6.72452 8.4065 7.52452L8.407 7.52323C8.498 7.64452 8.6245 7.72194 8.7655 7.72194C9.0415 7.72194 9.2655 7.43355 9.2655 7.07677C9.2655 6.89484 9.206 6.73161 9.112 6.61419L9.1135 6.61161C8.7365 6.0471 8.5 5.32064 8.5 4.51613C8.5 2.73419 9.6195 1.29032 11 1.29032C12.3805 1.29032 13.5 2.73419 13.5 4.51613C13.5 5.26387 13.2945 5.94323 12.964 6.49032L12.9655 6.49161L12.9535 6.5071C12.831 6.7071 12.692 6.88581 12.537 7.04323L12.5085 7.08L0.205 18.8335L0.21 18.8432C0.086 18.9606 0 19.1406 0 19.3548C0 19.7116 0.224 20 0.5 20H21.5C21.776 20 22 19.7116 22 19.3548C22 19.1387 21.912 18.9568 21.7855 18.8394ZM2.0155 18.7097L10.8165 10.3013L19.9395 18.7097H2.0155Z" fill="#484769" style="fill:#484769;fill:color(display-p3 0.2824 0.2784 0.4118);fill-opacity:1;"/>
</svg>
