<svg width="22" height="22" viewBox="0 0 22 22" fill="none" xmlns="http://www.w3.org/2000/svg">
<path d="M3.44399 18.3924C3.22333 18.3924 3.04446 18.5689 3.04446 18.7866V21.6058C3.04446 21.8235 3.22333 22 3.44399 22H18.1744C18.395 22 18.5739 21.8235 18.5739 21.6058V18.7866C18.5739 18.5689 18.395 18.3924 18.1744 18.3924H16.2376V13.1835C16.2376 10.2297 13.8023 7.82664 10.8089 7.82664C7.81608 7.82664 5.38079 10.2297 5.38079 13.1835V18.3924H3.44399ZM17.7748 21.2115H3.8429V19.1809H5.7797H15.8374H17.7742L17.7748 21.2115ZM6.17985 13.1835C6.17985 10.6646 8.25617 8.61574 10.8089 8.61574C13.3616 8.61574 15.4385 10.6646 15.4385 13.1835V18.3924H6.17985V13.1835ZM14.4046 7.1722C14.2018 7.08546 14.109 6.85377 14.1969 6.65362L16.7453 0.85096C16.8325 0.651412 17.0673 0.559826 17.2702 0.645953C17.473 0.732686 17.5658 0.96438 17.4779 1.16453L14.9296 6.96719C14.8644 7.11579 14.7175 7.20495 14.5626 7.20495C14.5104 7.20495 14.4563 7.19464 14.4046 7.1722ZM10.7917 5.51334C10.571 5.51152 10.3934 5.33381 10.3946 5.11667L10.4247 0.391818C10.4259 0.175287 10.6048 0 10.8242 0C10.8248 0 10.8261 0 10.8267 0C11.0474 0.00181959 11.225 0.179533 11.2238 0.39667L11.1936 5.12153C11.1924 5.33806 11.0135 5.51334 10.7941 5.51334C10.7929 5.51334 10.7923 5.51334 10.7917 5.51334ZM0.665719 4.71576L4.24059 7.8594C4.40532 8.00436 4.42007 8.25303 4.27317 8.41619C4.19449 8.50353 4.08447 8.54841 3.97506 8.54841C3.8804 8.54841 3.78513 8.51505 3.70891 8.44833L0.134036 5.3047C-0.0313077 5.15913 -0.0454449 4.91045 0.101459 4.7473C0.248978 4.58535 0.500989 4.5714 0.665719 4.71576ZM21.8494 5.82207L18.1049 8.76615C18.0311 8.82377 17.9432 8.85228 17.856 8.85228C17.7386 8.85228 17.6224 8.80133 17.5431 8.70368C17.4054 8.53325 17.4337 8.28578 17.6064 8.14931L21.3509 5.20523C21.5249 5.07058 21.7744 5.09787 21.9127 5.26831C22.0504 5.43813 22.0221 5.6856 21.8494 5.82207ZM6.52467 6.77613L4.10475 0.942545C4.02116 0.741178 4.11889 0.510697 4.32296 0.428209C4.52702 0.344508 4.75998 0.441553 4.84419 0.643527L7.26411 6.47712C7.34771 6.67848 7.24997 6.90897 7.04591 6.99145C6.99612 7.01147 6.9451 7.02117 6.8947 7.02117C6.73673 7.02117 6.58798 6.92898 6.52467 6.77613Z" fill="#484769" style="fill:#484769;fill:color(display-p3 0.2824 0.2784 0.4118);fill-opacity:1;"/>
</svg>
