<svg width="22" height="22" viewBox="0 0 22 22" fill="none" xmlns="http://www.w3.org/2000/svg">
<path d="M14.4927 0H14.0141C13.2451 0 12.6202 0.485856 12.6202 1.08235V2.09676H4.38574C4.26648 2.09676 4.15186 2.12983 4.06048 2.18936L1.66364 3.76298C1.45145 3.90188 1.42512 4.14902 1.60478 4.31377C1.70391 4.40457 1.8464 4.45207 1.98967 4.45207C2.10429 4.45207 2.21967 4.42141 2.31415 4.35947L4.57005 2.87845H11.4717C11.347 3.07027 11.2704 3.28313 11.2704 3.51223V5.3859H10.2861C8.20442 5.3859 6.51076 6.70156 6.51076 8.31787V21.6092C6.51076 21.825 6.73611 22 7.01413 22H21.4966C21.7746 22 22 21.825 22 21.6092V8.31787C22 6.70156 20.3063 5.3859 18.2247 5.3859H17.2404V3.51223C17.2404 2.85921 16.665 2.31323 15.889 2.15087V1.08235C15.8867 0.485856 15.2617 0 14.4927 0ZM13.6269 1.08235C13.6269 0.916992 13.8012 0.7823 14.0141 0.7823H14.4927C14.7065 0.7823 14.88 0.916992 14.88 1.08235V2.09676H14.2534H13.6269V1.08235ZM20.9917 8.31787V21.2183H7.51596V8.31787C7.51596 7.1321 8.75813 6.1682 10.2853 6.1682H11.773H16.7347H18.2224C19.7495 6.1682 20.9917 7.1321 20.9917 8.31787ZM16.2313 3.51223V5.3859H12.2763V3.51223C12.2763 3.16287 12.6426 2.87845 13.0934 2.87845H13.1243H14.2542H15.3841H15.4159C15.865 2.87845 16.2313 3.16287 16.2313 3.51223ZM0.563957 10.1879C0.934132 10.4832 1.43054 10.6497 1.96179 10.6552C1.97108 10.6552 1.98038 10.6552 1.98967 10.6552C3.07309 10.6552 3.96213 9.97628 3.97684 9.13264C3.99001 8.40987 2.70446 6.89037 2.44658 6.59333C2.35442 6.48689 2.20109 6.42256 2.03614 6.42075C1.86499 6.42436 1.71552 6.48028 1.6195 6.58431C1.35155 6.87594 0.0133416 8.36718 0.000176374 9.08995C-0.00679344 9.50305 0.193008 9.8927 0.563957 10.1879ZM2.01678 7.52295C2.52944 8.17717 2.97474 8.86987 2.97009 9.12242C2.96235 9.53853 2.52402 9.87406 1.9889 9.87406C1.98425 9.87406 1.9796 9.87405 1.97496 9.87345C1.7132 9.87105 1.46771 9.78867 1.28495 9.64315C1.10218 9.49704 1.00305 9.30522 1.00693 9.10137C1.01157 8.84943 1.48087 8.16574 2.01678 7.52295Z" fill="#484769" style="fill:#484769;fill:color(display-p3 0.2824 0.2784 0.4118);fill-opacity:1;"/>
</svg>
