<svg width="22" height="22" viewBox="0 0 22 22" fill="none" xmlns="http://www.w3.org/2000/svg">
<path d="M4.26221 5.52028C5.06757 5.52028 5.72364 4.84292 5.72364 4.01143C5.72364 3.17994 5.06757 2.50258 4.26221 2.50258C3.45685 2.50258 2.80078 3.17994 2.80078 4.01143C2.80078 4.84292 3.45685 5.52028 4.26221 5.52028ZM4.26221 3.31379C4.62757 3.31379 4.93792 3.63422 4.93792 4.01143C4.93792 4.38864 4.62757 4.70907 4.26221 4.70907C3.89685 4.70907 3.5865 4.38864 3.5865 4.01143C3.5865 3.63422 3.89685 3.31379 4.26221 3.31379Z" fill="#484769" style="fill:#484769;fill:color(display-p3 0.2824 0.2784 0.4118);fill-opacity:1;"/>
<path d="M3.72803 12.4277C2.92267 12.4277 2.2666 13.1051 2.2666 13.9366C2.2666 14.7681 2.92267 15.4454 3.72803 15.4454C4.53339 15.4454 5.18946 14.7681 5.18946 13.9366C5.18946 13.1051 4.53339 12.4277 3.72803 12.4277ZM3.72803 14.6342C3.36267 14.6342 3.05232 14.3138 3.05232 13.9366C3.05232 13.5594 3.36267 13.2389 3.72803 13.2389C4.09339 13.2389 4.40374 13.5594 4.40374 13.9366C4.40374 14.3138 4.09339 14.6342 3.72803 14.6342Z" fill="#484769" style="fill:#484769;fill:color(display-p3 0.2824 0.2784 0.4118);fill-opacity:1;"/>
<path d="M3.72803 17.149C2.92267 17.149 2.2666 17.8263 2.2666 18.6578C2.2666 19.4893 2.92267 20.1667 3.72803 20.1667C4.53339 20.1667 5.18946 19.4893 5.18946 18.6578C5.18946 17.8263 4.53339 17.149 3.72803 17.149ZM3.72803 19.3555C3.36267 19.3555 3.05232 19.035 3.05232 18.6578C3.05232 18.2806 3.36267 17.9602 3.72803 17.9602C4.09339 17.9602 4.40374 18.2806 4.40374 18.6578C4.40374 19.035 4.09339 19.3555 3.72803 19.3555Z" fill="#484769" style="fill:#484769;fill:color(display-p3 0.2824 0.2784 0.4118);fill-opacity:1;"/>
<path d="M18.4839 11.7585C18.9436 10.9676 19.2068 10.0549 19.2068 9.13016C19.2068 6.29093 16.9675 4.01549 14.2529 4.01549C13.6479 4.01549 13.0743 4.14528 12.54 4.34808V2.22271C12.54 0.997788 11.5736 0 10.3871 0H2.15286C0.966428 0 0 0.997788 0 2.22271V19.7773C0 21.0022 0.966428 22 2.15286 22H15.7104C16.0482 22 16.3586 21.8864 16.6375 21.6999C16.775 21.712 16.9046 21.7445 17.0461 21.7445C19.7764 21.7445 22 19.4487 22 16.6298C22 14.3909 20.6486 12.444 18.4839 11.7625V11.7585ZM20.24 19.3555L18.92 17.9926C19.1125 17.7128 19.2461 17.3842 19.305 17.0313H21.1711C21.0886 17.9115 20.7586 18.7065 20.24 19.3555ZM14.4021 19.9274L15.7221 18.5645C15.9932 18.7633 16.3114 18.9012 16.6532 18.962V20.8886C15.8007 20.8035 15.0307 20.4628 14.4061 19.9274H14.4021ZM12.9171 17.0313H14.7832C14.8421 17.3842 14.9757 17.7087 15.1682 17.9926L13.8482 19.3555C13.3296 18.7105 12.9996 17.9115 12.9171 17.0313ZM8.51321 17.4572C8.51321 16.9218 8.9375 16.4838 9.45607 16.4838H12.1039C12.1039 16.5324 12.0882 16.5771 12.0882 16.6257C12.0882 17.2625 12.2139 17.8669 12.4221 18.4307H9.45214C8.93357 18.4307 8.50929 17.9926 8.50929 17.4572H8.51321ZM8.51321 14.6991C8.51321 14.1637 8.9375 13.7257 9.45607 13.7257H12.9721C12.5871 14.3016 12.3161 14.9587 12.1864 15.6726H9.45607C8.9375 15.6726 8.51321 15.2345 8.51321 14.6991ZM10.1121 9.53171H11.99C12.0489 9.88459 12.1825 10.2091 12.375 10.493L11.0393 11.8721C10.5129 11.215 10.1907 10.4038 10.1121 9.53577V9.53171ZM13.86 4.8632V6.78982C13.5182 6.85067 13.2039 6.98857 12.9289 7.18732L11.6089 5.82448C12.2336 5.28909 13.0075 4.94838 13.86 4.8632ZM18.3818 8.7205H16.5157C16.4568 8.36763 16.3232 8.04314 16.1307 7.75922L17.4507 6.39639C17.9693 7.0413 18.2993 7.84034 18.3818 8.71645V8.7205ZM19.6861 13.3241L18.3661 14.6869C18.095 14.4882 17.7768 14.3503 17.435 14.2895V12.3628C18.2875 12.448 19.0575 12.7887 19.6861 13.3241ZM17.0421 18.1914C16.2054 18.1914 15.5257 17.4897 15.5257 16.6257C15.5257 15.7618 16.2054 15.0601 17.0421 15.0601C17.8789 15.0601 18.5586 15.7618 18.5586 16.6257C18.5586 17.4897 17.8789 18.1914 17.0421 18.1914ZM12.9132 16.2201C12.9957 15.34 13.3257 14.545 13.8443 13.9001L15.1643 15.2629C14.9718 15.5428 14.8382 15.8713 14.7793 16.2242H12.9132V16.2201ZM12.7325 9.12611C12.7325 8.26217 13.4121 7.56047 14.2489 7.56047C15.0857 7.56047 15.7654 8.26217 15.7654 9.12611C15.7654 9.99004 15.0857 10.6917 14.2489 10.6917C13.4121 10.6917 12.7325 9.99004 12.7325 9.12611ZM16.6493 14.2895C16.3075 14.3503 15.9932 14.4882 15.7182 14.6869L14.3982 13.3241C15.0229 12.7887 15.7968 12.448 16.6454 12.3628V14.2895H16.6493ZM14.6418 12.1763V11.4583C14.9836 11.3975 15.2979 11.2596 15.5729 11.0608L16.0993 11.6044C15.5768 11.7098 15.0936 11.9126 14.6457 12.1722L14.6418 12.1763ZM15.5729 7.18732C15.3018 6.98857 14.9836 6.85067 14.6418 6.78982V4.8632C15.4943 4.94838 16.2643 5.28909 16.8889 5.82448L15.5689 7.18732H15.5729ZM11.0511 6.40044L12.3711 7.76327C12.1786 8.04314 12.045 8.37168 11.9861 8.72456H10.12C10.2025 7.8444 10.5325 7.04941 11.0511 6.4045V6.40044ZM11.5971 12.4399L12.925 11.069C13.1961 11.2677 13.5143 11.4056 13.8561 11.4664V12.7441C13.7893 12.8049 13.7146 12.8577 13.6518 12.9185H12.2807C12.0332 12.7806 11.8093 12.6184 11.5971 12.4399ZM17.435 18.962C17.7768 18.9012 18.0911 18.7633 18.3661 18.5645L19.6861 19.9274C19.0614 20.4628 18.2875 20.8035 17.4389 20.8886V18.962H17.435ZM19.305 16.2201C19.2461 15.8673 19.1125 15.5428 18.92 15.2589L20.24 13.896C20.7586 14.5409 21.0886 15.34 21.1711 16.2201H19.305ZM17.1246 11.5192L16.1307 10.493C16.3232 10.2131 16.4568 9.88459 16.5157 9.53171H18.3896C18.3229 10.2659 18.0754 10.9676 17.6668 11.576C17.4861 11.5516 17.3093 11.5232 17.1246 11.5192ZM2.15286 0.811209H10.3871C11.1414 0.811209 11.7543 1.44395 11.7543 2.22271V4.73746C10.8311 5.30125 10.1436 6.03134 9.68786 7.13864C9.56607 6.42883 8.99643 5.88127 8.27357 5.88127C7.46821 5.88127 6.81214 6.55863 6.81214 7.39012C6.81214 8.22161 7.46821 8.89897 8.27357 8.89897C8.7175 8.89897 9.1025 8.67994 9.37357 8.35546C9.33429 8.60693 9.29893 8.86246 9.29893 9.12611C9.29893 9.63311 9.37357 10.1239 9.50714 10.5903H0.785714V2.22271C0.785714 1.44395 1.39857 0.811209 2.15286 0.811209ZM8.95321 7.39417C8.95321 7.77139 8.64286 8.09181 8.2775 8.09181C7.91214 8.09181 7.60179 7.77139 7.60179 7.39417C7.60179 7.01696 7.91214 6.69653 8.2775 6.69653C8.64286 6.69653 8.95321 7.01696 8.95321 7.39417ZM0.785714 19.7773V11.4056H9.82536C10.0768 11.9329 10.4618 12.4845 10.9293 12.9185H9.45607C8.50143 12.9185 7.7275 13.7176 7.7275 14.7032C7.7275 15.271 8.0025 15.7537 8.40321 16.0822C8.0025 16.4108 7.7275 16.8934 7.7275 17.4613C7.7275 18.0291 8.0025 18.5118 8.40321 18.8403C8.0025 19.1689 7.7275 19.6516 7.7275 20.2194C7.7275 20.5844 7.86107 20.9089 8.04571 21.1928H2.15286C1.39857 21.1928 0.785714 20.5601 0.785714 19.7813V19.7773ZM9.45607 21.1888C8.9375 21.1888 8.51321 20.7507 8.51321 20.2153C8.51321 19.6799 8.93357 19.2419 9.45607 19.2419H12.8111C13.3061 20.0937 13.8561 20.6737 14.8461 21.1888H9.45607Z" fill="#484769" style="fill:#484769;fill:color(display-p3 0.2824 0.2784 0.4118);fill-opacity:1;"/>
</svg>
