<svg width="22" height="22" viewBox="0 0 22 22" fill="none" xmlns="http://www.w3.org/2000/svg">
<g clip-path="url(#clip0_217_187)">
<path d="M17.6863 1.78989C17.6863 0.802945 16.9122 0 15.9608 0H1.72549C0.774055 0 0 0.802945 0 1.78989V5.79513V5.95465V18.8732C0 19.8601 0.774012 20.663 1.7254 20.663H14.6668C14.905 20.663 15.0982 20.4627 15.0982 20.2156C15.0982 19.9685 14.905 19.7681 14.6668 19.7681H1.7254C1.24973 19.7681 0.862745 19.3667 0.862745 18.8732V6.2426C2.73736 6.2426 15.1566 6.2426 16.8234 6.2426V15.288C16.8234 15.5351 17.0166 15.7355 17.2548 15.7355C17.4931 15.7355 17.6862 15.5351 17.6862 15.288C17.6862 14.7004 17.6863 2.37912 17.6863 1.78989ZM1.72549 0.894946H8.63534V5.34766H0.862745V1.78989C0.862745 1.29642 1.24977 0.894946 1.72549 0.894946ZM9.49809 5.34766V0.894946H15.9608C16.4365 0.894946 16.8235 1.29642 16.8235 1.78989V5.34766H9.49809Z" fill="#484769" style="fill:#484769;fill:color(display-p3 0.2824 0.2784 0.4118);fill-opacity:1;"/>
<path d="M3.0197 4.46744C3.73328 4.46744 4.31382 3.86523 4.31382 3.12502C4.31382 2.38481 3.73328 1.7826 3.0197 1.7826C2.30613 1.7826 1.72559 2.38481 1.72559 3.12502C1.72559 3.86523 2.30613 4.46744 3.0197 4.46744ZM3.0197 2.67755C3.25756 2.67755 3.45108 2.87828 3.45108 3.12502C3.45108 3.37176 3.25756 3.57249 3.0197 3.57249C2.78184 3.57249 2.58833 3.37176 2.58833 3.12502C2.58833 2.87828 2.78184 2.67755 3.0197 2.67755Z" fill="#484769" style="fill:#484769;fill:color(display-p3 0.2824 0.2784 0.4118);fill-opacity:1;"/>
<path d="M6.47039 4.46744C7.18396 4.46744 7.7645 3.86523 7.7645 3.12502C7.7645 2.38481 7.18396 1.7826 6.47039 1.7826C5.75681 1.7826 5.17627 2.38481 5.17627 3.12502C5.17627 3.86523 5.75681 4.46744 6.47039 4.46744ZM6.47039 2.67755C6.70825 2.67755 6.90176 2.87828 6.90176 3.12502C6.90176 3.37176 6.70825 3.57249 6.47039 3.57249C6.23253 3.57249 6.03901 3.37176 6.03901 3.12502C6.03901 2.87828 6.23253 2.67755 6.47039 2.67755Z" fill="#484769" style="fill:#484769;fill:color(display-p3 0.2824 0.2784 0.4118);fill-opacity:1;"/>
<path d="M14.6668 1.7826H11.6481C10.9345 1.7826 10.354 2.38481 10.354 3.12502C10.354 3.86523 10.9345 4.46744 11.6481 4.46744H14.6668C15.3804 4.46744 15.9609 3.86523 15.9609 3.12502C15.9609 2.38481 15.3804 1.7826 14.6668 1.7826ZM14.6668 3.57249H11.6481C11.4103 3.57249 11.2167 3.37176 11.2167 3.12502C11.2167 2.87828 11.4103 2.67755 11.6481 2.67755H14.6668C14.9047 2.67755 15.0982 2.87828 15.0982 3.12502C15.0982 3.37176 14.9047 3.57249 14.6668 3.57249Z" fill="#484769" style="fill:#484769;fill:color(display-p3 0.2824 0.2784 0.4118);fill-opacity:1;"/>
<path d="M8.84333 7.28978C5.87009 7.28978 3.45117 9.79898 3.45117 12.8832C3.45117 15.9674 5.87009 18.4766 8.84333 18.4766C11.8166 18.4766 14.2355 15.9674 14.2355 12.8832C14.2355 9.79898 11.8166 7.28978 8.84333 7.28978ZM8.84333 17.5817C6.34577 17.5817 4.31392 15.4739 4.31392 12.8832C4.31392 10.2925 6.34577 8.18473 8.84333 8.18473C11.3409 8.18473 13.3727 10.2925 13.3727 12.8832C13.3727 15.474 11.3408 17.5817 8.84333 17.5817Z" fill="#484769" style="fill:#484769;fill:color(display-p3 0.2824 0.2784 0.4118);fill-opacity:1;"/>
<path d="M8.84321 9.07967C6.72905 9.07967 5.06844 10.936 5.1812 13.0742C5.27744 15.0831 6.88314 16.6867 8.84321 16.6867C10.8037 16.6867 12.4096 15.0823 12.5052 13.0729C12.6151 10.9337 10.9575 9.07967 8.84321 9.07967ZM8.84321 9.97462C10.3723 9.97462 11.6185 11.251 11.6458 12.8305C11.5352 12.8941 11.3659 12.926 10.9425 12.926C10.583 12.926 10.4232 12.7767 10.1812 12.5506C9.89252 12.2811 9.53332 11.9456 8.84299 11.9456C8.15258 11.9456 7.79338 12.2812 7.50479 12.5508C7.26288 12.7767 7.10305 12.926 6.74389 12.926C6.32059 12.926 6.15127 12.8941 6.04063 12.8305C6.06785 11.251 7.31417 9.97462 8.84321 9.97462ZM8.84321 15.7918C7.60258 15.7918 6.54822 14.9513 6.17979 13.7906C6.33836 13.8121 6.52217 13.821 6.74385 13.821C7.43422 13.821 7.79342 13.4854 8.08205 13.2158C8.32397 12.9898 8.48379 12.8405 8.84299 12.8405C9.20215 12.8405 9.36198 12.9898 9.60394 13.2158C9.89261 13.4854 10.2519 13.821 10.9425 13.821C11.1643 13.821 11.3481 13.8121 11.5067 13.7906C11.1382 14.9513 10.0838 15.7918 8.84321 15.7918Z" fill="#484769" style="fill:#484769;fill:color(display-p3 0.2824 0.2784 0.4118);fill-opacity:1;"/>
<path d="M21.5686 14.8404H16.1554C15.0884 14.8404 14.2204 15.7409 14.2204 16.8477C14.2229 16.8584 14.1649 17.7692 14.9393 18.4202C14.5012 18.7885 14.2204 19.3508 14.2204 19.98V19.9927C14.2204 21.0995 15.0884 22 16.1554 22H21.5686C21.8068 22 22 21.7996 22 21.5525C22 20.7947 22 16.0506 22 15.2879C22 15.0408 21.8068 14.8404 21.5686 14.8404ZM15.0831 16.8605V16.8477C15.0831 16.2344 15.5641 15.7354 16.1554 15.7354H21.1372V17.9728H16.1554C15.5642 17.9727 15.0831 17.4738 15.0831 16.8605ZM21.1372 21.1051H16.1554C15.5642 21.1051 15.0831 20.6061 15.0831 19.9928V19.98C15.0831 19.3667 15.5642 18.8677 16.1554 18.8677H21.1372V21.1051Z" fill="#484769" style="fill:#484769;fill:color(display-p3 0.2824 0.2784 0.4118);fill-opacity:1;"/>
</g>
<defs>
<clipPath id="clip0_217_187">
<rect width="22" height="22" fill="white" style="fill:white;fill-opacity:1;"/>
</clipPath>
</defs>
</svg>
