<svg width="22" height="22" viewBox="0 0 22 22" fill="none" xmlns="http://www.w3.org/2000/svg">
<path d="M2.55565 21.3176C1.81397 21.3176 1.0723 21.3176 0.335093 21.3176C0.446791 21.4313 0.558489 21.5451 0.670187 21.6588C0.670187 20.2622 0.670187 18.861 0.670187 17.4644C0.670187 14.5802 0.670187 11.6915 0.670187 8.80728C0.670187 6.3962 0.670187 3.98966 0.670187 1.57858C0.670187 1.1646 0.670187 0.75062 0.670187 0.341191C0.558489 0.454921 0.446791 0.568652 0.335093 0.682382C1.07677 0.682382 1.81844 0.682382 2.55565 0.682382C2.44395 0.568652 2.33225 0.454921 2.22055 0.341191C2.22055 1.7378 2.22055 3.13896 2.22055 4.53557C2.22055 7.41977 2.22055 10.3085 2.22055 13.1927C2.22055 15.6038 2.22055 18.0103 2.22055 20.4214C2.22055 20.8354 2.22055 21.2494 2.22055 21.6588C2.22055 22.1001 2.89074 22.1001 2.89074 21.6588C2.89074 20.2622 2.89074 18.861 2.89074 17.4644C2.89074 14.5802 2.89074 11.6915 2.89074 8.80728C2.89074 6.3962 2.89074 3.98966 2.89074 1.57858C2.89074 1.1646 2.89074 0.75062 2.89074 0.341191C2.89074 0.154673 2.73883 0 2.55565 0C1.81397 0 1.0723 0 0.335093 0C0.151909 0 0 0.154673 0 0.341191C0 1.7378 0 3.13896 0 4.53557C0 7.41977 0 10.3085 0 13.1927C0 15.6038 0 18.0103 0 20.4214C0 20.8354 0 21.2494 0 21.6588C0 21.8453 0.151909 22 0.335093 22C1.07677 22 1.81844 22 2.55565 22C2.98903 22 2.98903 21.3176 2.55565 21.3176Z" fill="#484769" style="fill:#484769;fill:color(display-p3 0.2824 0.2784 0.4118);fill-opacity:1;"/>
<path d="M21.665 21.3176C20.9233 21.3176 20.1817 21.3176 19.4445 21.3176C19.5562 21.4313 19.6679 21.5451 19.7796 21.6588C19.7796 20.2622 19.7796 18.861 19.7796 17.4644C19.7796 14.5802 19.7796 11.6915 19.7796 8.80728C19.7796 6.3962 19.7796 3.98966 19.7796 1.57858C19.7796 1.1646 19.7796 0.75062 19.7796 0.341191C19.6679 0.454921 19.5562 0.568652 19.4445 0.682382C20.1861 0.682382 20.9278 0.682382 21.665 0.682382C21.5533 0.568652 21.4416 0.454921 21.3299 0.341191C21.3299 1.7378 21.3299 3.13896 21.3299 4.53557C21.3299 7.41977 21.3299 10.3085 21.3299 13.1927C21.3299 15.6038 21.3299 18.0103 21.3299 20.4214C21.3299 20.8354 21.3299 21.2494 21.3299 21.6588C21.3299 22.1001 22.0001 22.1001 22.0001 21.6588C22.0001 20.2622 22.0001 18.861 22.0001 17.4644C22.0001 14.5802 22.0001 11.6915 22.0001 8.80728C22.0001 6.3962 22.0001 3.98966 22.0001 1.57858C22.0001 1.1646 22.0001 0.75062 22.0001 0.341191C22.0001 0.154673 21.8482 0 21.665 0C20.9233 0 20.1817 0 19.4445 0C19.2613 0 19.1094 0.154673 19.1094 0.341191C19.1094 1.7378 19.1094 3.13896 19.1094 4.53557C19.1094 7.41977 19.1094 10.3085 19.1094 13.1927C19.1094 15.6038 19.1094 18.0103 19.1094 20.4214C19.1094 20.8354 19.1094 21.2494 19.1094 21.6588C19.1094 21.8453 19.2613 22 19.4445 22C20.1861 22 20.9278 22 21.665 22C22.0984 22 22.0984 21.3176 21.665 21.3176Z" fill="#484769" style="fill:#484769;fill:color(display-p3 0.2824 0.2784 0.4118);fill-opacity:1;"/>
<path d="M2.55551 22C4.15949 22 5.759 22 7.36298 22C10.2046 22 13.0462 22 15.8878 22C17.0718 22 18.2602 22 19.4442 22C19.8776 22 19.8776 21.3176 19.4442 21.3176C17.8402 21.3176 16.2407 21.3176 14.6367 21.3176C11.7952 21.3176 8.95356 21.3176 6.11197 21.3176C4.92797 21.3176 3.73951 21.3176 2.55551 21.3176C2.12212 21.3176 2.12212 22 2.55551 22Z" fill="#484769" style="fill:#484769;fill:color(display-p3 0.2824 0.2784 0.4118);fill-opacity:1;"/>
<path d="M2.55551 14.835C4.15949 14.835 5.759 14.835 7.36298 14.835C10.2046 14.835 13.0462 14.835 15.8878 14.835C17.0718 14.835 18.2602 14.835 19.4442 14.835C19.8776 14.835 19.8776 14.1526 19.4442 14.1526C17.8402 14.1526 16.2407 14.1526 14.6367 14.1526C11.7952 14.1526 8.95356 14.1526 6.11197 14.1526C4.92797 14.1526 3.73951 14.1526 2.55551 14.1526C2.12212 14.1526 2.12212 14.835 2.55551 14.835Z" fill="#484769" style="fill:#484769;fill:color(display-p3 0.2824 0.2784 0.4118);fill-opacity:1;"/>
<path d="M2.55551 7.04218C4.15949 7.04218 5.759 7.04218 7.36298 7.04218C10.2046 7.04218 13.0462 7.04218 15.8878 7.04218C17.0718 7.04218 18.2602 7.04218 19.4442 7.04218C19.8776 7.04218 19.8776 6.3598 19.4442 6.3598C17.8402 6.3598 16.2407 6.3598 14.6367 6.3598C11.7952 6.3598 8.95356 6.3598 6.11197 6.3598C4.92797 6.3598 3.73951 6.3598 2.55551 6.3598C2.12212 6.3598 2.12212 7.04218 2.55551 7.04218Z" fill="#484769" style="fill:#484769;fill:color(display-p3 0.2824 0.2784 0.4118);fill-opacity:1;"/>
<path d="M4.57976 6.3598C3.90511 6.3598 3.23045 6.3598 2.5558 6.3598C2.66749 6.47353 2.77919 6.58726 2.89089 6.70099C2.89089 4.99959 2.89089 3.29818 2.89089 1.59678C2.77919 1.71051 2.66749 1.82424 2.5558 1.93797C3.23045 1.93797 3.90511 1.93797 4.57976 1.93797C4.46806 1.82424 4.35637 1.71051 4.24467 1.59678C4.24467 3.29818 4.24467 4.99959 4.24467 6.70099C4.24467 7.14227 4.91485 7.14227 4.91485 6.70099C4.91485 4.99959 4.91485 3.29818 4.91485 1.59678C4.91485 1.41026 4.76295 1.25558 4.57976 1.25558C3.90511 1.25558 3.23045 1.25558 2.5558 1.25558C2.37261 1.25558 2.2207 1.41026 2.2207 1.59678C2.2207 3.29818 2.2207 4.99959 2.2207 6.70099C2.2207 6.88751 2.37261 7.04218 2.5558 7.04218C3.23045 7.04218 3.90511 7.04218 4.57976 7.04218C5.01315 7.04218 5.01315 6.3598 4.57976 6.3598Z" fill="#484769" style="fill:#484769;fill:color(display-p3 0.2824 0.2784 0.4118);fill-opacity:1;"/>
<path d="M6.60369 6.3598C5.92903 6.3598 5.25438 6.3598 4.57972 6.3598C4.69142 6.47353 4.80312 6.58726 4.91482 6.70099C4.91482 4.99959 4.91482 3.29818 4.91482 1.59678C4.80312 1.71051 4.69142 1.82424 4.57972 1.93797C5.25438 1.93797 5.92903 1.93797 6.60369 1.93797C6.49199 1.82424 6.38029 1.71051 6.26859 1.59678C6.26859 3.29818 6.26859 4.99959 6.26859 6.70099C6.26859 7.14227 6.93878 7.14227 6.93878 6.70099C6.93878 4.99959 6.93878 3.29818 6.93878 1.59678C6.93878 1.41026 6.78687 1.25558 6.60369 1.25558C5.92903 1.25558 5.25438 1.25558 4.57972 1.25558C4.39654 1.25558 4.24463 1.41026 4.24463 1.59678C4.24463 3.29818 4.24463 4.99959 4.24463 6.70099C4.24463 6.88751 4.39654 7.04218 4.57972 7.04218C5.25438 7.04218 5.92903 7.04218 6.60369 7.04218C7.03707 7.04218 7.03707 6.3598 6.60369 6.3598Z" fill="#484769" style="fill:#484769;fill:color(display-p3 0.2824 0.2784 0.4118);fill-opacity:1;"/>
<path d="M16.2142 5.66833C16.2142 5.99587 15.9908 6.25518 15.687 6.34161C15.5842 6.36891 15.468 6.35981 15.3608 6.35981C14.9229 6.35981 14.4806 6.35981 14.0428 6.35981C13.2073 6.35981 12.3718 6.35981 11.5363 6.35981C11.648 6.47354 11.7597 6.58727 11.8714 6.701C11.8714 6.01407 11.8714 5.32714 11.8714 4.6402C11.7597 4.75393 11.648 4.86767 11.5363 4.9814C12.3584 4.9814 13.1805 4.9814 13.9981 4.9814C14.4449 4.9814 14.8917 4.9814 15.3429 4.9814C15.4278 4.9814 15.5127 4.9814 15.5976 4.9814C15.9506 4.99504 16.2052 5.33623 16.2142 5.66833C16.2276 6.1096 16.8978 6.1096 16.8844 5.66833C16.862 4.88131 16.2544 4.29446 15.4859 4.29446C15.0749 4.29446 14.6638 4.29446 14.2572 4.29446C13.3502 4.29446 12.4433 4.29446 11.5363 4.29446C11.3531 4.29446 11.2012 4.44914 11.2012 4.63566C11.2012 5.32259 11.2012 6.00952 11.2012 6.69645C11.2012 6.88297 11.3531 7.03764 11.5363 7.03764C12.4433 7.03764 13.3502 7.03764 14.2572 7.03764C14.6683 7.03764 15.0793 7.03764 15.4859 7.03764C16.2365 7.03764 16.8844 6.45079 16.8844 5.66378C16.8844 5.2316 16.2142 5.2316 16.2142 5.66833Z" fill="#484769" style="fill:#484769;fill:color(display-p3 0.2824 0.2784 0.4118);fill-opacity:1;"/>
<path d="M16.214 2.5794C16.214 3.26633 16.214 3.95326 16.214 4.64019C16.3257 4.52646 16.4374 4.41273 16.5491 4.299C15.4366 4.299 14.3285 4.299 13.216 4.299C12.7513 4.299 12.2018 4.39908 11.9382 3.90777C11.7237 3.51199 12.0097 3.04797 12.3984 2.93879C12.5324 2.90239 12.6977 2.92059 12.8318 2.92059C14.0694 2.92059 15.307 2.92059 16.5491 2.92059C16.9825 2.92059 16.9825 2.23821 16.5491 2.23821C15.4366 2.23821 14.3285 2.23821 13.216 2.23821C12.6486 2.23821 12.1348 2.19272 11.6612 2.5794C11.2501 2.91149 11.125 3.50744 11.2591 4.0033C11.402 4.53556 11.898 4.92679 12.4297 4.97229C12.6575 4.99503 12.8899 4.98138 13.1177 4.98138C13.5734 4.98138 14.0292 4.98138 14.4849 4.98138C15.173 4.98138 15.861 4.98138 16.5535 4.98138C16.7367 4.98138 16.8886 4.82671 16.8886 4.64019C16.8886 3.95326 16.8886 3.26633 16.8886 2.5794C16.8842 2.13812 16.214 2.13812 16.214 2.5794Z" fill="#484769" style="fill:#484769;fill:color(display-p3 0.2824 0.2784 0.4118);fill-opacity:1;"/>
<path d="M17.4206 14.1526C16.7459 14.1526 16.0713 14.1526 15.3966 14.1526C15.5083 14.2663 15.62 14.3801 15.7317 14.4938C15.7317 12.7924 15.7317 11.091 15.7317 9.38958C15.62 9.50331 15.5083 9.61704 15.3966 9.73077C16.0713 9.73077 16.7459 9.73077 17.4206 9.73077C17.3089 9.61704 17.1972 9.50331 17.0855 9.38958C17.0855 11.091 17.0855 12.7924 17.0855 14.4938C17.0855 14.9351 17.7557 14.9351 17.7557 14.4938C17.7557 12.7924 17.7557 11.091 17.7557 9.38958C17.7557 9.20306 17.6038 9.04839 17.4206 9.04839C16.7459 9.04839 16.0713 9.04839 15.3966 9.04839C15.2134 9.04839 15.0615 9.20306 15.0615 9.38958C15.0615 11.091 15.0615 12.7924 15.0615 14.4938C15.0615 14.6803 15.2134 14.835 15.3966 14.835C16.0713 14.835 16.7459 14.835 17.4206 14.835C17.854 14.835 17.854 14.1526 17.4206 14.1526Z" fill="#484769" style="fill:#484769;fill:color(display-p3 0.2824 0.2784 0.4118);fill-opacity:1;"/>
<path d="M19.4445 14.1526C18.7699 14.1526 18.0952 14.1526 17.4205 14.1526C17.5322 14.2663 17.6439 14.3801 17.7556 14.4938C17.7556 12.7924 17.7556 11.091 17.7556 9.38958C17.6439 9.50331 17.5322 9.61704 17.4205 9.73077C18.0952 9.73077 18.7699 9.73077 19.4445 9.73077C19.3328 9.61704 19.2211 9.50331 19.1094 9.38958C19.1094 11.091 19.1094 12.7924 19.1094 14.4938C19.1094 14.9351 19.7796 14.9351 19.7796 14.4938C19.7796 12.7924 19.7796 11.091 19.7796 9.38958C19.7796 9.20306 19.6277 9.04839 19.4445 9.04839C18.7699 9.04839 18.0952 9.04839 17.4205 9.04839C17.2374 9.04839 17.0854 9.20306 17.0854 9.38958C17.0854 11.091 17.0854 12.7924 17.0854 14.4938C17.0854 14.6803 17.2374 14.835 17.4205 14.835C18.0952 14.835 18.7699 14.835 19.4445 14.835C19.8779 14.835 19.8779 14.1526 19.4445 14.1526Z" fill="#484769" style="fill:#484769;fill:color(display-p3 0.2824 0.2784 0.4118);fill-opacity:1;"/>
<path d="M13.3722 14.1526C12.6976 14.1526 12.0229 14.1526 11.3483 14.1526C11.46 14.2663 11.5717 14.3801 11.6834 14.4938C11.6834 12.7924 11.6834 11.091 11.6834 9.38958C11.5717 9.50331 11.46 9.61704 11.3483 9.73077C12.0229 9.73077 12.6976 9.73077 13.3722 9.73077C13.2605 9.61704 13.1488 9.50331 13.0371 9.38958C13.0371 11.091 13.0371 12.7924 13.0371 14.4938C13.0371 14.9351 13.7073 14.9351 13.7073 14.4938C13.7073 12.7924 13.7073 11.091 13.7073 9.38958C13.7073 9.20306 13.5554 9.04839 13.3722 9.04839C12.6976 9.04839 12.0229 9.04839 11.3483 9.04839C11.1651 9.04839 11.0132 9.20306 11.0132 9.38958C11.0132 11.091 11.0132 12.7924 11.0132 14.4938C11.0132 14.6803 11.1651 14.835 11.3483 14.835C12.0229 14.835 12.6976 14.835 13.3722 14.835C13.8012 14.835 13.8012 14.1526 13.3722 14.1526Z" fill="#484769" style="fill:#484769;fill:color(display-p3 0.2824 0.2784 0.4118);fill-opacity:1;"/>
<path d="M15.3967 14.1526C14.722 14.1526 14.0473 14.1526 13.3727 14.1526C13.4844 14.2663 13.5961 14.3801 13.7078 14.4938C13.7078 12.7924 13.7078 11.091 13.7078 9.38958C13.5961 9.50331 13.4844 9.61704 13.3727 9.73077C14.0473 9.73077 14.722 9.73077 15.3967 9.73077C15.285 9.61704 15.1733 9.50331 15.0616 9.38958C15.0616 11.091 15.0616 12.7924 15.0616 14.4938C15.0616 14.9351 15.7317 14.9351 15.7317 14.4938C15.7317 12.7924 15.7317 11.091 15.7317 9.38958C15.7317 9.20306 15.5798 9.04839 15.3967 9.04839C14.722 9.04839 14.0473 9.04839 13.3727 9.04839C13.1895 9.04839 13.0376 9.20306 13.0376 9.38958C13.0376 11.091 13.0376 12.7924 13.0376 14.4938C13.0376 14.6803 13.1895 14.835 13.3727 14.835C14.0473 14.835 14.722 14.835 15.3967 14.835C15.8256 14.835 15.8256 14.1526 15.3967 14.1526Z" fill="#484769" style="fill:#484769;fill:color(display-p3 0.2824 0.2784 0.4118);fill-opacity:1;"/>
<path d="M6.60369 21.3176C5.92903 21.3176 5.25438 21.3176 4.57972 21.3176C4.69142 21.4313 4.80312 21.5451 4.91482 21.6588C4.91482 19.9574 4.91482 18.256 4.91482 16.5546C4.80312 16.6683 4.69142 16.782 4.57972 16.8958C5.25438 16.8958 5.92903 16.8958 6.60369 16.8958C6.49199 16.782 6.38029 16.6683 6.26859 16.5546C6.26859 18.256 6.26859 19.9574 6.26859 21.6588C6.26859 22.1001 6.93878 22.1001 6.93878 21.6588C6.93878 19.9574 6.93878 18.256 6.93878 16.5546C6.93878 16.3681 6.78687 16.2134 6.60369 16.2134C5.92903 16.2134 5.25438 16.2134 4.57972 16.2134C4.39654 16.2134 4.24463 16.3681 4.24463 16.5546C4.24463 18.256 4.24463 19.9574 4.24463 21.6588C4.24463 21.8453 4.39654 22 4.57972 22C5.25438 22 5.92903 22 6.60369 22C7.03707 22 7.03707 21.3176 6.60369 21.3176Z" fill="#484769" style="fill:#484769;fill:color(display-p3 0.2824 0.2784 0.4118);fill-opacity:1;"/>
<path d="M8.62761 21.3176C7.95296 21.3176 7.2783 21.3176 6.60365 21.3176C6.71535 21.4313 6.82704 21.5451 6.93874 21.6588C6.93874 19.9574 6.93874 18.256 6.93874 16.5546C6.82704 16.6683 6.71535 16.782 6.60365 16.8958C7.2783 16.8958 7.95296 16.8958 8.62761 16.8958C8.51591 16.782 8.40422 16.6683 8.29252 16.5546C8.29252 18.256 8.29252 19.9574 8.29252 21.6588C8.29252 22.1001 8.96271 22.1001 8.96271 21.6588C8.96271 19.9574 8.96271 18.256 8.96271 16.5546C8.96271 16.3681 8.8108 16.2134 8.62761 16.2134C7.95296 16.2134 7.2783 16.2134 6.60365 16.2134C6.42046 16.2134 6.26855 16.3681 6.26855 16.5546C6.26855 18.256 6.26855 19.9574 6.26855 21.6588C6.26855 21.8453 6.42046 22 6.60365 22C7.2783 22 7.95296 22 8.62761 22C9.061 22 9.061 21.3176 8.62761 21.3176Z" fill="#484769" style="fill:#484769;fill:color(display-p3 0.2824 0.2784 0.4118);fill-opacity:1;"/>
<path d="M4.57976 21.3176C3.90511 21.3176 3.23045 21.3176 2.5558 21.3176C2.66749 21.4313 2.77919 21.5451 2.89089 21.6588C2.89089 19.9574 2.89089 18.256 2.89089 16.5546C2.77919 16.6683 2.66749 16.782 2.5558 16.8958C3.23045 16.8958 3.90511 16.8958 4.57976 16.8958C4.46806 16.782 4.35637 16.6683 4.24467 16.5546C4.24467 18.256 4.24467 19.9574 4.24467 21.6588C4.24467 22.1001 4.91485 22.1001 4.91485 21.6588C4.91485 19.9574 4.91485 18.256 4.91485 16.5546C4.91485 16.3681 4.76295 16.2134 4.57976 16.2134C3.90511 16.2134 3.23045 16.2134 2.5558 16.2134C2.37261 16.2134 2.2207 16.3681 2.2207 16.5546C2.2207 18.256 2.2207 19.9574 2.2207 21.6588C2.2207 21.8453 2.37261 22 2.5558 22C3.23045 22 3.90511 22 4.57976 22C5.01315 22 5.01315 21.3176 4.57976 21.3176Z" fill="#484769" style="fill:#484769;fill:color(display-p3 0.2824 0.2784 0.4118);fill-opacity:1;"/>
</svg>
