<svg width="22" height="22" viewBox="0 0 22 22" fill="none" xmlns="http://www.w3.org/2000/svg">
<path d="M19.3333 1.87234H17.8404C17.8482 0.849809 16.6664 0 15.186 0H0.666726C0.389527 0 0.141194 0.120438 0.0431278 0.302523C-0.0549386 0.484655 0.0177278 0.690285 0.225594 0.819055L2.85659 2.44902L3.94558 12.1702H3.33339C2.96525 12.1702 2.66672 12.3798 2.66672 12.6383V14.4494L0.977525 18.8969C0.382127 20.4643 2.06366 22 4.37298 22H16.2938C18.6047 22 20.2841 20.4633 19.6892 18.8969L18 14.4494V12.6383C18 12.3798 17.7015 12.1702 17.3333 12.1702H16.7199L16.8702 10.7985L18.9537 10.1484C20.8043 9.57098 22 8.27907 22 6.85712V3.74468C22 2.71227 20.8037 1.87234 19.3333 1.87234ZM16.6667 13.1064V14.0426H4.00005V13.1064C4.71778 13.1064 15.9497 13.1064 16.6667 13.1064ZM16.2938 21.0638H4.37298C2.93892 21.0638 1.89672 20.1102 2.26585 19.1381L3.84558 14.9787H16.8212L18.4009 19.1381C18.7703 20.1109 17.7269 21.0638 16.2938 21.0638ZM5.28298 12.1702L4.16465 2.18671C4.15112 2.06552 4.07098 1.95285 3.94112 1.87243L2.42985 0.93617H15.186C15.9614 0.93617 16.5627 1.39901 16.5039 1.93549C16.3777 3.0881 15.5088 11.0191 15.3827 12.1702H5.28298ZM20.6667 6.85712C20.6667 7.90942 19.7817 8.86553 18.4121 9.29289L16.9865 9.73776L17.7455 2.80851H19.3333C20.0685 2.80851 20.6667 3.22848 20.6667 3.74468V6.85712Z" fill="#484769" style="fill:#484769;fill:color(display-p3 0.2824 0.2784 0.4118);fill-opacity:1;"/>
</svg>
