<svg width="25" height="25" viewBox="0 0 25 25" fill="none" xmlns="http://www.w3.org/2000/svg">
<path d="M22.5625 3.50049H20.5244C20.2761 3.50101 20.0382 3.60001 19.8628 3.77577C19.6874 3.95152 19.5889 4.18969 19.5889 4.43799V9.20508H15.9712C15.8413 9.11914 15.7075 9.0376 15.5713 8.96094V4.43799C15.5713 4.18969 15.4728 3.95152 15.2974 3.77577C15.122 3.60001 14.884 3.50101 14.6357 3.50049H12.5977C12.3494 3.50101 12.1114 3.60001 11.936 3.77577C11.7606 3.95152 11.6621 4.18969 11.6621 4.43799V8.21875C11.2135 8.27867 10.7726 8.38671 10.3472 8.54102C10.2774 7.95885 10.0573 7.40487 9.7085 6.93359L7.60889 4.08398V3.00977H8.27392C8.31881 3.00977 8.36326 3.00092 8.40473 2.98375C8.44619 2.96657 8.48387 2.94139 8.51561 2.90966C8.54735 2.87792 8.57253 2.84024 8.5897 2.79877C8.60688 2.7573 8.61572 2.71285 8.61572 2.66797V1.34961C8.61559 1.0992 8.51606 0.859075 8.33899 0.682006C8.16192 0.504937 7.9218 0.405403 7.67139 0.405273H4.36133C4.11117 0.405661 3.87137 0.505242 3.69453 0.682178C3.51768 0.859114 3.41823 1.09896 3.41797 1.34912V2.66748C3.41797 2.75813 3.45398 2.84507 3.51808 2.90917C3.58218 2.97327 3.66912 3.00928 3.75977 3.00928H4.36377V4.18506L2.29883 6.91943C1.85397 7.51075 1.6126 8.23025 1.61084 8.97022V22.604C1.61149 23.1203 1.81685 23.6152 2.18189 23.9802C2.54694 24.3453 3.04186 24.5506 3.55811 24.5513H8.42578C8.94203 24.5506 9.43695 24.3453 9.80199 23.9802C10.167 23.6152 10.3724 23.1203 10.373 22.604V20.4331C10.7904 20.583 11.2225 20.688 11.6621 20.7466V22.9736C11.662 23.3912 11.8275 23.7919 12.1223 24.0876C12.4172 24.3834 12.8173 24.5501 13.2349 24.5513H21.9238C22.3414 24.5501 22.7414 24.3833 23.0362 24.0876C23.331 23.7918 23.4964 23.3912 23.4961 22.9736V4.43799C23.4962 4.18998 23.398 3.95204 23.223 3.77631C23.048 3.60058 22.8105 3.50139 22.5625 3.50049ZM19.584 9.88867C19.5627 10.0763 19.4733 10.2495 19.3327 10.3755C19.1921 10.5015 19.0101 10.5716 18.8213 10.5723H17.459C17.2677 10.3295 17.059 10.101 16.8345 9.88867H19.584ZM18.1367 14.4829C18.1367 15.5975 17.8062 16.6871 17.187 17.6139C16.5678 18.5406 15.6876 19.263 14.6579 19.6896C13.6282 20.1161 12.4951 20.2278 11.4019 20.0104C10.3087 19.7931 9.30446 19.2564 8.51625 18.4683C7.72804 17.6803 7.19121 16.6762 6.97364 15.583C6.75608 14.4898 6.86754 13.3567 7.29395 12.3269C7.72035 11.2971 8.44255 10.4168 9.36921 9.79744C10.2959 9.17806 11.3854 8.84736 12.5 8.84717C13.9942 8.84885 15.4267 9.44315 16.4832 10.4997C17.5398 11.5562 18.1341 12.9887 18.1357 14.4829H18.1367ZM12.3467 5.40088H13.8115C13.9022 5.40088 13.9891 5.36487 14.0532 5.30077C14.1173 5.23667 14.1533 5.14973 14.1533 5.05908C14.1533 4.96843 14.1173 4.88149 14.0532 4.8174C13.9891 4.7533 13.9022 4.71729 13.8115 4.71729H12.3467V4.43799C12.3465 4.37095 12.373 4.30658 12.4202 4.259C12.4674 4.21141 12.5316 4.18447 12.5986 4.18408H14.6367C14.7038 4.18447 14.7679 4.21141 14.8151 4.259C14.8624 4.30658 14.8888 4.37095 14.8887 4.43799V8.63232C14.1309 8.32191 13.3198 8.16267 12.501 8.16357C12.4492 8.16357 12.3979 8.16357 12.3467 8.16357V5.40088ZM4.10156 2.32666V1.3501C4.10156 1.28107 4.12898 1.21488 4.17779 1.16607C4.2266 1.11726 4.29279 1.08984 4.36182 1.08984H7.67187C7.7409 1.08984 7.80709 1.11726 7.8559 1.16607C7.90471 1.21488 7.93213 1.28107 7.93213 1.3501V2.32666H4.10156ZM6.92529 3.01025V3.66699H5.04736V3.01025H6.92529ZM9.68994 22.604C9.68955 22.939 9.55629 23.2602 9.31939 23.4971C9.08249 23.734 8.7613 23.8673 8.42627 23.8677H8.17871L8.6499 23.0796C8.69228 23.0021 8.70301 22.9112 8.67986 22.826C8.6567 22.7408 8.60145 22.6678 8.52569 22.6224C8.44993 22.577 8.35954 22.5627 8.27346 22.5825C8.18738 22.6023 8.11231 22.6546 8.06396 22.7285L7.38037 23.8677H6.42334V22.9038C6.42334 22.8132 6.38733 22.7262 6.32323 22.6621C6.25913 22.598 6.17219 22.562 6.08154 22.562C5.99089 22.562 5.90395 22.598 5.83986 22.6621C5.77576 22.7262 5.73975 22.8132 5.73975 22.9038V23.8677H4.78516L4.10156 22.7285C4.07948 22.6881 4.04948 22.6526 4.01335 22.6241C3.97721 22.5956 3.9357 22.5747 3.89129 22.5627C3.84688 22.5506 3.80049 22.5476 3.75491 22.5539C3.70932 22.5602 3.66548 22.5757 3.626 22.5993C3.58653 22.623 3.55224 22.6543 3.52518 22.6916C3.49813 22.7288 3.47887 22.7711 3.46856 22.816C3.45826 22.8608 3.45711 22.9073 3.4652 22.9526C3.47328 22.9979 3.49044 23.0411 3.51562 23.0796L3.98682 23.8677H3.55713C3.22235 23.8669 2.90154 23.7335 2.66495 23.4966C2.42837 23.2598 2.29531 22.9388 2.29492 22.604V17.0674H5.34961C5.44026 17.0674 5.5272 17.0314 5.5913 16.9673C5.6554 16.9032 5.69141 16.8162 5.69141 16.7256C5.69141 16.6349 5.6554 16.548 5.5913 16.4839C5.5272 16.4198 5.44026 16.3838 5.34961 16.3838H2.29492V13.7646H5.34961C5.44026 13.7646 5.5272 13.7286 5.5913 13.6645C5.6554 13.6004 5.69141 13.5135 5.69141 13.4229C5.69141 13.3322 5.6554 13.2453 5.5913 13.1812C5.5272 13.1171 5.44026 13.0811 5.34961 13.0811H2.29492V8.97266C2.29615 8.38075 2.48905 7.80516 2.84473 7.33203L5.0957 4.35059H6.95654L9.1582 7.33789C9.47837 7.7702 9.66217 8.28826 9.68603 8.82568C8.63288 9.34915 7.74675 10.1562 7.12742 11.156C6.50808 12.1558 6.18013 13.3086 6.18049 14.4847C6.18085 15.6608 6.50949 16.8134 7.12943 17.8128C7.74937 18.8122 8.63598 19.6188 9.68945 20.1416L9.68994 22.604ZM21.9238 23.8677H13.2324C13.0061 23.8667 12.7887 23.7798 12.6241 23.6245C12.4595 23.4692 12.3602 23.2571 12.3462 23.0313H22.811C22.7971 23.2573 22.6977 23.4696 22.5329 23.625C22.3681 23.7803 22.1503 23.8671 21.9238 23.8677ZM22.8125 22.3477H12.3457V20.8008C12.3945 20.8008 12.4482 20.8008 12.5 20.8008C13.616 20.801 14.7122 20.5057 15.6769 19.9447C16.6417 19.3837 17.4406 18.5771 17.9923 17.607C18.5441 16.637 18.829 15.538 18.8181 14.4221C18.8072 13.3061 18.5008 12.213 17.9302 11.2539H18.8203C19.2059 11.2529 19.5753 11.0989 19.8475 10.8259C20.1198 10.5528 20.2726 10.1829 20.2725 9.79736V5.40283H21.7373C21.828 5.40283 21.9149 5.36682 21.979 5.30272C22.0431 5.23862 22.0791 5.15169 22.0791 5.06104C22.0791 4.97038 22.0431 4.88345 21.979 4.81935C21.9149 4.75525 21.828 4.71924 21.7373 4.71924H20.2725V4.43799C20.2723 4.37095 20.2988 4.30658 20.346 4.259C20.3932 4.21141 20.4574 4.18447 20.5244 4.18408H22.5625C22.6295 4.18447 22.6936 4.21142 22.7407 4.25903C22.7879 4.30663 22.8142 4.37099 22.814 4.43799L22.8125 22.3477Z" fill="#484769" style="fill:#484769;fill:color(display-p3 0.2824 0.2784 0.4118);fill-opacity:1;"/>
<path d="M11.5198 11.2402V13.4023H10.4749C10.2802 13.4022 10.0923 13.4737 9.94715 13.6034C9.80195 13.733 9.7096 13.9115 9.68774 14.105L9.58325 15.0327L9.51733 15.6186C9.47681 15.9795 9.29858 16.3335 8.98804 16.6718C8.90651 16.7604 8.85253 16.8708 8.83269 16.9896C8.81286 17.1083 8.82802 17.2303 8.87632 17.3406C8.92463 17.4509 9.00399 17.5447 9.10472 17.6106C9.20546 17.6766 9.32321 17.7117 9.4436 17.7119H14.6682C14.7893 17.7122 14.9091 17.6875 15.0201 17.6394C15.1312 17.5912 15.2311 17.5207 15.3136 17.4321C15.3962 17.3435 15.4595 17.2389 15.4997 17.1247C15.5398 17.0105 15.556 16.8892 15.5471 16.7685L15.4221 15.0537L15.3557 14.1386C15.3401 13.9397 15.2503 13.7539 15.104 13.6182C14.9577 13.4825 14.7657 13.4068 14.5662 13.4062H13.5359V11.2402C13.5388 11.106 13.515 10.9725 13.4656 10.8476C13.4163 10.7227 13.3425 10.6089 13.2486 10.5129C13.1547 10.4169 13.0426 10.3407 12.9188 10.2886C12.795 10.2365 12.6621 10.2097 12.5278 10.2097C12.3936 10.2097 12.2606 10.2365 12.1369 10.2886C12.0131 10.3407 11.901 10.4169 11.8071 10.5129C11.7132 10.6089 11.6394 10.7227 11.59 10.8476C11.5407 10.9725 11.5168 11.106 11.5198 11.2402ZM14.9114 16.812C14.9139 16.8456 14.9095 16.8793 14.8984 16.9111C14.8873 16.9429 14.8697 16.9721 14.8468 16.9967C14.8238 17.0214 14.7961 17.0411 14.7652 17.0545C14.7343 17.0679 14.7009 17.0748 14.6672 17.0747H14.2126L14.1521 16.351C14.145 16.2669 14.1048 16.1889 14.0403 16.1344C13.9758 16.0799 13.8923 16.0532 13.8081 16.0603C13.7239 16.0673 13.646 16.1075 13.5915 16.172C13.5369 16.2366 13.5103 16.3201 13.5173 16.4043L13.5745 17.0747H12.7253V16.3779C12.7253 16.2937 12.6919 16.213 12.6324 16.1535C12.5729 16.094 12.4921 16.0605 12.408 16.0605C12.3238 16.0605 12.2431 16.094 12.1835 16.1535C12.124 16.213 12.0906 16.2937 12.0906 16.3779V17.0747H11.2405L11.2971 16.4062C11.3042 16.322 11.2775 16.2385 11.223 16.174C11.1684 16.1095 11.0905 16.0693 11.0063 16.0622C10.9222 16.0552 10.8386 16.0818 10.7741 16.1364C10.7096 16.1909 10.6694 16.2688 10.6624 16.353L10.6018 17.0766H9.47778C9.86841 16.644 10.093 16.1777 10.1482 15.6894L10.1824 15.3867L14.8079 15.393L14.9114 16.812ZM14.5637 14.0371C14.6035 14.0372 14.6417 14.0524 14.6706 14.0796C14.6996 14.1068 14.7173 14.1439 14.72 14.1836L14.762 14.7573L10.2541 14.7505L10.3186 14.1762C10.3229 14.1379 10.3413 14.1025 10.3701 14.0768C10.3989 14.0511 10.4362 14.037 10.4749 14.0371H14.5637ZM12.1545 11.2402C12.1527 11.19 12.161 11.14 12.179 11.0932C12.1969 11.0463 12.2241 11.0035 12.259 10.9674C12.2938 10.9313 12.3356 10.9025 12.3818 10.8829C12.428 10.8633 12.4776 10.8532 12.5278 10.8532C12.578 10.8532 12.6277 10.8633 12.6739 10.8829C12.7201 10.9025 12.7618 10.9313 12.7967 10.9674C12.8315 11.0035 12.8587 11.0463 12.8767 11.0932C12.8946 11.14 12.9029 11.19 12.9011 11.2402V13.2973H12.1545V11.2402Z" fill="#484769" style="fill:#484769;fill:color(display-p3 0.2824 0.2784 0.4118);fill-opacity:1;"/>
</svg>
