<svg width="22" height="22" viewBox="0 0 22 22" fill="none" xmlns="http://www.w3.org/2000/svg">
<path d="M21.0615 2.82013H19.0127C18.7631 2.8206 18.5239 2.9108 18.3476 3.07094C18.1713 3.23107 18.0723 3.44807 18.0723 3.6743V8.01771H14.4356C14.3051 7.93941 14.1706 7.86512 14.0336 7.79527V3.6743C14.0336 3.44807 13.9346 3.23107 13.7583 3.07094C13.582 2.9108 13.3428 2.8206 13.0932 2.82013H11.0444C10.7948 2.8206 10.5556 2.9108 10.3793 3.07094C10.203 3.23107 10.104 3.44807 10.104 3.6743V7.11905C9.65301 7.17364 9.20984 7.27208 8.78213 7.41267C8.71203 6.88224 8.49077 6.3775 8.14011 5.94811L6.02949 3.35176V2.37302H6.69802C6.74314 2.37302 6.78782 2.36496 6.82951 2.34931C6.87119 2.33366 6.90907 2.31072 6.94097 2.2818C6.97288 2.25289 6.99819 2.21855 7.01546 2.18077C7.03272 2.14299 7.04161 2.10249 7.04161 2.0616V0.860407C7.04148 0.632249 6.94142 0.41347 6.76343 0.252138C6.58543 0.0908055 6.34405 0.000117881 6.09232 0H2.76491C2.51344 0.000353254 2.27238 0.0910837 2.09461 0.252294C1.91684 0.413505 1.81686 0.632035 1.8166 0.859962V2.06115C1.8166 2.14375 1.8528 2.22296 1.91724 2.28136C1.98167 2.33976 2.06907 2.37257 2.16019 2.37257H2.76736V3.44385L0.691595 5.93521C0.244408 6.47397 0.00176899 7.12952 0 7.80372V20.2258C0.000649426 20.6962 0.207091 21.1471 0.574048 21.4797C0.941006 21.8123 1.43852 21.9994 1.95748 22H6.85067C7.36963 21.9994 7.86714 21.8123 8.2341 21.4797C8.60106 21.1471 8.8075 20.6962 8.80815 20.2258V18.2478C9.22771 18.3844 9.66209 18.4801 10.104 18.5335V20.5626C10.1038 20.9431 10.2702 21.3081 10.5666 21.5775C10.863 21.847 11.2652 21.9989 11.685 22H20.4195C20.8392 21.9989 21.2414 21.847 21.5377 21.5775C21.834 21.308 22.0003 20.943 22 20.5626V3.6743C22.0001 3.44834 21.9014 3.23155 21.7255 3.07143C21.5496 2.91132 21.3108 2.82095 21.0615 2.82013ZM18.0674 8.64055C18.046 8.81148 17.9561 8.96933 17.8147 9.08415C17.6734 9.19896 17.4905 9.26275 17.3007 9.26339H15.9312C15.739 9.04222 15.5291 8.83405 15.3035 8.64055H18.0674ZM16.6125 12.8265C16.6125 13.842 16.2803 14.8348 15.6578 15.6792C15.0354 16.5236 14.1506 17.1817 13.1155 17.5704C12.0803 17.9591 10.9413 18.0608 9.84235 17.8627C8.74342 17.6647 7.73396 17.1757 6.94162 16.4577C6.14927 15.7396 5.60963 14.8248 5.39092 13.8288C5.17221 12.8328 5.28426 11.8004 5.71291 10.8621C6.14155 9.92378 6.86753 9.12176 7.79905 8.55743C8.73058 7.99309 9.8258 7.69179 10.9463 7.69161C12.4483 7.69314 13.8883 8.23463 14.9504 9.19727C16.0124 10.1599 16.6099 11.4651 16.6115 12.8265H16.6125ZM10.7921 4.55162H12.2647C12.3558 4.55162 12.4432 4.51881 12.5076 4.4604C12.572 4.402 12.6082 4.32279 12.6082 4.2402C12.6082 4.1576 12.572 4.07839 12.5076 4.01999C12.4432 3.96159 12.3558 3.92878 12.2647 3.92878H10.7921V3.6743C10.792 3.61322 10.8186 3.55458 10.866 3.51122C10.9135 3.46786 10.978 3.44332 11.0454 3.44296H13.0942C13.1616 3.44332 13.2261 3.46786 13.2735 3.51122C13.321 3.55458 13.3476 3.61322 13.3474 3.6743V7.49586C12.5857 7.21304 11.7704 7.06795 10.9472 7.06877C10.8952 7.06877 10.8437 7.06877 10.7921 7.06877V4.55162ZM2.50378 1.75062V0.860852C2.50378 0.797963 2.53134 0.73765 2.58041 0.69318C2.62947 0.648711 2.69601 0.623728 2.7654 0.623728H6.09281C6.1622 0.623728 6.22874 0.648711 6.27781 0.69318C6.32687 0.73765 6.35443 0.797963 6.35443 0.860852V1.75062H2.50378ZM5.34232 2.37346V2.97183H3.45454V2.37346H5.34232ZM8.12146 20.2258C8.12107 20.5311 7.98711 20.8237 7.74897 21.0395C7.51083 21.2554 7.18795 21.3768 6.85116 21.3772H6.60231L7.07597 20.6591C7.11857 20.5885 7.12936 20.5057 7.10608 20.4281C7.0828 20.3504 7.02726 20.2839 6.9511 20.2426C6.87495 20.2012 6.78408 20.1882 6.69755 20.2062C6.61102 20.2242 6.53555 20.2719 6.48696 20.3392L5.79978 21.3772H4.83773V20.499C4.83773 20.4164 4.80153 20.3372 4.7371 20.2788C4.67266 20.2203 4.58527 20.1875 4.49414 20.1875C4.40302 20.1875 4.31562 20.2203 4.25119 20.2788C4.18675 20.3372 4.15055 20.4164 4.15055 20.499V21.3772H3.19096L2.50378 20.3392C2.48159 20.3025 2.45142 20.2701 2.4151 20.2441C2.37878 20.2182 2.33705 20.1991 2.29241 20.1881C2.24777 20.1771 2.20113 20.1744 2.15531 20.1802C2.10949 20.1859 2.06541 20.2 2.02573 20.2215C1.98605 20.2431 1.95157 20.2717 1.92438 20.3056C1.89718 20.3395 1.87782 20.378 1.86746 20.4189C1.8571 20.4598 1.85595 20.5021 1.86408 20.5434C1.87221 20.5847 1.88945 20.624 1.91477 20.6591L2.38843 21.3772H1.95649C1.61996 21.3765 1.29746 21.2549 1.05964 21.0391C0.821815 20.8233 0.688057 20.5308 0.687669 20.2258V15.1813H3.75837C3.8495 15.1813 3.93689 15.1484 4.00133 15.09C4.06576 15.0316 4.10196 14.9524 4.10196 14.8698C4.10196 14.7872 4.06576 14.708 4.00133 14.6496C3.93689 14.5912 3.8495 14.5584 3.75837 14.5584H0.687669V12.172H3.75837C3.8495 12.172 3.93689 12.1392 4.00133 12.0808C4.06576 12.0224 4.10196 11.9432 4.10196 11.8606C4.10196 11.778 4.06576 11.6988 4.00133 11.6404C3.93689 11.582 3.8495 11.5492 3.75837 11.5492H0.687669V7.80595C0.688907 7.26665 0.88281 6.74221 1.24036 6.31114L3.50313 3.59467H5.37373L7.58693 6.31647C7.90878 6.71036 8.09354 7.18238 8.11753 7.67204C7.05885 8.14898 6.16808 8.88431 5.5455 9.79525C4.92292 10.7062 4.59325 11.7566 4.59361 12.8281C4.59397 13.8997 4.92433 14.9498 5.54752 15.8604C6.17071 16.771 7.06197 17.5059 8.12097 17.9822L8.12146 20.2258ZM20.4195 21.3772H11.6825C11.455 21.3763 11.2364 21.2971 11.071 21.1556C10.9056 21.0141 10.8057 20.8209 10.7916 20.6151H21.3113C21.2974 20.821 21.1974 21.0145 21.0317 21.156C20.8661 21.2976 20.6472 21.3766 20.4195 21.3772ZM21.3128 19.9922H10.7911V18.5828C10.8402 18.5828 10.8942 18.5828 10.9463 18.5828C12.0681 18.5831 13.17 18.3139 14.1398 17.8028C15.1096 17.2917 15.9127 16.5568 16.4674 15.6729C17.022 14.7891 17.3085 13.7878 17.2975 12.771C17.2865 11.7543 16.9785 10.7583 16.4049 9.88445H17.2997C17.6873 9.88351 18.0587 9.74326 18.3323 9.49447C18.606 9.24568 18.7596 8.90867 18.7595 8.55736V4.5534H20.232C20.3231 4.5534 20.4105 4.52059 20.4749 4.46218C20.5394 4.40378 20.5756 4.32457 20.5756 4.24198C20.5756 4.15938 20.5394 4.08017 20.4749 4.02177C20.4105 3.96337 20.3231 3.93056 20.232 3.93056H18.7595V3.6743C18.7593 3.61322 18.7859 3.55458 18.8334 3.51122C18.8809 3.46786 18.9453 3.44332 19.0127 3.44296H21.0615C21.1289 3.44332 21.1933 3.46787 21.2407 3.51125C21.2881 3.55462 21.3146 3.61326 21.3143 3.6743L21.3128 19.9922Z" fill="#484769" style="fill:#484769;fill:color(display-p3 0.2824 0.2784 0.4118);fill-opacity:1;"/>
<path d="M9.96066 9.87199V11.8419H8.91026C8.71461 11.8418 8.52575 11.907 8.37979 12.0251C8.23383 12.1432 8.141 12.3059 8.11903 12.4821L8.01399 13.3274L7.94772 13.8613C7.90698 14.19 7.72783 14.5126 7.41565 14.8209C7.3337 14.9016 7.27944 15.0022 7.2595 15.1104C7.23956 15.2186 7.25479 15.3297 7.30335 15.4302C7.35191 15.5307 7.43169 15.6162 7.53295 15.6762C7.63421 15.7363 7.75258 15.7684 7.87361 15.7685H13.1256C13.2473 15.7688 13.3677 15.7463 13.4794 15.7024C13.591 15.6586 13.6915 15.5943 13.7744 15.5136C13.8574 15.4329 13.921 15.3375 13.9614 15.2335C14.0018 15.1295 14.018 15.019 14.0091 14.909L13.8835 13.3465L13.8167 12.5128C13.8011 12.3316 13.7107 12.1623 13.5637 12.0387C13.4166 11.915 13.2236 11.8461 13.023 11.8455H11.9873V9.87199C11.9903 9.74968 11.9663 9.62806 11.9167 9.51427C11.8671 9.40048 11.793 9.29681 11.6986 9.20935C11.6042 9.1219 11.4915 9.05241 11.367 9.00497C11.2426 8.95753 11.109 8.93309 10.974 8.93309C10.839 8.93309 10.7054 8.95753 10.581 9.00497C10.4566 9.05241 10.3438 9.1219 10.2494 9.20935C10.1551 9.29681 10.0809 9.40048 10.0313 9.51427C9.98171 9.62806 9.95769 9.74968 9.96066 9.87199ZM13.37 14.9486C13.3726 14.9792 13.3682 15.0099 13.357 15.0389C13.3458 15.0679 13.3282 15.0944 13.3051 15.1169C13.2821 15.1394 13.2541 15.1573 13.2231 15.1695C13.192 15.1817 13.1585 15.188 13.1246 15.1879H12.6677L12.6068 14.5286C12.5997 14.4519 12.5593 14.3809 12.4944 14.3312C12.4296 14.2815 12.3456 14.2572 12.261 14.2637C12.1764 14.2701 12.098 14.3067 12.0432 14.3655C11.9884 14.4243 11.9616 14.5004 11.9687 14.5771L12.0261 15.1879H11.1726V14.5531C11.1726 14.4764 11.1389 14.4028 11.0791 14.3486C11.0193 14.2944 10.9381 14.2639 10.8535 14.2639C10.7689 14.2639 10.6877 14.2944 10.6279 14.3486C10.5681 14.4028 10.5345 14.4764 10.5345 14.5531V15.1879H9.6799L9.73684 14.5789C9.74394 14.5022 9.71713 14.4261 9.66231 14.3673C9.60749 14.3085 9.52916 14.2719 9.44454 14.2655C9.35993 14.259 9.27596 14.2833 9.21111 14.333C9.14626 14.3827 9.10584 14.4537 9.09875 14.5304L9.03788 15.1897H7.90797C8.30064 14.7955 8.52643 14.3707 8.58189 13.9258L8.61625 13.65L13.266 13.6557L13.37 14.9486ZM13.0206 12.4203C13.0605 12.4204 13.0989 12.4343 13.1281 12.459C13.1572 12.4838 13.1749 12.5176 13.1776 12.5538L13.2199 13.0765L8.6884 13.0703L8.7532 12.5471C8.75755 12.5121 8.77598 12.4799 8.80497 12.4565C8.83395 12.4331 8.87145 12.4202 8.91026 12.4203H13.0206ZM10.5988 9.87199C10.5969 9.82629 10.6053 9.78073 10.6233 9.73802C10.6414 9.69531 10.6687 9.65634 10.7037 9.62342C10.7388 9.59051 10.7807 9.56433 10.8272 9.54645C10.8736 9.52857 10.9236 9.51935 10.974 9.51935C11.0245 9.51935 11.0744 9.52857 11.1208 9.54645C11.1673 9.56433 11.2093 9.59051 11.2443 9.62342C11.2793 9.65634 11.3066 9.69531 11.3247 9.73802C11.3427 9.78073 11.3511 9.82629 11.3493 9.87199V11.7463H10.5988V9.87199Z" fill="#484769" style="fill:#484769;fill:color(display-p3 0.2824 0.2784 0.4118);fill-opacity:1;"/>
</svg>
