<svg width="25" height="25" viewBox="0 0 25 25" fill="none" xmlns="http://www.w3.org/2000/svg">
<g clip-path="url(#clip0_237_9)">
<path d="M6.66667 0C2.99 0 0 2.99 0 6.66667C0 10.3433 2.99 13.3333 6.66667 13.3333C7.64167 13.3333 8.3375 13.125 8.98333 12.8917L20.1217 24.045C20.6083 24.5317 21.2858 25 22.0833 25H23.75C24.1025 25 24.3892 24.8292 24.6083 24.6083C24.8292 24.3892 25 24.1025 25 23.75V22.0833C25 21.2858 24.5308 20.6083 24.045 20.1217L23.2117 19.2883C23.1333 19.21 23.0283 19.1667 22.9167 19.1667H21.6667V17.9167C21.6667 17.8058 21.6233 17.7 21.545 17.6217L19.8783 15.955C19.8 15.8775 19.695 15.8333 19.5833 15.8333H18.3333V14.5833C18.3333 14.4725 18.2892 14.3667 18.2117 14.2883L16.545 12.6217C16.4667 12.5442 16.3617 12.5 16.25 12.5H15V11.25C15 11.1392 14.9558 11.0333 14.8783 10.955L12.8725 8.95C13.1417 8.215 13.3333 7.45 13.3333 6.66667C13.3333 2.99 10.3433 0 6.66667 0ZM6.66667 0.833333C9.89333 0.833333 12.5 3.44 12.5 6.66667C12.5 7.445 12.3442 8.215 12.0417 8.93333C11.9775 9.08833 12.0125 9.26833 12.1333 9.38833L14.1667 11.4217V12.9167C14.1667 13.1467 14.3533 13.3333 14.5833 13.3333H16.0775L17.5 14.7558V16.25C17.5 16.48 17.6867 16.6667 17.9167 16.6667H19.4108L20.8333 18.0892V19.5833C20.8333 19.8133 21.02 20 21.25 20H22.7442L23.455 20.7117C23.8467 21.1033 24.1667 21.6383 24.1667 22.0833V23.75C24.1667 23.7917 24.1167 23.92 24.0183 24.0183C23.92 24.1183 23.7908 24.1667 23.75 24.1667H22.0833C21.6383 24.1667 21.1033 23.8475 20.7117 23.455L9.38333 12.1275C9.26333 12.0067 9.08333 11.9717 8.925 12.0375C8.21083 12.3408 7.44167 12.4975 6.66667 12.5C3.44 12.5 0.833333 9.89333 0.833333 6.66667C0.833333 3.44 3.44 0.833333 6.66667 0.833333ZM5 3.33333C4.08333 3.33333 3.33333 4.08333 3.33333 5C3.33333 5.91667 4.08333 6.66667 5 6.66667C5.91667 6.66667 6.66667 5.91667 6.66667 5C6.66667 4.08333 5.91667 3.33333 5 3.33333ZM5 4.16667C5.465 4.16667 5.83333 4.535 5.83333 5C5.83333 5.465 5.465 5.83333 5 5.83333C4.535 5.83333 4.16667 5.465 4.16667 5C4.16667 4.535 4.535 4.16667 5 4.16667Z" fill="#484769" style="fill:#484769;fill:color(display-p3 0.2824 0.2784 0.4118);fill-opacity:1;"/>
</g>
<defs>
<clipPath id="clip0_237_9">
<rect width="25" height="25" fill="white" style="fill:white;fill-opacity:1;"/>
</clipPath>
</defs>
</svg>
