<svg width="25" height="25" viewBox="0 0 25 25" fill="none" xmlns="http://www.w3.org/2000/svg">
<g clip-path="url(#clip0_237_48)">
<path d="M18.5647 9.31724C18.3824 9.43034 18.1407 9.37422 18.0277 9.19192C17.9145 9.00967 17.9707 8.76799 18.153 8.6549L24.4016 4.74652C24.5839 4.6326 24.8247 4.68954 24.9386 4.87183C24.9786 4.93612 24.9973 5.00691 24.9973 5.07773H24.9981V19.9235C24.9981 20.07 24.9168 20.1977 24.7971 20.2653L17.7909 24.9353C17.6745 25.0126 17.5313 25.0182 17.4124 24.9637V24.9645L7.45724 20.3685L0.608841 24.9344C0.429817 25.0541 0.186504 25.0052 0.0676855 24.8263C0.0164251 24.7489 -0.00391576 24.6603 0.00339549 24.5748L0.00829689 9.86811C0.00829689 9.72573 0.0847996 9.60123 0.199533 9.53368L0.198716 9.53286L5.66133 6.30557C5.84603 6.19656 6.0853 6.25758 6.19513 6.44228C6.30415 6.6278 6.24312 6.86703 6.0576 6.97608L0.786272 10.0911L0.781411 23.8806L7.20421 19.598L7.20502 19.5988C7.31408 19.5255 7.45728 19.5101 7.58423 19.5686L17.5418 24.1639L24.2169 19.7152V5.78153L18.5647 9.31724Z" fill="#484769" style="fill:#484769;fill:color(display-p3 0.2824 0.2784 0.4118);fill-opacity:1;"/>
<path d="M12.4991 0C14.0085 0 15.3756 0.612716 16.3651 1.60223L16.3659 1.60304L16.3668 1.60223C17.3563 2.59092 17.9682 3.95964 17.9682 5.46992C17.9682 7.00055 17.1129 8.81925 16.0306 10.5297C14.9654 12.2142 13.6887 13.7879 12.8001 14.8726C12.6633 15.0394 12.4168 15.0638 12.2508 14.9272C12.2215 14.9027 12.1963 14.8751 12.1759 14.845C11.2833 13.7553 10.0146 12.1881 8.96413 10.5273C7.88267 8.81603 7.02905 6.99814 7.02905 5.4691C7.02905 3.95882 7.64181 2.59092 8.6305 1.60145C9.62087 0.612716 10.9888 0 12.4991 0ZM15.8158 2.15396C14.9671 1.30688 13.7945 0.782018 12.4999 0.782018C11.2052 0.782018 10.0326 1.30688 9.18469 2.15478C8.33675 3.00268 7.81111 4.17526 7.81111 5.4691C7.81111 6.82888 8.61102 8.50842 9.62414 10.1123C10.5469 11.5713 11.6471 12.9644 12.4982 14.0093C13.351 12.9619 14.4544 11.5656 15.3732 10.1139C16.3871 8.51165 17.1878 6.83047 17.1878 5.46906C17.1878 4.17444 16.6629 3.00182 15.8151 2.15392L15.8158 2.15396Z" fill="#484769" style="fill:#484769;fill:color(display-p3 0.2824 0.2784 0.4118);fill-opacity:1;"/>
<path d="M12.4992 3.12549C13.1461 3.12549 13.7336 3.38833 14.1567 3.81226V3.81389C14.5807 4.23786 14.8435 4.82456 14.8435 5.46983C14.8435 6.11514 14.5806 6.70184 14.1567 7.12577L14.1551 7.1274C13.7311 7.55133 13.1444 7.81417 12.4992 7.81417C11.8523 7.81417 11.2647 7.55133 10.8416 7.1274C10.4176 6.70425 10.1548 6.11673 10.1548 5.46979C10.1548 4.8237 10.4176 4.23778 10.8416 3.81385V3.81222C11.2656 3.38837 11.8522 3.12549 12.4992 3.12549ZM13.605 4.36399L13.6041 4.36485C13.3218 4.08249 12.9304 3.90755 12.4991 3.90755C12.0678 3.90755 11.6764 4.08249 11.394 4.36485L11.3932 4.36399C11.1116 4.64717 10.9367 5.03777 10.9367 5.46987C10.9367 5.90115 11.1116 6.29257 11.394 6.57493C11.6764 6.85729 12.0678 7.03223 12.4991 7.03223C12.9304 7.03223 13.3209 6.85807 13.6041 6.57652L13.6057 6.57489C13.8874 6.29249 14.0614 5.90111 14.0614 5.46983C14.0623 5.03777 13.8874 4.64635 13.605 4.36399Z" fill="#484769" style="fill:#484769;fill:color(display-p3 0.2824 0.2784 0.4118);fill-opacity:1;"/>
<path d="M17.9658 24.6099C17.9658 24.8247 17.7917 24.9987 17.577 24.9987C17.3621 24.9987 17.188 24.8246 17.188 24.6099L17.1896 10.5477C17.1896 10.3328 17.3638 10.1587 17.5785 10.1587C17.7934 10.1587 17.9675 10.3329 17.9675 10.5477L17.9658 24.6099Z" fill="#484769" style="fill:#484769;fill:color(display-p3 0.2824 0.2784 0.4118);fill-opacity:1;"/>
<path d="M7.80796 19.7527C7.80796 19.9676 7.63384 20.1417 7.419 20.1417C7.20419 20.1417 7.03003 19.9675 7.03003 19.7527L7.03248 10.5469C7.03248 10.3321 7.2066 10.158 7.42141 10.158C7.63625 10.158 7.81037 10.3321 7.81037 10.5469L7.80796 19.7527Z" fill="#484769" style="fill:#484769;fill:color(display-p3 0.2824 0.2784 0.4118);fill-opacity:1;"/>
</g>
<defs>
<clipPath id="clip0_237_48">
<rect width="25" height="25" fill="white" style="fill:white;fill-opacity:1;"/>
</clipPath>
</defs>
</svg>
