<svg width="25" height="25" viewBox="0 0 25 25" fill="none" xmlns="http://www.w3.org/2000/svg">
<g clip-path="url(#clip0_237_11)">
<path d="M22.0703 2.6044e-06H2.92969C2.15269 2.6044e-06 1.40751 0.308665 0.858086 0.858088C0.308663 1.40751 0 2.15269 0 2.92969L0 15.541C0 16.318 0.308663 17.0632 0.858086 17.6126C1.40751 18.162 2.15269 18.4707 2.92969 18.4707H7.47656C7.52836 18.4707 7.57804 18.4913 7.61467 18.5279C7.6513 18.5645 7.67187 18.6142 7.67187 18.666V23.6328C7.67186 23.9032 7.75203 24.1676 7.90226 24.3924C8.05248 24.6173 8.26602 24.7925 8.51585 24.896C8.76568 24.9995 9.04059 25.0266 9.30581 24.9738C9.57104 24.9211 9.81465 24.7908 10.0059 24.5996L16.0762 18.5293C16.0944 18.5112 16.1161 18.4969 16.1399 18.4872C16.1637 18.4774 16.1891 18.4725 16.2148 18.4727H22.0742C22.8512 18.4727 23.5964 18.164 24.1458 17.6146C24.6952 17.0652 25.0039 16.32 25.0039 15.543V2.92969C25.0039 2.54463 24.928 2.16335 24.7805 1.80764C24.633 1.45194 24.4169 1.1288 24.1444 0.856706C23.872 0.584608 23.5486 0.36889 23.1927 0.22189C22.8368 0.074889 22.4554 -0.00051081 22.0703 2.6044e-06ZM23.8281 15.541C23.8281 16.0072 23.6429 16.4543 23.3133 16.784C22.9836 17.1136 22.5365 17.2988 22.0703 17.2988H16.2109C15.8497 17.2962 15.5021 17.4366 15.2441 17.6895L9.17969 23.7695C9.15237 23.7971 9.11747 23.8159 9.07943 23.8235C9.04139 23.8311 9.00195 23.8273 8.96612 23.8124C8.93029 23.7975 8.8997 23.7723 8.87826 23.74C8.85681 23.7076 8.84548 23.6697 8.8457 23.6309V18.666C8.8457 18.3034 8.70166 17.9557 8.44526 17.6993C8.18887 17.4429 7.84112 17.2988 7.47852 17.2988H2.92969C2.46349 17.2988 2.01638 17.1136 1.68673 16.784C1.35707 16.4543 1.17188 16.0072 1.17188 15.541V2.92969C1.17187 2.46349 1.35707 2.01638 1.68673 1.68673C2.01638 1.35708 2.46349 1.17188 2.92969 1.17188H22.0703C22.5365 1.17188 22.9836 1.35708 23.3133 1.68673C23.6429 2.01638 23.8281 2.46349 23.8281 2.92969V15.541Z" fill="#484769" style="fill:#484769;fill:color(display-p3 0.2824 0.2784 0.4118);fill-opacity:1;"/>
</g>
<defs>
<clipPath id="clip0_237_11">
<rect width="25" height="25" fill="white" style="fill:white;fill-opacity:1;"/>
</clipPath>
</defs>
</svg>
