<svg width="22" height="22" viewBox="0 0 22 22" fill="none" xmlns="http://www.w3.org/2000/svg">
<path d="M22 22H0V0H22V22ZM0.6875 20.9521H16.5V1.04785H0.6875V20.9521ZM17.1875 20.9521H21.3125V1.04785H17.1875V20.9521ZM13.4062 3.14258C13.8621 3.14258 14.2997 3.41899 14.6221 3.91016C14.9442 4.40125 15.125 5.06734 15.125 5.76172V16.2383C15.125 16.5821 15.0805 16.9226 14.9941 17.2402C14.9078 17.5578 14.7816 17.8467 14.6221 18.0898C14.4625 18.333 14.2729 18.5266 14.0645 18.6582C13.8559 18.7898 13.632 18.8574 13.4062 18.8574H3.78125C3.55554 18.8574 3.33158 18.7898 3.12305 18.6582C2.91457 18.5266 2.72499 18.333 2.56543 18.0898C2.40594 17.8467 2.27969 17.5578 2.19336 17.2402C2.10702 16.9226 2.06252 16.5821 2.0625 16.2383V5.76172C2.06253 5.06734 2.24328 4.40125 2.56543 3.91016C2.88776 3.41899 3.32541 3.14258 3.78125 3.14258H13.4062ZM19.25 16.0908C19.6296 16.0908 19.9374 16.5602 19.9375 17.1387C19.9375 17.7173 19.6297 18.1865 19.25 18.1865C18.8703 18.1865 18.5625 17.7173 18.5625 17.1387C18.5626 16.5602 18.8704 16.0908 19.25 16.0908ZM3.78125 4.19043C3.50778 4.19043 3.24515 4.35576 3.05176 4.65039C2.85839 4.94505 2.75003 5.34502 2.75 5.76172V16.2383C2.75003 16.655 2.85839 17.055 3.05176 17.3496C3.24515 17.6442 3.50778 17.8096 3.78125 17.8096H13.4062C13.6797 17.8096 13.9424 17.6442 14.1357 17.3496C14.3291 17.055 14.4375 16.655 14.4375 16.2383V5.76172C14.4375 5.34502 14.3291 4.94505 14.1357 4.65039C13.9424 4.35576 13.6797 4.19043 13.4062 4.19043H3.78125ZM19.25 10.4766C19.6296 10.4766 19.9374 10.945 19.9375 11.5234C19.9375 12.102 19.6297 12.5713 19.25 12.5713C18.8703 12.5713 18.5625 12.102 18.5625 11.5234C18.5626 10.945 18.8704 10.4766 19.25 10.4766ZM18.7236 2.25488C18.9749 2.0963 19.2518 2.0549 19.5186 2.13574C19.7851 2.21666 20.0304 2.41609 20.2227 2.70898C20.4148 3.00187 20.5456 3.37509 20.5986 3.78125C20.6517 4.18764 20.6245 4.60937 20.5205 4.99219C20.4164 5.37504 20.2398 5.70239 20.0137 5.93262C19.7876 6.16276 19.5219 6.28613 19.25 6.28613C18.8853 6.28613 18.5352 6.06481 18.2773 5.67188C18.0196 5.27897 17.875 4.74599 17.875 4.19043C17.875 3.77607 17.9554 3.3709 18.1064 3.02637C18.2575 2.6819 18.4725 2.41348 18.7236 2.25488ZM19.25 3.14258C19.0677 3.14258 18.8926 3.2529 18.7637 3.44922C18.6347 3.64568 18.5625 3.9126 18.5625 4.19043C18.5625 4.39763 18.6032 4.60018 18.6787 4.77246C18.7543 4.94469 18.8617 5.07893 18.9873 5.1582C19.1128 5.23733 19.2506 5.25807 19.3838 5.21777C19.5171 5.17737 19.6402 5.07805 19.7363 4.93164C19.8325 4.78513 19.8973 4.59775 19.9238 4.39453C19.9503 4.19151 19.9367 3.9813 19.8848 3.79004C19.8327 3.59861 19.7449 3.43445 19.6318 3.31934C19.5188 3.20428 19.3859 3.14258 19.25 3.14258Z" fill="#484769" style="fill:#484769;fill:color(display-p3 0.2824 0.2784 0.4118);fill-opacity:1;"/>
</svg>
