<svg width="22" height="22" viewBox="0 0 22 22" fill="none" xmlns="http://www.w3.org/2000/svg">
<path d="M21.6156 21.2066H21.1416L20.1343 18.3609C20.4495 18.2586 20.7246 18.0581 20.9201 17.7883C21.1156 17.5185 21.2215 17.1932 21.2226 16.8589V11.6981C21.2202 11.5942 21.1774 11.4954 21.1036 11.4229C21.0298 11.3504 20.9307 11.3101 20.8277 11.3106C20.7247 11.3112 20.626 11.3524 20.5529 11.4256C20.4798 11.4988 20.438 11.5981 20.4366 11.702C20.4366 12.3311 20.1407 12.6298 19.7658 13.0083C19.4896 13.2342 19.2658 13.5185 19.1101 13.841C18.9545 14.1636 18.8707 14.5167 18.8647 14.8755C18.8647 15.701 17.3944 15.954 16.7631 16.0245C16.4757 16.0565 16.2102 16.1947 16.0178 16.4125C15.8253 16.6303 15.7195 16.9122 15.7208 17.2041V18.049C15.7207 18.1011 15.7309 18.1527 15.7506 18.2008C15.7703 18.249 15.7993 18.2927 15.8358 18.3296C15.8723 18.3664 15.9156 18.3956 15.9633 18.4155C16.011 18.4355 16.0621 18.4457 16.1137 18.4457H16.779L15.8018 21.2066H14.0121C13.9958 20.8508 13.8445 20.515 13.5896 20.2687C13.3347 20.0224 12.9957 19.8846 12.6429 19.8837H11.3979V16.4436H14.1488C14.6697 16.443 15.1692 16.2339 15.5375 15.862C15.9059 15.4902 16.1131 14.9861 16.1137 14.4602C16.1138 14.4081 16.1036 14.3565 16.0839 14.3084C16.0641 14.2602 16.0352 14.2165 15.9987 14.1796C15.9622 14.1428 15.9189 14.1136 15.8712 14.0937C15.8235 14.0737 15.7724 14.0635 15.7208 14.0635H11.3979V8.96465C11.5953 9.06794 11.8141 9.12252 12.0365 9.12389H14.0575C14.252 9.12335 14.4444 9.08288 14.623 9.00494C14.8016 8.927 14.9626 8.81321 15.0962 8.6705C15.2278 8.81299 15.387 8.92675 15.5638 9.00473C15.7407 9.08271 15.9315 9.12326 16.1245 9.12389H18.1485C18.3527 9.12238 18.5543 9.07702 18.7398 8.99081C18.9253 8.90461 19.0905 8.77954 19.2244 8.62391C19.3583 8.46828 19.4579 8.28566 19.5165 8.08819C19.5751 7.89072 19.5914 7.68292 19.5643 7.47861C19.2662 5.40165 18.237 3.50257 16.665 2.12914C15.093 0.755709 13.0834 -0.000143116 11.0044 2.03255e-08C8.92534 0.000143156 6.91591 0.756272 5.34409 2.12992C3.77228 3.50356 2.74327 5.40279 2.44553 7.47978C2.41858 7.68401 2.43498 7.8917 2.49366 8.08903C2.55233 8.28637 2.65193 8.46885 2.78584 8.62435C2.91974 8.77984 3.08489 8.9048 3.27032 8.99092C3.45574 9.07704 3.6572 9.12235 3.86131 9.12385L5.88532 9.12387C6.07832 9.12325 6.26914 9.08269 6.446 9.00471C6.62286 8.92673 6.782 8.81298 6.9136 8.67048C7.04725 8.81319 7.20825 8.92698 7.38682 9.00492C7.5654 9.08287 7.75781 9.12334 7.95236 9.12387H9.97333C10.1957 9.12251 10.4145 9.06794 10.6119 8.96465V14.0635H6.28906C6.23745 14.0635 6.18633 14.0737 6.13864 14.0937C6.09094 14.1136 6.04761 14.1428 6.01111 14.1796C5.97461 14.2165 5.94567 14.2602 5.92593 14.3084C5.90619 14.3565 5.89605 14.4081 5.89608 14.4602C5.89669 14.9861 6.10391 15.4902 6.47227 15.862C6.84063 16.2339 7.34006 16.443 7.861 16.4436H10.6119V19.8837H9.36694C9.01409 19.8846 8.67509 20.0224 8.42019 20.2687C8.16528 20.515 8.014 20.8508 7.99769 21.2066H6.20802L5.23076 18.4457H5.89606C6.39062 18.4229 6.27923 17.8923 6.28904 17.5531C6.29103 17.1734 6.15695 16.8057 5.91151 16.5178C5.66607 16.23 5.32583 16.0414 4.9535 15.9869C4.27805 15.8823 3.14514 15.5984 3.14514 14.8755C3.13912 14.5167 3.05532 14.1636 2.89965 13.8411C2.74397 13.5185 2.52019 13.2342 2.24403 13.0083C1.86908 12.6298 1.57319 12.3311 1.57319 11.702C1.57253 11.5975 1.5311 11.4976 1.45788 11.4238C1.38466 11.35 1.28556 11.3083 1.18209 11.3078C1.07861 11.3073 0.979118 11.348 0.905191 11.4211C0.831264 11.4941 0.788871 11.5937 0.787212 11.6981V16.8589C0.78832 17.1932 0.894204 17.5185 1.0897 17.7883C1.28519 18.0581 1.56026 18.2586 1.87551 18.3609L0.868238 21.2066H0.394227C0.342515 21.2065 0.291279 21.2166 0.243456 21.2365C0.195634 21.2563 0.152165 21.2855 0.115542 21.3224C0.0789181 21.3592 0.0498599 21.403 0.0300329 21.4512C0.0102059 21.4994 0 21.5511 0 21.6033C0 21.6555 0.0102059 21.7072 0.0300329 21.7554C0.0498599 21.8036 0.0789181 21.8474 0.115542 21.8843C0.152165 21.9211 0.195634 21.9503 0.243456 21.9702C0.291279 21.99 0.342515 22.0002 0.394227 22H21.6156C21.7183 21.9977 21.8161 21.9549 21.8879 21.8808C21.9598 21.8066 22 21.707 22 21.6033C22 21.4996 21.9598 21.4 21.8879 21.3258C21.8161 21.2517 21.7183 21.2089 21.6156 21.2066ZM18.786 7.58983C18.7982 7.68182 18.7909 7.77539 18.7645 7.8643C18.7381 7.95322 18.6933 8.03544 18.633 8.10551C18.5727 8.17557 18.4983 8.23188 18.4148 8.27067C18.3312 8.30946 18.2405 8.32986 18.1485 8.3305L16.1245 8.33052C16.0333 8.32818 15.9436 8.30685 15.861 8.26787C15.7783 8.22889 15.7045 8.1731 15.6443 8.10399C15.584 8.03489 15.5385 7.95396 15.5107 7.86628C15.4828 7.7786 15.4732 7.68606 15.4825 7.59446C15.442 7.07058 15.3908 6.54254 15.3051 6.02959C14.9693 3.93984 14.2298 2.17745 13.2684 1.1328C14.6995 1.5712 15.9778 2.4108 16.9546 3.5539C17.9314 4.697 18.5665 6.0966 18.786 7.58983ZM11.3979 0.844025C12.8925 1.1859 13.92 3.45792 14.3136 5.12598C14.4845 5.8278 14.6018 6.54182 14.6644 7.26176C14.7653 7.74445 14.6496 8.32059 14.0575 8.33052H12.0365C11.8672 8.33039 11.7048 8.26243 11.5851 8.14157C11.4653 8.02071 11.398 7.85682 11.3979 7.6859V0.844025ZM1.57319 16.8589V13.4522C1.98402 13.8736 2.36336 14.1843 2.35916 14.8755C2.35916 15.565 2.78861 16.4537 4.83568 16.7714C5.03799 16.803 5.22038 16.9123 5.34474 17.0765C5.4691 17.2406 5.52583 17.4469 5.50307 17.6523H2.35916C2.15079 17.652 1.95103 17.5684 1.80369 17.4196C1.65635 17.2709 1.57346 17.0693 1.57319 16.8589ZM1.70279 21.2066L2.68005 18.4457H4.39623L5.37347 21.2066H1.70279ZM6.71487 5.96998C6.62284 6.50318 6.56931 7.05012 6.52737 7.59487C6.53657 7.68644 6.52693 7.77894 6.49907 7.86658C6.4712 7.95422 6.4257 8.0351 6.36543 8.10416C6.30515 8.17323 6.23139 8.22898 6.14878 8.26793C6.06616 8.30688 5.97647 8.32819 5.88531 8.33052H3.86129C3.76923 8.33052 3.67825 8.31056 3.59449 8.27199C3.51073 8.23343 3.43616 8.17716 3.37581 8.10699C3.3149 8.03726 3.26975 7.95499 3.24351 7.86588C3.21726 7.77678 3.21055 7.68297 3.22383 7.59098C3.44322 6.09756 4.07826 4.69774 5.05506 3.55443C6.03185 2.41111 7.31022 1.57132 8.7414 1.13279C7.78779 2.17607 7.06169 3.87882 6.71487 5.96998ZM9.97331 8.33052H7.95233C7.86408 8.33081 7.77673 8.31261 7.6958 8.27706C7.61488 8.24152 7.54214 8.18942 7.48219 8.12404C7.24938 7.89212 7.31985 7.55894 7.34496 7.2667C7.50929 5.14005 8.40402 1.82608 10.29 0.950508C10.3952 0.908876 10.5027 0.873316 10.6119 0.844001V7.6859C10.6118 7.85682 10.5444 8.0207 10.4247 8.14157C10.305 8.26243 10.1426 8.33039 9.97331 8.33052ZM7.861 15.6503C7.61724 15.65 7.37954 15.5736 7.18049 15.4315C6.98144 15.2895 6.83079 15.0888 6.7492 14.8569H15.2606C15.179 15.0888 15.0284 15.2895 14.8293 15.4315C14.6303 15.5736 14.3926 15.65 14.1488 15.6503C14.1412 15.6503 11.0075 15.6502 11.0011 15.6503H7.861ZM8.78368 21.2066C8.79935 21.0614 8.86751 20.9271 8.97511 20.8294C9.08272 20.7317 9.22222 20.6775 9.36695 20.677H12.6429C12.7876 20.6775 12.9271 20.7317 13.0347 20.8294C13.1423 20.9271 13.2105 21.0614 13.2261 21.2066H8.78368ZM16.5067 17.6523V17.2041C16.5058 17.1079 16.5401 17.0147 16.6032 16.9425C16.6663 16.8703 16.7536 16.8242 16.8483 16.8132C18.6555 16.6114 19.6506 15.9234 19.6506 14.8755C19.6506 14.2464 19.9465 13.9477 20.3215 13.5692C20.3591 13.5312 20.3979 13.4925 20.4366 13.4522V16.8589C20.4363 17.0693 20.3535 17.2709 20.2061 17.4196C20.0588 17.5683 19.859 17.652 19.6506 17.6523L16.5067 17.6523ZM16.6363 21.2066L17.6136 18.4457H19.3298L20.307 21.2066H16.6363Z" fill="#484769" style="fill:#484769;fill:color(display-p3 0.2824 0.2784 0.4118);fill-opacity:1;"/>
</svg>
