<svg width="22" height="22" viewBox="0 0 22 22" fill="none" xmlns="http://www.w3.org/2000/svg">
<g clip-path="url(#clip0_198_33)">
<path d="M3.84082 13.9466H7.18198" stroke="#484769" style="stroke:#484769;stroke:color(display-p3 0.2824 0.2784 0.4118);stroke-opacity:1;"/>
<path fill-rule="evenodd" clip-rule="evenodd" d="M3.74736 0.360657C5.62091 0.360657 7.15097 3.34294 7.15097 7.08736C7.15097 10.8318 5.62091 13.8803 3.74736 13.8803C1.87381 13.8803 0.34375 10.8318 0.34375 7.08736C0.34375 3.34294 1.87381 0.360657 3.74736 0.360657Z" stroke="#484769" style="stroke:#484769;stroke:color(display-p3 0.2824 0.2784 0.4118);stroke-opacity:1;"/>
<path d="M3.77857 8.97614C4.29594 8.97614 4.71535 8.16018 4.71535 7.15364C4.71535 6.14709 4.29594 5.33113 3.77857 5.33113C3.2612 5.33113 2.8418 6.14709 2.8418 7.15364C2.8418 8.16018 3.2612 8.97614 3.77857 8.97614Z" stroke="#484769" style="stroke:#484769;stroke:color(display-p3 0.2824 0.2784 0.4118);stroke-opacity:1;"/>
<path fill-rule="evenodd" clip-rule="evenodd" d="M3.74756 0.360657H16.3003C18.049 0.360657 19.7039 2.87903 19.7039 5.99386C19.7039 9.10869 19.1419 18.7845 19.1419 18.7845C19.1419 18.7845 17.643 18.5526 14.9264 19.4141C11.835 20.4082 11.5228 18.7514 9.96149 17.7573C8.4002 16.7632 7.49465 17.4259 7.1824 17.4259V7.55127C7.15117 0.360657 3.74756 0.360657 3.74756 0.360657Z" stroke="#484769" style="stroke:#484769;stroke:color(display-p3 0.2824 0.2784 0.4118);stroke-opacity:1;"/>
</g>
<defs>
<clipPath id="clip0_198_33">
<rect width="22" height="22" fill="white" style="fill:white;fill-opacity:1;"/>
</clipPath>
</defs>
</svg>
