<svg width="22" height="22" viewBox="0 0 22 22" fill="none" xmlns="http://www.w3.org/2000/svg">
<path d="M21.6207 4.18052H20.4828V3.08314C21.3552 2.82185 22 1.77672 22 0.522565C22 0.209026 21.8483 0 21.6207 0H0.37931C0.151724 0 0 0.209026 0 0.522565C0 1.77672 0.644828 2.82185 1.51724 3.08314V4.18052H0.37931C0.151724 4.18052 0 4.38955 0 4.70309V7.31592C0 11.4964 2.23793 14.9454 5.12069 15.5724L3.07241 21.2162C2.99655 21.3729 3.03448 21.5819 3.07241 21.7387C3.14828 21.8955 3.26207 22 3.41379 22H5.68966C5.84138 22 5.95517 21.8955 6.03103 21.6865L6.48621 20.4323H15.5138L15.969 21.6865C16.0448 21.8432 16.1586 22 16.3103 22H18.5862C18.7 22 18.8517 21.8955 18.9276 21.7387C19.0034 21.5819 19.0034 21.3729 18.9276 21.2162L16.8793 15.5724C19.7621 14.9454 22 11.4964 22 7.31592V4.70309C22 4.38955 21.8483 4.18052 21.6207 4.18052ZM3.7931 4.18052V3.13539H18.2069V4.18052H3.7931ZM18.9655 3.13539H19.7241V4.18052H18.9655V3.13539ZM0.834483 1.04513H21.2034C21.0517 1.67221 20.6345 2.09026 20.1414 2.09026H18.6241H3.41379H1.89655C1.40345 2.09026 0.986207 1.67221 0.834483 1.04513ZM2.27586 3.13539H3.03448V4.18052H2.27586V3.13539ZM5.46207 20.9026H4.02069L5.91724 15.677H6.06897H7.35862L5.46207 20.9026ZM13.8069 15.677L14.3759 17.2447H7.62414L8.1931 15.677H13.8069ZM6.86552 19.3349L7.24483 18.2898H14.7552L15.1345 19.3349H6.86552ZM16.0828 15.677L17.9793 20.9026H16.5379L14.6414 15.677H15.931H16.0828ZM21.2414 7.31592C21.2414 11.3397 18.8517 14.6318 15.931 14.6318H14.0345H7.96552H6.06897C3.14828 14.6318 0.758621 11.3397 0.758621 7.31592V5.22565H1.89655H3.41379H18.5862H20.1034H21.2414V7.31592Z" fill="#484769" style="fill:#484769;fill:color(display-p3 0.2824 0.2784 0.4118);fill-opacity:1;"/>
<path d="M10.9999 6.27078C9.52059 6.27078 8.34473 7.89073 8.34473 9.92874C8.34473 11.9667 9.52059 13.5867 10.9999 13.5867C12.4792 13.5867 13.6551 11.9667 13.6551 9.92874C13.6551 7.89073 12.4792 6.27078 10.9999 6.27078ZM11.3792 7.83848V12.019C11.3792 12.3325 11.2275 12.5416 10.9999 12.5416C10.7723 12.5416 10.6206 12.3325 10.6206 12.019V7.83848C10.6206 7.52494 10.7723 7.31591 10.9999 7.31591C11.2275 7.31591 11.3792 7.52494 11.3792 7.83848ZM9.10335 9.92874C9.10335 9.09264 9.4068 8.30879 9.86197 7.83848V12.019C9.4068 11.5487 9.10335 10.7648 9.10335 9.92874ZM12.1378 12.019V7.83848C12.593 8.30879 12.8965 9.04038 12.8965 9.92874C12.8965 10.8171 12.593 11.5487 12.1378 12.019Z" fill="#484769" style="fill:#484769;fill:color(display-p3 0.2824 0.2784 0.4118);fill-opacity:1;"/>
</svg>
