<svg width="22" height="22" viewBox="0 0 22 22" fill="none" xmlns="http://www.w3.org/2000/svg">
<path d="M21.4636 19.0667H18.9029L15.6525 15.3758L19.1978 11.3828C19.3914 11.1647 19.3474 10.8361 19.082 10.6712C19.224 10.5832 19.3173 10.4349 19.3173 10.2667C19.3173 9.99665 19.077 9.77778 18.7807 9.77778H3.2197C2.22144 9.77778 1.38013 9.15361 1.14129 8.31111C7.35179 8.31111 13.318 8.31111 18.7807 8.31111C19.077 8.31111 19.3173 8.09224 19.3173 7.82222C19.3173 7.55221 19.077 7.33333 18.7807 7.33333H11.6875L11.2667 5.79974C11.2272 3.94362 9.55882 2.44444 7.51239 2.44444H2.68312V1.95556C2.68312 1.41641 3.16454 0.977778 3.75629 0.977778H6.43922C6.73552 0.977778 6.9758 0.758853 6.9758 0.488889C6.9758 0.218924 6.73552 0 6.43922 0H3.75629C2.5728 0 1.60995 0.877262 1.60995 1.95556C1.60995 3.11828 1.60995 4.64337 1.60995 5.80653L1.19098 7.33333H0.536777C0.240421 7.33333 0.000191712 7.55221 0.000191712 7.82222C0.000191712 9.43966 1.44446 10.7556 3.2197 10.7556H7.87061L11.4624 15.2729L7.73716 19.0667H5.36605C5.06974 19.0667 4.82946 19.2856 4.82946 19.5556V21.5111C4.82946 21.7811 5.06974 22 5.36605 22H8.93756C9.09027 22 9.23568 21.9407 9.33747 21.8371L13.4903 17.6074L17.1973 21.817C17.2991 21.9327 17.4531 22 17.6158 22H21.4636C21.7599 22 22.0002 21.781 22.0002 21.5111V19.5555C22.0002 19.2856 21.7599 19.0667 21.4636 19.0667ZM10.1414 5.37778H4.82946V3.42222H7.51239C8.80797 3.42222 9.89214 4.2634 10.1414 5.37778ZM2.68312 5.37778V3.42222H3.75629V5.37778H2.68312ZM2.5655 6.35556H10.313L10.5813 7.33333C9.65825 7.33333 3.20554 7.33333 2.29721 7.33333L2.5655 6.35556ZM13.6252 12.9998L11.9201 10.7556H15.5263L13.6252 12.9998ZM9.19587 10.7556H10.6149L12.9196 13.7891L12.1947 14.5272L9.19587 10.7556ZM8.6976 21.0222H5.90263V20.0444H7.97707C8.12978 20.0444 8.2752 19.9852 8.37699 19.8815C15.1521 12.9802 13.2673 15.0225 16.8819 10.7556H18.3756C18.3475 10.7851 8.74058 20.9784 8.6976 21.0222ZM20.927 21.0222H17.8732L14.2156 16.8688L14.941 16.1304L18.2269 19.8616C18.3288 19.9772 18.4827 20.0444 18.6455 20.0444H20.927V21.0222Z" fill="#484769" style="fill:#484769;fill:color(display-p3 0.2824 0.2784 0.4118);fill-opacity:1;"/>
</svg>
