<svg width="22" height="22" viewBox="0 0 22 22" fill="none" xmlns="http://www.w3.org/2000/svg">
<path d="M13.8038 0C9.17734 0 5.44818 4.4116 5.61214 9.68208C5.62042 9.94843 5.81183 10.158 6.04296 10.158C6.28668 10.158 6.48309 9.92726 6.47438 9.64705C6.32835 4.99625 9.6141 0.986884 13.8037 0.986884C17.8474 0.986884 21.1371 4.74978 21.1371 9.37498C21.1371 12.7554 19.378 15.7896 16.6555 17.1047C16.4958 17.1818 16.392 17.3614 16.392 17.5598C16.392 17.9233 16.7233 18.158 17.0057 18.0068C20.0401 16.5332 21.9999 13.1471 21.9999 9.37503C21.9999 4.20559 18.3231 0 13.8038 0Z" fill="#484769" style="fill:#484769;fill:color(display-p3 0.2824 0.2784 0.4118);fill-opacity:1;"/>
<path d="M16.6599 15.4631C18.6235 14.2558 19.8433 11.923 19.8433 9.37491C19.8433 5.56593 17.1341 2.46707 13.8041 2.46707C10.3081 2.46707 7.60027 5.85152 7.77135 9.68971C7.78352 9.96188 7.98661 10.1706 8.22421 10.1573C8.46216 10.1434 8.64515 9.91151 8.63303 9.63934C8.62932 9.55708 8.62755 9.47059 8.62755 9.37496C8.62755 6.11012 10.9497 3.45396 13.8041 3.45396C16.6584 3.45396 18.9806 6.11012 18.9806 9.37496C18.9806 11.5592 17.9349 13.5589 16.2515 14.5939C16.0417 14.7229 15.963 15.0221 16.0757 15.2621C16.1893 15.5036 16.4514 15.5913 16.6599 15.4631Z" fill="#484769" style="fill:#484769;fill:color(display-p3 0.2824 0.2784 0.4118);fill-opacity:1;"/>
<path d="M17.2518 13.6731C17.2839 13.3794 17.0837 13.1185 16.8237 13.1185H15.5176C16.4474 12.3282 17.0991 11.1233 17.2518 9.72574C17.2839 9.43201 17.0837 9.17114 16.8237 9.17114L0.431438 9.17119C0.17162 9.17119 -0.0287114 9.43186 0.00338304 9.72579C0.156133 11.1233 0.80777 12.3282 1.7376 13.1185H0.431481C0.171663 13.1185 -0.0286682 13.3792 0.00342617 13.6731C0.156176 15.0707 0.807813 16.2756 1.73764 17.0659H0.431481C0.171663 17.0659 -0.0286682 17.3265 0.00342617 17.6205C0.276272 20.1172 2.1409 22 4.3407 22H12.9146C15.1144 22 16.979 20.1172 17.2518 17.6204C17.2839 17.3267 17.0837 17.0658 16.8238 17.0658H15.5177C16.4474 16.2755 17.0991 15.0706 17.2518 13.6731ZM0.955085 10.158L16.3001 10.158C15.8912 11.8797 14.5131 13.1185 12.9146 13.1185H4.3407C2.7421 13.1185 1.36407 11.8797 0.955085 10.158ZM12.9146 21.0132H4.3407C2.7421 21.0132 1.36407 19.7744 0.955128 18.0527L16.3002 18.0527C15.8912 19.7743 14.5131 21.0132 12.9146 21.0132ZM0.955085 14.1053L16.3001 14.1054C15.8912 15.827 14.5131 17.0658 12.9146 17.0658H4.3407C2.7421 17.0658 1.36407 15.827 0.955085 14.1053Z" fill="#484769" style="fill:#484769;fill:color(display-p3 0.2824 0.2784 0.4118);fill-opacity:1;"/>
</svg>
