<svg width="22" height="22" viewBox="0 0 22 22" fill="none" xmlns="http://www.w3.org/2000/svg">
<path d="M21.2787 6.90196H9.86545L8.60416 5.01626C8.4946 4.85247 8.22937 4.7451 7.93443 4.7451H0.721311C0.322931 4.7451 0 4.93827 0 5.17647C0 5.41468 0.322931 5.60785 0.721311 5.60785H7.44603L8.3116 6.90196H0.721311C0.322931 6.90196 0 7.09509 0 7.33334C0 7.57158 0.322931 7.76471 0.721311 7.76471H8.3116L7.44603 9.05883H0.721311C0.322931 9.05883 0 9.25195 0 9.4902C0 9.72845 0.322931 9.92157 0.721311 9.92157H7.93443C8.22937 9.92157 8.49467 9.8142 8.60416 9.65041L9.86545 7.76471H21.2787C21.677 7.76471 22 7.57158 22 7.33334C22 7.09509 21.677 6.90196 21.2787 6.90196Z" fill="#484769" style="fill:#484769;fill:color(display-p3 0.2824 0.2784 0.4118);fill-opacity:1;"/>
<path d="M14.0655 4.7451H18.3934C18.7917 4.7451 19.1147 4.55193 19.1147 4.31373V2.15687C19.1147 1.91866 18.7917 1.72549 18.3934 1.72549H14.0655C13.6672 1.72549 13.3442 1.91866 13.3442 2.15687V4.31373C13.3442 4.55193 13.6672 4.7451 14.0655 4.7451ZM14.7869 2.58824H17.6721V3.88236H14.7869V2.58824Z" fill="#484769" style="fill:#484769;fill:color(display-p3 0.2824 0.2784 0.4118);fill-opacity:1;"/>
<path d="M21.2787 0H0.721311C0.322931 0 0 0.193126 0 0.431373V19.8431C0 20.0813 0.322931 20.2745 0.721311 20.2745H2.16393V21.5686C2.16393 21.8068 2.48687 22 2.88525 22H5.77049C6.1015 22 6.39003 21.8653 6.47024 21.6733L7.055 20.2745H14.9451L15.5298 21.6733C15.61 21.8653 15.8985 22 16.2295 22H19.1148C19.5131 22 19.8361 21.8068 19.8361 21.5686V20.2745H21.2787C21.677 20.2745 22 20.0813 22 19.8431V0.431373C22 0.193126 21.677 0 21.2787 0ZM20.5574 0.862745V17.2549H1.44262V0.862745H20.5574ZM5.20729 21.1373H3.60656V20.2745H5.56795L5.20729 21.1373ZM18.3934 21.1373H16.7927L16.4321 20.2745H18.3934V21.1373ZM1.44262 19.4118V18.1176H20.5574V19.4118C14.714 19.4118 7.29837 19.4118 1.44262 19.4118Z" fill="#484769" style="fill:#484769;fill:color(display-p3 0.2824 0.2784 0.4118);fill-opacity:1;"/>
</svg>
