<svg width="23" height="22" viewBox="0 0 23 22" fill="none" xmlns="http://www.w3.org/2000/svg">
<path fill-rule="evenodd" clip-rule="evenodd" d="M18.7891 0C19.3681 0 19.8759 0.272859 20.2285 0.691406C20.5744 1.10201 20.7851 1.65275 20.7852 2.25391C20.785 2.92882 20.5063 3.5755 20.0449 4.00098C20.1085 4.05892 20.1695 4.11998 20.2256 4.18555L20.2285 4.18848C20.5744 4.59909 20.7851 5.14979 20.7852 5.75098C20.7851 6.40083 20.5268 7.02488 20.0957 7.4502C21.2662 8.12574 22.0399 9.48411 22.04 10.9961C22.04 12.0796 21.6492 13.0758 21.0029 13.8037L21.002 13.8047C20.8585 13.965 20.701 14.1114 20.5342 14.2441C20.7361 14.36 20.918 14.5098 21.0693 14.6895C21.4152 15.1 21.6259 15.6509 21.626 16.252C21.6258 16.9266 21.3469 17.5735 20.8857 17.999C20.9493 18.057 21.0103 18.118 21.0664 18.1836L21.0693 18.1865C21.4152 18.5971 21.6259 19.148 21.626 19.749C21.6258 20.9127 20.8006 21.9968 19.6299 21.9971H4.33203C2.33244 21.9968 0.84082 20.1326 0.84082 18C0.840944 16.9217 1.2162 15.9289 1.83398 15.2012L1.83496 15.2002C1.90861 15.1141 1.98588 15.0317 2.06641 14.9531C1.64726 14.8613 1.2785 14.6325 0.999023 14.3154C0.638062 13.9059 0.414142 13.3529 0.414062 12.7451C0.414141 12.0623 0.704981 11.42 1.17773 10.998C1.11453 10.9424 1.05335 10.8842 0.99707 10.8213L0.250977 9.9873H0.53125C0.456753 9.75522 0.414108 9.50688 0.414062 9.24805C0.414157 8.42838 0.831118 7.6661 1.48145 7.27441C0.57189 6.5384 0 5.32184 0 4.00195C3.67463e-05 2.92352 0.375306 1.93095 0.993164 1.20312L0.994141 1.20215C1.61778 0.47315 2.49622 0.000130745 3.49121 0H18.7891ZM4.33203 14.998C3.67084 14.9982 3.05728 15.3092 2.5957 15.8477C2.13637 16.3887 1.84094 17.1509 1.84082 18C1.84082 19.7324 3.02546 20.9968 4.33203 20.9971H19.6299C20.1077 20.9967 20.6258 20.5124 20.626 19.749C20.6259 19.3832 20.4979 19.0624 20.3066 18.834L20.2344 18.7568C20.0604 18.589 19.8493 18.5004 19.6309 18.5V18.501H11.6504V17.501H19.6299V17.5C20.1077 17.4997 20.6258 17.0153 20.626 16.252C20.6259 15.8848 20.4972 15.5626 20.3047 15.334C20.1188 15.1133 19.8794 14.9982 19.6299 14.998H4.33203ZM2.47168 7.99902C1.94278 7.99924 1.41419 8.50502 1.41406 9.24805C1.41417 9.60868 1.54661 9.92757 1.74902 10.1572L1.78125 10.1943C1.97249 10.3883 2.21466 10.496 2.47168 10.4961V10.9756L2.47656 10.9814V10.4961H10.7969V11.4961H2.47656V10.9873H2.47168V11.4961C1.94278 11.4963 1.41419 12.0021 1.41406 12.7451C1.41414 13.1058 1.54659 13.4246 1.74902 13.6543C1.94499 13.8766 2.2025 13.998 2.47656 13.998H18.4209C19.1275 13.9978 19.7715 13.6791 20.2559 13.1377C20.7355 12.5967 21.04 11.8393 21.04 10.9961C21.0399 9.28505 19.8159 7.9996 18.4209 7.99902H2.47168ZM3.49121 1C2.82983 1.00013 2.2165 1.31083 1.75488 1.84961C1.29548 2.39077 1.00004 3.1527 1 4.00195C1 5.73436 2.18464 6.99876 3.49121 6.99902H18.7891C19.267 6.99902 19.785 6.51461 19.7852 5.75098C19.7851 5.38504 19.6572 5.06447 19.4658 4.83594L19.3936 4.75879C19.2411 4.61169 19.0605 4.52518 18.8711 4.50586L18.7891 4.50195H10.8086V3.50195H18.7891C19.267 3.50195 19.7849 3.01748 19.7852 2.25391C19.7851 1.88657 19.6564 1.56464 19.4639 1.33594C19.2779 1.11517 19.0387 1 18.7891 1H3.49121Z" fill="#484769" style="fill:#484769;fill:color(display-p3 0.2824 0.2784 0.4118);fill-opacity:1;"/>
</svg>
