<svg width="22" height="22" viewBox="0 0 22 22" fill="none" xmlns="http://www.w3.org/2000/svg">
<path d="M16.8233 8.19608H12.7433C11.8932 7.39424 10.7481 6.90196 9.49012 6.90196C6.87372 6.90196 4.74512 9.03061 4.74512 11.6471C4.74512 14.2635 6.87372 16.3922 9.49012 16.3922C11.1887 16.3922 12.6815 15.4948 13.5199 14.1494C13.6135 14.1722 13.7082 14.1906 13.8038 14.2044V15.9608C13.8038 16.199 13.9969 16.3922 14.2351 16.3922C14.4733 16.3922 14.6665 16.199 14.6665 15.9608V14.204C16.1278 13.9939 17.2547 12.7342 17.2547 11.2157V8.62745C17.2547 8.38921 17.0615 8.19608 16.8233 8.19608ZM9.49012 15.5294C7.34943 15.5294 5.60784 13.7878 5.60784 11.6471C5.60784 9.50633 7.34943 7.76471 9.49012 7.76471C11.6308 7.76471 13.3724 9.50633 13.3724 11.6471C13.3724 13.7878 11.6308 15.5294 9.49012 15.5294ZM16.3919 11.2157C16.3919 12.5233 15.2295 13.5413 13.9192 13.3493C14.4558 11.9575 14.3125 10.3559 13.4651 9.05883H16.3919V11.2157Z" fill="#484769" style="fill:#484769;fill:color(display-p3 0.2824 0.2784 0.4118);fill-opacity:1;"/>
<path d="M9.49025 8.62744C7.82527 8.62744 6.4707 9.98204 6.4707 11.647C6.4707 13.3121 7.82527 14.6667 9.49025 14.6667C11.1552 14.6667 12.5098 13.3121 12.5098 11.647C12.5098 9.98204 11.1552 8.62744 9.49025 8.62744ZM9.49025 13.8039C8.30098 13.8039 7.33343 12.8363 7.33343 11.647C7.33343 10.4578 8.30098 9.49019 9.49025 9.49019C10.6795 9.49019 11.6471 10.4578 11.6471 11.647C11.6471 12.8363 10.6795 13.8039 9.49025 13.8039Z" fill="#484769" style="fill:#484769;fill:color(display-p3 0.2824 0.2784 0.4118);fill-opacity:1;"/>
<path d="M20.7057 15.5294V0.431373C20.7057 0.193126 20.5125 0 20.2743 0H1.72567C1.48747 0 1.29431 0.193126 1.29431 0.431373V15.5294C0.451898 15.5297 -0.164823 16.3212 0.0392987 17.1374C0.237165 17.929 0.688717 18.6017 1.29431 19.0785V21.5686C1.29431 21.8068 1.48747 22 1.72567 22H20.2743C20.5125 22 20.7057 21.8068 20.7057 21.5686V19.0786C21.3113 18.6018 21.7628 17.929 21.9607 17.1374C22.1651 16.3199 21.5468 15.5297 20.7057 15.5294ZM2.15704 0.862745H19.8429V15.5294H18.9802V2.15686C18.9802 1.91862 18.7871 1.72549 18.5489 1.72549C18.3628 1.72549 4.40026 1.72549 3.45113 1.72549C3.21293 1.72549 3.01976 1.91862 3.01976 2.15686V15.5294H2.15704V0.862745ZM14.6666 4.31373C14.9044 4.31373 15.0979 4.50724 15.0979 4.7451C15.0979 4.98296 14.9044 5.17647 14.6666 5.17647H7.3334C7.09554 5.17647 6.90204 4.98296 6.90204 4.7451C6.90204 4.50724 7.09554 4.31373 7.3334 4.31373C7.72503 4.31373 14.2563 4.31373 14.6666 4.31373ZM11.647 3.45098H10.3529V2.58824H11.647V3.45098ZM9.49022 3.45098H7.3334C6.61984 3.45098 6.03931 4.03152 6.03931 4.7451C6.03931 5.45867 6.61984 6.03922 7.3334 6.03922H14.6666C15.3801 6.03922 15.9607 5.45867 15.9607 4.7451C15.9607 4.03152 15.3801 3.45098 14.6666 3.45098H12.5098V2.58824H18.1175V15.5294H3.88249V2.58824H9.49022V3.45098ZM19.8429 21.1373H2.15704V19.5799C2.57524 19.75 3.03081 19.8431 3.50466 19.8431H18.4953C18.9692 19.8431 19.4247 19.75 19.8429 19.5799V21.1373ZM21.1237 16.9282C20.8213 18.1377 19.7372 18.9804 18.4953 18.9804H3.50466C2.25103 18.9804 1.17547 18.1251 0.87623 16.9281C0.808118 16.6556 1.01422 16.3922 1.2947 16.3922C2.27959 16.3922 19.6212 16.3922 20.7052 16.3922C20.9862 16.3922 21.1917 16.6561 21.1237 16.9282Z" fill="#484769" style="fill:#484769;fill:color(display-p3 0.2824 0.2784 0.4118);fill-opacity:1;"/>
</svg>
