<svg width="23" height="23" viewBox="0 0 23 23" fill="none" xmlns="http://www.w3.org/2000/svg">
<path d="M10.7998 0C11.0313 0.000955665 11.2448 0.0611018 11.4375 0.163086C11.6177 0.0616393 11.8208 6.78388e-05 12.043 0H18.0723C18.736 0.000527566 19.2363 0.471745 19.541 1.02344C19.8561 1.58387 20.0371 2.32717 20.0371 3.11719V5.76562H20.2412V5.28906H22.2412V9.08398H20.2412V7.76562H20.0371V9.96973C20.0371 10.8153 19.8462 11.6051 19.5127 12.2002C19.188 12.7794 18.661 13.2752 17.9658 13.2754H17.1045V18.3867C17.1045 19.3304 16.9321 20.2114 16.6318 20.875C16.3522 21.4927 15.8625 22.1167 15.1396 22.1172H12.043C11.3199 22.117 10.8305 21.4927 10.5508 20.875C10.2505 20.2114 10.0781 19.3304 10.0781 18.3867V13.2754H9.83203V18.3818C9.83199 19.3282 9.65915 20.2091 9.3584 20.8721C9.07823 21.4895 8.58846 22.1111 7.86719 22.1113H4.77051C4.04743 22.1111 3.558 21.4879 3.27832 20.8701C2.97794 20.2066 2.8057 19.3256 2.80566 18.3818V8.18652H2V9.08398H0V5.28906H2V6.18652H2.80566V3.73047C2.80566 2.78383 2.97843 1.90234 3.2793 1.23926C3.55947 0.621838 4.04923 0.000212837 4.77051 0H10.7998ZM12.043 1C11.997 1.0001 11.917 1.01815 11.8037 1.13184L11.7979 1.1377C11.6904 1.24255 11.5773 1.40662 11.4736 1.62891C11.4321 1.71787 11.3922 1.81622 11.3545 1.92383C11.3356 1.97779 11.3175 2.03414 11.2998 2.09277C11.1791 2.49409 11.099 2.97584 11.0811 3.50195C11.0785 3.57725 11.0781 3.65347 11.0781 3.73047V18.3867C11.0781 19.2218 11.2326 19.9562 11.4619 20.4629C11.7116 21.0144 11.9547 21.1169 12.043 21.1172H15.1396C15.2283 21.1165 15.4714 21.0135 15.7207 20.4629C15.95 19.9562 16.1045 19.2217 16.1045 18.3867V13.2754H16.1035V3.11719C16.1036 2.32536 16.2821 1.58375 16.5967 1.02246C16.601 1.01482 16.606 1.00761 16.6104 1H12.043ZM4.77051 1C4.6831 1.00029 4.44029 1.10183 4.19043 1.65234C3.96087 2.15823 3.80566 2.89278 3.80566 3.73047V18.3818C3.8057 19.2168 3.96011 19.9514 4.18945 20.458C4.43911 21.0093 4.68224 21.111 4.77051 21.1113H7.86719C7.9546 21.111 8.19738 21.0097 8.44727 20.459C8.67677 19.9532 8.83199 19.2193 8.83203 18.3818V13.2754H8.8291V3.11719C8.82914 2.32521 9.00807 1.58365 9.32227 1.02246C9.32653 1.01485 9.3316 1.00758 9.33594 1H4.77051ZM9.83203 12.2754H10.0771V7.76562H9.83203V12.2754ZM17.1045 12.2754H17.9658C18.1386 12.2752 18.397 12.1456 18.6406 11.7109C18.8755 11.2916 19.0371 10.6773 19.0371 9.96973V7.76562H17.1045V12.2754ZM10.6533 1.03223C10.5206 1.08792 10.357 1.22508 10.1973 1.51074C9.9815 1.89655 9.83207 2.46334 9.83203 3.11719V5.76562H10.0771V3.73047C10.0771 3.02898 10.1726 2.36702 10.3418 1.80469C10.4247 1.52914 10.5279 1.26668 10.6533 1.03223ZM18.0713 1C17.9272 1.00033 17.6955 1.11012 17.4707 1.51074C17.2544 1.89656 17.1045 2.46369 17.1045 3.11719V5.76562H19.0371V3.11719C19.0371 2.46709 18.8856 1.89905 18.6689 1.51367L18.667 1.50977C18.4454 1.10698 18.2139 1.00007 18.0713 1Z" fill="#484769" style="fill:#484769;fill:color(display-p3 0.2824 0.2784 0.4118);fill-opacity:1;"/>
</svg>
