<svg width="22" height="22" viewBox="0 0 22 22" fill="none" xmlns="http://www.w3.org/2000/svg">
<path d="M12.2695 0C16.6609 4.1667e-05 18.6152 0.914268 18.6152 2.96191C18.6159 3.33379 18.5186 3.69924 18.333 4.02148C18.1473 4.34386 17.8798 4.61183 17.5576 4.79785C17.6961 5.0058 17.7702 5.25014 17.7695 5.5V7.61523H20.3076C20.7564 7.61523 21.1865 7.79401 21.5039 8.11133C21.8213 8.42868 22 8.85882 22 9.30762V22H0V9.30762C1.99198e-05 8.85882 0.178742 8.42868 0.496094 8.11133C0.813456 7.79401 1.24359 7.61523 1.69238 7.61523H4.23047V5.5C4.22982 5.25014 4.30386 5.0058 4.44238 4.79785C4.12019 4.61183 3.85269 4.34386 3.66699 4.02148C3.48138 3.69924 3.3841 3.33379 3.38477 2.96191C3.38477 0.914268 5.33914 4.16995e-05 9.73047 0H12.2695ZM1.69238 8.46191C1.468 8.46191 1.25243 8.55035 1.09375 8.70898C0.935083 8.86765 0.845723 9.08323 0.845703 9.30762V21.1543H21.1543V9.30762C21.1543 9.08323 21.0649 8.86765 20.9062 8.70898C20.7476 8.55035 20.532 8.46191 20.3076 8.46191H1.69238ZM15.4072 10.1543V12.6924H15.8125C16.135 12.6924 16.4438 12.8265 16.6719 13.0645C16.9 13.3025 17.0283 13.6253 17.0283 13.9619C17.0282 14.2984 16.8999 14.6214 16.6719 14.8594C16.4439 15.0971 16.1348 15.2304 15.8125 15.2305H15.4072V20.3076H14.5957V15.2305H14.1904C13.8679 15.2305 13.5582 15.0974 13.3301 14.8594C13.1021 14.6214 12.9747 14.2984 12.9746 13.9619C12.9746 13.6255 13.1022 13.3024 13.3301 13.0645C13.5582 12.8264 13.8678 12.6924 14.1904 12.6924H14.5957V10.1543H15.4072ZM14.1904 13.5381C14.0829 13.5381 13.9793 13.5828 13.9033 13.6621C13.8273 13.7414 13.7852 13.8497 13.7852 13.9619C13.7852 14.0739 13.8275 14.1815 13.9033 14.2607C13.9793 14.3401 14.0829 14.3848 14.1904 14.3848H15.8125C15.9199 14.3847 16.0227 14.3399 16.0986 14.2607C16.1746 14.1815 16.2177 14.074 16.2178 13.9619C16.2178 13.8497 16.1747 13.7415 16.0986 13.6621C16.0227 13.583 15.9198 13.5382 15.8125 13.5381H14.1904ZM9.73047 0.845703C4.23076 0.845759 4.01953 2.38654 4.01953 2.96191C4.01991 3.66405 5.07715 4.23047 5.07715 4.23047V7.61523H16.9229V5.5C16.9229 5.2631 16.9231 5.07718 16.0771 5.07715V4.23047C16.2579 4.24545 16.4398 4.22477 16.6123 4.16895C16.7848 4.11312 16.9443 4.02328 17.082 3.90527C17.2197 3.78724 17.3335 3.64344 17.415 3.48145C17.4966 3.31953 17.5448 3.14274 17.5576 2.96191C17.5576 2.38654 17.7692 0.845759 12.2695 0.845703H9.73047Z" fill="#484769" style="fill:#484769;fill:color(display-p3 0.2824 0.2784 0.4118);fill-opacity:1;"/>
</svg>
