<svg width="25" height="25" viewBox="0 0 25 25" fill="none" xmlns="http://www.w3.org/2000/svg">
<g clip-path="url(#clip0_237_7)">
<path d="M9.58333 0C9.03833 0 9.04166 0.833333 9.58333 0.833333H15.285C15.885 0.833333 15.8933 1.17333 15.7467 1.475L12.5467 7.725C12.4033 8.00333 12.605 8.33333 12.9167 8.33333H18.81C18.935 8.33333 19.0792 8.41083 19.135 8.54C19.1933 8.66917 19.2142 8.90917 18.895 9.33167L8.60833 22.975L9.99499 14.6517C10.0367 14.3975 9.84083 14.1658 9.58333 14.1667H6.28333C5.81916 14.1667 5.78333 14.03 5.86249 13.3883L7.49583 1.305C7.57083 0.755 6.74333 0.643333 6.67083 1.195L5.03583 13.2783C4.97333 13.7417 4.98583 14.1517 5.20499 14.495C5.42499 14.8392 5.84499 15 6.28249 15H9.08916L7.50499 24.515C7.43333 24.945 7.98666 25.1817 8.24833 24.8342L19.5608 9.83417C19.9975 9.25583 20.0967 8.6625 19.8992 8.20917C19.6992 7.75583 19.2575 7.50083 18.8092 7.50083H13.5975L16.4867 1.85917C16.6433 1.5525 16.75 1.14583 16.5867 0.725833C16.4225 0.3025 15.9333 0 15.2833 0H9.58333Z" fill="#484769" style="fill:#484769;fill:color(display-p3 0.2824 0.2784 0.4118);fill-opacity:1;"/>
</g>
<defs>
<clipPath id="clip0_237_7">
<rect width="25" height="25" fill="white" style="fill:white;fill-opacity:1;"/>
</clipPath>
</defs>
</svg>
