<svg width="22" height="22" viewBox="0 0 22 22" fill="none" xmlns="http://www.w3.org/2000/svg">
<path d="M11.0989 22C12.2784 22 13.2345 20.7285 13.2345 19.16C13.2345 17.5915 12.2784 16.3199 11.0989 16.3199C9.9195 16.3199 8.96338 17.5915 8.96338 19.16C8.96338 20.7285 9.9195 22 11.0989 22Z" fill="#484769" style="fill:#484769;fill:color(display-p3 0.2824 0.2784 0.4118);fill-opacity:1;"/>
<path d="M11.0322 11.6409C9.06964 11.6409 7.24085 12.8117 6.01468 14.8538C5.81696 15.1831 5.85714 15.6632 6.10478 15.9265C6.21038 16.0391 6.33693 16.0936 6.46262 16.0936C6.63107 16.0936 6.79808 15.9952 6.91114 15.8067C7.91865 14.1294 9.42031 13.1678 11.0319 13.1678C12.6386 13.1678 14.1373 14.1241 15.144 15.7914C15.3426 16.1204 15.7038 16.1726 15.9509 15.9089C16.198 15.6452 16.2376 15.1648 16.0393 14.8358C14.8134 12.8052 12.9884 11.6409 11.0322 11.6409Z" fill="#484769" style="fill:#484769;fill:color(display-p3 0.2824 0.2784 0.4118);fill-opacity:1;"/>
<path d="M10.9208 5.38078H10.9197C7.81622 5.38078 4.92339 7.3923 2.98441 10.6208C2.78669 10.9501 2.82686 11.5512 3.07451 11.8145C3.18011 11.9271 3.30695 11.9992 3.43235 11.9992C3.60079 11.9992 3.7678 11.7527 3.88087 11.5642C5.60147 8.70011 8.16717 6.90726 10.92 6.90726H10.9208C13.665 6.90726 16.2256 8.6776 17.9453 11.5264C18.1439 11.8553 18.5052 12.008 18.7522 11.7431C18.9993 11.4794 19.0389 10.9024 18.8406 10.5739C16.9016 7.36177 14.0151 5.38078 10.9208 5.38078Z" fill="#484769" style="fill:#484769;fill:color(display-p3 0.2824 0.2784 0.4118);fill-opacity:1;"/>
<path d="M11.0105 0C6.75458 0.00152648 2.78709 2.54235 0.125541 6.97105C-0.0721738 7.30039 -0.0319995 7.78085 0.215359 8.04416C0.321247 8.15674 0.447796 8.21131 0.573484 8.21131C0.741929 8.21131 0.908652 8.11324 1.022 7.92472C3.4646 3.86047 7.10496 1.52839 11.0105 1.52686C14.9042 1.52686 18.5374 3.8452 20.9786 7.8877C21.1774 8.21665 21.5381 8.26856 21.7855 8.00524C22.0326 7.74154 22.0722 7.26108 21.8739 6.93212C19.2138 2.52671 15.2546 0 11.0105 0Z" fill="#484769" style="fill:#484769;fill:color(display-p3 0.2824 0.2784 0.4118);fill-opacity:1;"/>
</svg>
