<svg width="16" height="17" viewBox="0 0 16 17" fill="none" xmlns="http://www.w3.org/2000/svg">
<g clip-path="url(#clip0_80_39)">
<path d="M14.9342 15.735C13.5061 15.735 12.0811 15.735 10.6529 15.735C10.6498 15.735 10.6467 15.735 10.6436 15.735C10.7217 15.818 10.7998 15.901 10.8779 15.984C10.8779 14.8717 10.8779 13.7594 10.8779 12.6471C10.8779 10.5155 10.8779 8.38381 10.8779 6.25217C10.8779 4.91409 10.8779 3.57268 10.8779 2.23459C10.8779 2.21467 10.8779 2.19143 10.8779 2.17151C10.7998 2.25452 10.7217 2.33752 10.6436 2.42053C12.0717 2.42053 13.4967 2.42053 14.9248 2.42053C14.9279 2.42053 14.9311 2.42053 14.9342 2.42053C14.8561 2.33752 14.7779 2.25452 14.6998 2.17151C14.6998 3.28381 14.6998 4.39612 14.6998 5.50842C14.6998 7.64006 14.6998 9.7717 14.6998 11.9033C14.6998 13.2414 14.6998 14.5828 14.6998 15.9209C14.6998 15.9408 14.6998 15.9641 14.6998 15.984C14.6998 16.3061 15.1686 16.3061 15.1686 15.984C15.1686 14.8717 15.1686 13.7594 15.1686 12.6471C15.1686 10.5155 15.1686 8.38381 15.1686 6.25217C15.1686 4.91409 15.1686 3.57268 15.1686 2.23459C15.1686 2.21467 15.1686 2.19143 15.1686 2.17151C15.1686 2.03538 15.0623 1.92249 14.9342 1.92249C13.5061 1.92249 12.0811 1.92249 10.6529 1.92249C10.6498 1.92249 10.6467 1.92249 10.6436 1.92249C10.5154 1.92249 10.4092 2.03538 10.4092 2.17151C10.4092 3.28381 10.4092 4.39612 10.4092 5.50842C10.4092 7.64006 10.4092 9.7717 10.4092 11.9033C10.4092 13.2414 10.4092 14.5828 10.4092 15.9209C10.4092 15.9408 10.4092 15.9641 10.4092 15.984C10.4092 16.1201 10.5154 16.233 10.6436 16.233C12.0717 16.233 13.4967 16.233 14.9248 16.233C14.9279 16.233 14.9311 16.233 14.9342 16.233C15.2342 16.233 15.2342 15.735 14.9342 15.735Z" fill="#484769" style="fill:#484769;fill:color(display-p3 0.2824 0.2784 0.4118);fill-opacity:1;"/>
<path d="M10.6404 15.735C9.35605 15.735 8.06855 15.735 6.78418 15.735C5.02793 15.735 3.26855 15.735 1.5123 15.735C1.3623 15.735 1.21543 15.735 1.06543 15.735C1.14355 15.818 1.22168 15.901 1.2998 15.984C1.2998 14.8717 1.2998 13.7594 1.2998 12.6471C1.2998 10.5155 1.2998 8.38381 1.2998 6.25217C1.2998 4.91409 1.2998 3.57268 1.2998 2.23459C1.2998 2.21467 1.2998 2.19143 1.2998 2.17151C1.22168 2.25452 1.14355 2.33752 1.06543 2.42053C2.3498 2.42053 3.6373 2.42053 4.92168 2.42053C6.67793 2.42053 8.4373 2.42053 10.1936 2.42053C10.3436 2.42053 10.4904 2.42053 10.6404 2.42053C10.5623 2.33752 10.4842 2.25452 10.4061 2.17151C10.4061 3.28381 10.4061 4.39612 10.4061 5.50842C10.4061 7.64006 10.4061 9.7717 10.4061 11.9033C10.4061 13.2414 10.4061 14.5828 10.4061 15.9209C10.4061 15.9408 10.4061 15.9641 10.4061 15.984C10.4061 16.3061 10.8748 16.3061 10.8748 15.984C10.8748 14.8717 10.8748 13.7594 10.8748 12.6471C10.8748 10.5155 10.8748 8.38381 10.8748 6.25217C10.8748 4.91409 10.8748 3.57268 10.8748 2.23459C10.8748 2.21467 10.8748 2.19143 10.8748 2.17151C10.8748 2.03538 10.7686 1.92249 10.6404 1.92249C9.35605 1.92249 8.06855 1.92249 6.78418 1.92249C5.02793 1.92249 3.26855 1.92249 1.5123 1.92249C1.3623 1.92249 1.21543 1.92249 1.06543 1.92249C0.937305 1.92249 0.831055 2.03538 0.831055 2.17151C0.831055 3.28381 0.831055 4.39612 0.831055 5.50842C0.831055 7.64006 0.831055 9.7717 0.831055 11.9033C0.831055 13.2414 0.831055 14.5828 0.831055 15.9209C0.831055 15.9408 0.831055 15.9641 0.831055 15.984C0.831055 16.1201 0.937305 16.233 1.06543 16.233C2.3498 16.233 3.6373 16.233 4.92168 16.233C6.67793 16.233 8.4373 16.233 10.1936 16.233C10.3436 16.233 10.4904 16.233 10.6404 16.233C10.9436 16.233 10.9436 15.735 10.6404 15.735Z" fill="#484769" style="fill:#484769;fill:color(display-p3 0.2824 0.2784 0.4118);fill-opacity:1;"/>
<path d="M15.3499 1.92244C14.3937 1.92244 13.4374 1.92244 12.478 1.92244C10.4999 1.92244 8.51865 1.92244 6.54053 1.92244C4.8749 1.92244 3.20928 1.92244 1.54365 1.92244C1.24678 1.92244 0.946777 1.92244 0.649902 1.92244C0.728027 2.00544 0.806152 2.08845 0.884277 2.17146C0.884277 1.7863 0.884277 1.40115 0.884277 1.01599C0.806152 1.099 0.728027 1.18201 0.649902 1.26501C1.60615 1.26501 2.5624 1.26501 3.52178 1.26501C5.4999 1.26501 7.48115 1.26501 9.45928 1.26501C11.1249 1.26501 12.7905 1.26501 14.4562 1.26501C14.753 1.26501 15.053 1.26501 15.3499 1.26501C15.2718 1.18201 15.1937 1.099 15.1155 1.01599C15.1155 1.40115 15.1155 1.7863 15.1155 2.17146C15.1155 2.49353 15.5843 2.49353 15.5843 2.17146C15.5843 1.7863 15.5843 1.40115 15.5843 1.01599C15.5843 0.879858 15.478 0.766968 15.3499 0.766968C14.3937 0.766968 13.4374 0.766968 12.478 0.766968C10.4999 0.766968 8.51865 0.766968 6.54053 0.766968C4.8749 0.766968 3.20928 0.766968 1.54365 0.766968C1.24678 0.766968 0.946777 0.766968 0.649902 0.766968C0.521777 0.766968 0.415527 0.879858 0.415527 1.01599C0.415527 1.40115 0.415527 1.7863 0.415527 2.17146C0.415527 2.30759 0.521777 2.42048 0.649902 2.42048C1.60615 2.42048 2.5624 2.42048 3.52178 2.42048C5.4999 2.42048 7.48115 2.42048 9.45928 2.42048C11.1249 2.42048 12.7905 2.42048 14.4562 2.42048C14.753 2.42048 15.053 2.42048 15.3499 2.42048C15.6499 2.42048 15.6499 1.92244 15.3499 1.92244Z" fill="#484769" style="fill:#484769;fill:color(display-p3 0.2824 0.2784 0.4118);fill-opacity:1;"/>
<path d="M11.4656 8.49998C11.4656 8.95486 11.4656 9.40642 11.4656 9.8613C11.4656 10.1834 11.9343 10.1834 11.9343 9.8613C11.9343 9.40642 11.9343 8.95486 11.9343 8.49998C11.9343 8.17791 11.4656 8.17791 11.4656 8.49998Z" fill="#484769" style="fill:#484769;fill:color(display-p3 0.2824 0.2784 0.4118);fill-opacity:1;"/>
<path d="M2.82178 15.984C2.82178 14.6459 2.82178 13.3078 2.82178 11.9697C2.82178 10.044 2.82178 8.11818 2.82178 6.1924C2.82178 5.98986 2.82178 5.79064 2.82178 5.5881C2.82178 5.1963 2.95303 4.84103 3.2749 4.62189C3.85303 4.22345 4.66553 4.63185 4.7499 5.35568C4.79365 5.72755 4.75615 6.12267 4.75615 6.49454C4.75615 6.81662 5.2249 6.81662 5.2249 6.49454C5.2249 6.10607 5.25928 5.69767 5.2124 5.30919C5.11865 4.509 4.44678 3.9213 3.69053 3.96779C2.94365 4.01759 2.35303 4.7049 2.35303 5.49513C2.35303 5.62794 2.35303 5.76076 2.35303 5.89357C2.35303 7.7131 2.35303 9.53263 2.35303 11.3488C2.35303 12.8795 2.35303 14.4069 2.35303 15.9375C2.35303 15.9541 2.35303 15.9707 2.35303 15.9873C2.35303 16.3061 2.82178 16.3061 2.82178 15.984Z" fill="#484769" style="fill:#484769;fill:color(display-p3 0.2824 0.2784 0.4118);fill-opacity:1;"/>
<path d="M5.85291 7.46738C5.26541 7.46738 4.67791 7.46738 4.09041 7.46738C4.16853 7.55039 4.24666 7.6334 4.32478 7.71641C4.32478 7.52051 4.29978 7.30137 4.34666 7.11211C4.42478 6.80332 4.69978 6.74023 4.95603 6.74023C5.21541 6.74023 5.47478 6.77676 5.58416 7.06895C5.65603 7.26152 5.61853 7.51387 5.61853 7.71641C5.61853 8.03848 6.08728 8.03848 6.08728 7.71641C6.08728 7.40098 6.10916 7.09551 5.98103 6.8C5.79978 6.38164 5.38416 6.24219 4.98728 6.24219C4.82478 6.24219 4.66853 6.24219 4.51228 6.29531C4.28728 6.375 4.10291 6.54766 3.98103 6.76016C3.81853 7.0457 3.85603 7.39766 3.85603 7.71641C3.85603 7.85254 3.96228 7.96543 4.09041 7.96543C4.67791 7.96543 5.26541 7.96543 5.85291 7.96543C6.15603 7.96543 6.15603 7.46738 5.85291 7.46738Z" fill="#484769" style="fill:#484769;fill:color(display-p3 0.2824 0.2784 0.4118);fill-opacity:1;"/>
</g>
<defs>
<clipPath id="clip0_80_39">
<rect width="16" height="17" fill="white" style="fill:white;fill-opacity:1;"/>
</clipPath>
</defs>
</svg>
