<svg width="20" height="14" viewBox="0 0 20 14" fill="none" xmlns="http://www.w3.org/2000/svg">
<path d="M17.6562 0C18.2779 0 18.8739 0.246009 19.3135 0.683594C19.7529 1.1211 19.9999 1.71431 20 2.33301V11.667C19.9999 12.2857 19.7529 12.8789 19.3135 13.3164C18.8739 13.754 18.2779 14 17.6562 14H2.34375C1.72215 14 1.12606 13.754 0.686523 13.3164C0.2471 12.8789 8.64608e-05 12.2857 0 11.667V2.33301C8.65955e-05 1.71432 0.2471 1.1211 0.686523 0.683594C1.12606 0.246009 1.72215 0 2.34375 0H17.6562ZM2.34375 0.933594C1.97079 0.933594 1.61333 1.0812 1.34961 1.34375C1.08601 1.60622 0.937587 1.96185 0.9375 2.33301V11.667C0.937586 12.0381 1.08601 12.3938 1.34961 12.6562C1.61333 12.9188 1.97079 13.0664 2.34375 13.0664H17.6562C18.0292 13.0664 18.3867 12.9188 18.6504 12.6562C18.914 12.3938 19.0624 12.0381 19.0625 11.667V2.33301C19.0624 1.96185 18.914 1.60622 18.6504 1.34375C18.3867 1.0812 18.0292 0.933594 17.6562 0.933594H2.34375ZM2.25781 1.7959C2.31726 1.81159 2.37297 1.83885 2.42188 1.87598L9.83496 7.51953C9.86196 7.53961 9.895 7.55078 9.92871 7.55078C9.96239 7.5507 9.99551 7.53965 10.0225 7.51953L17.583 1.90039C17.6323 1.8638 17.6885 1.83733 17.748 1.82227C17.8076 1.8072 17.8698 1.80374 17.9307 1.8125C17.9916 1.82131 18.0506 1.84265 18.1035 1.87402C18.1563 1.90538 18.2025 1.94701 18.2393 1.99609C18.3121 2.09495 18.343 2.21852 18.3252 2.33984C18.3073 2.46113 18.2418 2.57065 18.1436 2.64453L12.2139 7.05469L18.0361 11.3848C18.0854 11.4214 18.1267 11.4679 18.1582 11.5205C18.1897 11.5732 18.2109 11.6317 18.2197 11.6924C18.2285 11.753 18.2251 11.8147 18.21 11.874C18.1949 11.9333 18.1685 11.9891 18.1318 12.0381C18.095 12.0872 18.048 12.1288 17.9951 12.1602C17.9423 12.1914 17.884 12.2119 17.8232 12.2207C17.7624 12.2295 17.7002 12.2269 17.6406 12.2119C17.5811 12.1969 17.5248 12.1703 17.4756 12.1338L11.4316 7.64355L10.5811 8.27539C10.3903 8.41643 10.1585 8.49192 9.9209 8.49023C9.68356 8.48847 9.45319 8.41013 9.26465 8.2666L8.45508 7.64355L2.48145 12.1338C2.43189 12.1705 2.37532 12.1968 2.31543 12.2119C2.2555 12.227 2.19302 12.2305 2.13184 12.2217C2.07053 12.2128 2.01123 12.1917 1.95801 12.1602C1.90492 12.1287 1.85827 12.0874 1.82129 12.0381C1.78425 11.9887 1.7574 11.9319 1.74219 11.8721C1.72702 11.8124 1.72355 11.7504 1.73242 11.6895C1.74134 11.6285 1.76229 11.5695 1.79395 11.5166C1.82555 11.4638 1.86754 11.4177 1.91699 11.3809L7.68164 7.05566L1.85352 2.61816C1.80459 2.581 1.76334 2.53442 1.73242 2.48145C1.70157 2.42857 1.68108 2.37017 1.67285 2.30957C1.66465 2.24883 1.6688 2.18619 1.68457 2.12695C1.70034 2.06795 1.72747 2.01243 1.76465 1.96387C1.80198 1.91516 1.84914 1.87453 1.90234 1.84375C1.95556 1.81297 2.0142 1.79235 2.0752 1.78418C2.1362 1.77602 2.19831 1.7802 2.25781 1.7959Z" fill="#484769" style="fill:#484769;fill:color(display-p3 0.2824 0.2784 0.4118);fill-opacity:1;"/>
</svg>
