<svg width="18" height="21" viewBox="0 0 18 21" fill="none" xmlns="http://www.w3.org/2000/svg">
<path d="M2.10037 14.7361H1.125V16.6615H2.10037V14.7361Z" stroke="#484769" style="stroke:#484769;stroke:color(display-p3 0.2824 0.2784 0.4118);stroke-opacity:1;" stroke-width="0.7" stroke-miterlimit="2" stroke-linecap="round" stroke-linejoin="round"/>
<path d="M16.875 14.7361H15.8997V16.6615H16.875V14.7361Z" stroke="#484769" style="stroke:#484769;stroke:color(display-p3 0.2824 0.2784 0.4118);stroke-opacity:1;" stroke-width="0.7" stroke-miterlimit="2" stroke-linecap="round" stroke-linejoin="round"/>
<path fill-rule="evenodd" clip-rule="evenodd" d="M1.125 11.1156V13.7235H16.875V11.1156C16.875 10.6359 16.5409 10.2467 16.1297 10.2467H1.87031C1.45913 10.2467 1.125 10.6359 1.125 11.1156Z" stroke="#484769" style="stroke:#484769;stroke:color(display-p3 0.2824 0.2784 0.4118);stroke-opacity:1;" stroke-width="0.7" stroke-miterlimit="2" stroke-linecap="round" stroke-linejoin="round"/>
<path fill-rule="evenodd" clip-rule="evenodd" d="M2.42554 5.81572V10.2467H15.5745V5.81572C15.5745 5.00066 15.2955 4.3385 14.9524 4.3385H3.04766C2.70454 4.3385 2.42554 5.00066 2.42554 5.81572Z" stroke="#484769" style="stroke:#484769;stroke:color(display-p3 0.2824 0.2784 0.4118);stroke-opacity:1;" stroke-width="0.7" stroke-miterlimit="2" stroke-linecap="round" stroke-linejoin="round"/>
<path d="M16.875 13.7235H1.125V14.7361H16.875V13.7235Z" stroke="#484769" style="stroke:#484769;stroke:color(display-p3 0.2824 0.2784 0.4118);stroke-opacity:1;" stroke-width="0.7" stroke-miterlimit="2" stroke-linecap="round" stroke-linejoin="round"/>
<path fill-rule="evenodd" clip-rule="evenodd" d="M8.20298 8.77274C8.20298 8.5017 8.01455 8.28186 7.78223 8.28186H4.1063C3.87398 8.28186 3.68555 8.5017 3.68555 8.77274V9.75514C3.68555 10.0262 3.87398 10.2467 4.1063 10.2467H7.78223C8.01455 10.2467 8.20298 10.0262 8.20298 9.75514V8.77274Z" stroke="#484769" style="stroke:#484769;stroke:color(display-p3 0.2824 0.2784 0.4118);stroke-opacity:1;" stroke-width="0.7" stroke-miterlimit="2" stroke-linecap="round" stroke-linejoin="round"/>
<path fill-rule="evenodd" clip-rule="evenodd" d="M14.3146 8.77274C14.3146 8.5017 14.1261 8.28186 13.8938 8.28186H10.2179C9.98556 8.28186 9.79712 8.5017 9.79712 8.77274V9.75514C9.79712 10.0262 9.98556 10.2467 10.2179 10.2467H13.8938C14.1261 10.2467 14.3146 10.0262 14.3146 9.75514V8.77274Z" stroke="#484769" style="stroke:#484769;stroke:color(display-p3 0.2824 0.2784 0.4118);stroke-opacity:1;" stroke-width="0.7" stroke-miterlimit="2" stroke-linecap="round" stroke-linejoin="round"/>
</svg>
