<svg width="38" height="35" viewBox="0 0 38 35" fill="none" xmlns="http://www.w3.org/2000/svg">
<path fill-rule="evenodd" clip-rule="evenodd" d="M6 27.55C6 27.1654 6.13609 26.7966 6.37832 26.5247C6.62056 26.2528 6.9491 26.1 7.29167 26.1H25.375C25.7176 26.1 26.0461 26.2528 26.2883 26.5247C26.5306 26.7966 26.6667 27.1654 26.6667 27.55C26.6667 27.9346 26.5306 28.3034 26.2883 28.5753C26.0461 28.8472 25.7176 29 25.375 29H7.29167C6.9491 29 6.62056 28.8472 6.37832 28.5753C6.13609 28.3034 6 27.9346 6 27.55ZM6 18.85C6 18.4654 6.13609 18.0966 6.37832 17.8247C6.62056 17.5528 6.9491 17.4 7.29167 17.4H35.7083C36.0509 17.4 36.3794 17.5528 36.6217 17.8247C36.8639 18.0966 37 18.4654 37 18.85C37 19.2346 36.8639 19.6034 36.6217 19.8753C36.3794 20.1472 36.0509 20.3 35.7083 20.3H7.29167C6.9491 20.3 6.62056 20.1472 6.37832 19.8753C6.13609 19.6034 6 19.2346 6 18.85ZM6 10.15C6 9.76544 6.13609 9.39662 6.37832 9.12469C6.62056 8.85277 6.9491 8.7 7.29167 8.7H35.7083C36.0509 8.7 36.3794 8.85277 36.6217 9.12469C36.8639 9.39662 37 9.76544 37 10.15C37 10.5346 36.8639 10.9034 36.6217 11.1753C36.3794 11.4472 36.0509 11.6 35.7083 11.6H7.29167C6.9491 11.6 6.62056 11.4472 6.37832 11.1753C6.13609 10.9034 6 10.5346 6 10.15ZM16.3333 1.45C16.3333 1.06544 16.4694 0.696623 16.7117 0.424695C16.9539 0.152768 17.2824 0 17.625 0H35.7083C36.0509 0 36.3794 0.152768 36.6217 0.424695C36.8639 0.696623 37 1.06544 37 1.45C37 1.83456 36.8639 2.20338 36.6217 2.4753C36.3794 2.74723 36.0509 2.9 35.7083 2.9H17.625C17.2824 2.9 16.9539 2.74723 16.7117 2.4753C16.4694 2.20338 16.3333 1.83456 16.3333 1.45Z" fill="#374564"/>
</svg>
