<svg width="16" height="17" viewBox="0 0 16 17" fill="none" xmlns="http://www.w3.org/2000/svg">
<mask id="path-1-inside-1_102_2" fill="white">
<path d="M13.2465 10.7488C13.786 10.2744 14.1395 9.54302 14.1395 8.73256C14.1395 7.3686 13.0977 6.16279 11.907 6.16279C10.7163 6.16279 9.67442 7.3686 9.67442 8.73256C9.67442 9.54302 10.0279 10.2744 10.5674 10.7488C10.3256 10.8477 10.1023 10.9465 9.87907 11.0849C9.17209 10.1953 8.24186 9.50349 7.16279 9.16744C7.9814 8.55465 8.55814 7.50698 8.55814 6.36047C8.55814 4.56163 7.16279 3 5.5814 3C4 3 2.60465 4.56163 2.60465 6.36047C2.60465 7.50698 3.1814 8.55465 4 9.16744C1.69302 9.89884 0 12.1721 0 14.8605C0 15.0779 0.167442 15.2558 0.372093 15.2558H15.6279C15.8326 15.2558 16 15.0779 16 14.8605C16 12.9628 14.8465 11.3419 13.2465 10.7488ZM10.4186 8.73256C10.4186 7.90233 11.0698 6.95349 11.907 6.95349C12.7442 6.95349 13.3953 7.90233 13.3953 8.73256C13.3953 9.56279 12.7442 10.5116 11.907 10.5116C11.0698 10.5116 10.4186 9.56279 10.4186 8.73256ZM3.34884 6.36047C3.34884 5.15465 4.29767 3.7907 5.5814 3.7907C6.86512 3.7907 7.81395 5.15465 7.81395 6.36047C7.81395 7.56628 6.86512 8.93023 5.5814 8.93023C4.29767 8.93023 3.34884 7.56628 3.34884 6.36047ZM0.762791 14.4651C0.948837 11.8163 3.05116 9.72093 5.5814 9.72093C8.13023 9.72093 10.214 11.8163 10.4 14.4651H0.762791ZM11.1442 14.4651C11.0884 13.4767 10.7907 12.5279 10.307 11.7372C10.7907 11.4605 11.3302 11.3023 11.907 11.3023C13.6372 11.3023 15.0512 12.686 15.2372 14.4651H11.1442Z"/>
</mask>
<path d="M13.2465 10.7488L12.5862 9.99787L11.328 11.1042L12.899 11.6865L13.2465 10.7488ZM10.5674 10.7488L10.9457 11.6745L12.4401 11.0639L11.2278 9.99787L10.5674 10.7488ZM9.87907 11.0849L9.09621 11.7071L9.64972 12.4035L10.4059 11.9349L9.87907 11.0849ZM7.16279 9.16744L6.56352 8.3669L4.99627 9.54011L6.86545 10.1222L7.16279 9.16744ZM4 9.16744L4.30221 10.1207L6.15669 9.53275L4.59927 8.3669L4 9.16744ZM0.762791 14.4651L-0.234752 14.3951L-0.30991 15.4651H0.762791V14.4651ZM10.4 14.4651V15.4651H11.4727L11.3975 14.3951L10.4 14.4651ZM11.1442 14.4651L10.1458 14.5215L10.1991 15.4651H11.1442V14.4651ZM10.307 11.7372L9.81039 10.8692L8.91654 11.3806L9.45394 12.2591L10.307 11.7372ZM15.2372 14.4651V15.4651H16.3472L16.2318 14.3611L15.2372 14.4651ZM13.2465 10.7488L13.9068 11.4998C14.6611 10.8366 15.1395 9.83219 15.1395 8.73256H14.1395H13.1395C13.1395 9.25386 12.911 9.71221 12.5862 9.99787L13.2465 10.7488ZM14.1395 8.73256H15.1395C15.1395 6.95477 13.7789 5.16279 11.907 5.16279V6.16279V7.16279C12.4164 7.16279 13.1395 7.78244 13.1395 8.73256H14.1395ZM11.907 6.16279V5.16279C10.035 5.16279 8.67442 6.95477 8.67442 8.73256H9.67442H10.6744C10.6744 7.78244 11.3975 7.16279 11.907 7.16279V6.16279ZM9.67442 8.73256H8.67442C8.67442 9.83219 9.1529 10.8366 9.90711 11.4998L10.5674 10.7488L11.2278 9.99787C10.9029 9.71221 10.6744 9.25386 10.6744 8.73256H9.67442ZM10.5674 10.7488L10.1892 9.82315C9.93343 9.92765 9.64802 10.0516 9.35226 10.2349L9.87907 11.0849L10.4059 11.9349C10.5566 11.8414 10.7177 11.7677 10.9457 11.6745L10.5674 10.7488ZM9.87907 11.0849L10.6619 10.4627C9.84854 9.43926 8.75715 8.61659 7.46013 8.21267L7.16279 9.16744L6.86545 10.1222C7.72657 10.3904 8.49565 10.9514 9.09621 11.7071L9.87907 11.0849ZM7.16279 9.16744L7.76206 9.96799C8.82231 9.17431 9.55814 7.83505 9.55814 6.36047H8.55814H7.55814C7.55814 7.1789 7.14048 7.935 6.56352 8.3669L7.16279 9.16744ZM8.55814 6.36047H9.55814C9.55814 4.12403 7.82317 2 5.5814 2V3V4C6.50241 4 7.55814 4.99923 7.55814 6.36047H8.55814ZM5.5814 3V2C3.33962 2 1.60465 4.12403 1.60465 6.36047H2.60465H3.60465C3.60465 4.99923 4.66038 4 5.5814 4V3ZM2.60465 6.36047H1.60465C1.60465 7.83505 2.34048 9.17431 3.40073 9.96799L4 9.16744L4.59927 8.3669C4.02231 7.935 3.60465 7.1789 3.60465 6.36047H2.60465ZM4 9.16744L3.69779 8.2142C0.957502 9.08297 -1 11.7552 -1 14.8605H0H1C1 12.589 2.42854 10.7147 4.30221 10.1207L4 9.16744ZM0 14.8605H-1C-1 15.5722 -0.441092 16.2558 0.372093 16.2558V15.2558V14.2558C0.775976 14.2558 1 14.5836 1 14.8605H0ZM0.372093 15.2558V16.2558H15.6279V15.2558V14.2558H0.372093V15.2558ZM15.6279 15.2558V16.2558C16.4411 16.2558 17 15.5722 17 14.8605H16H15C15 14.5836 15.224 14.2558 15.6279 14.2558V15.2558ZM16 14.8605H17C17 12.5604 15.6009 10.555 13.594 9.81117L13.2465 10.7488L12.899 11.6865C14.0921 12.1287 15 13.3652 15 14.8605H16ZM10.4186 8.73256H11.4186C11.4186 8.55964 11.4945 8.32882 11.6357 8.14883C11.7773 7.96827 11.8858 7.95349 11.907 7.95349V6.95349V5.95349C11.0909 5.95349 10.4553 6.41313 10.062 6.91455C9.66827 7.41653 9.4186 8.07524 9.4186 8.73256H10.4186ZM11.907 6.95349V7.95349C11.9281 7.95349 12.0366 7.96827 12.1783 8.14883C12.3194 8.32881 12.3953 8.55964 12.3953 8.73256H13.3953H14.3953C14.3953 8.07524 14.1457 7.41653 13.752 6.91455C13.3587 6.41313 12.723 5.95349 11.907 5.95349V6.95349ZM13.3953 8.73256H12.3953C12.3953 8.90548 12.3194 9.1363 12.1783 9.31629C12.0366 9.49685 11.9281 9.51163 11.907 9.51163V10.5116V11.5116C12.723 11.5116 13.3587 11.052 13.752 10.5506C14.1457 10.0486 14.3953 9.38987 14.3953 8.73256H13.3953ZM11.907 10.5116V9.51163C11.8858 9.51163 11.7773 9.49685 11.6357 9.31629C11.4945 9.1363 11.4186 8.90548 11.4186 8.73256H10.4186H9.4186C9.4186 9.38987 9.66827 10.0486 10.062 10.5506C10.4553 11.052 11.0909 11.5116 11.907 11.5116V10.5116ZM3.34884 6.36047H4.34884C4.34884 6.00214 4.49734 5.57857 4.76126 5.25224C5.02122 4.9308 5.31562 4.7907 5.5814 4.7907V3.7907V2.7907C4.56345 2.7907 3.74157 3.33257 3.20618 3.99457C2.67476 4.65166 2.34884 5.51298 2.34884 6.36047H3.34884ZM5.5814 3.7907V4.7907C5.84717 4.7907 6.14157 4.9308 6.40153 5.25224C6.66545 5.57857 6.81395 6.00214 6.81395 6.36047H7.81395H8.81395C8.81395 5.51298 8.48804 4.65166 7.95661 3.99457C7.42122 3.33257 6.59934 2.7907 5.5814 2.7907V3.7907ZM7.81395 6.36047H6.81395C6.81395 6.71879 6.66545 7.14236 6.40153 7.46869C6.14157 7.79013 5.84717 7.93023 5.5814 7.93023V8.93023V9.93023C6.59934 9.93023 7.42122 9.38836 7.95661 8.72636C8.48804 8.06927 8.81395 7.20795 8.81395 6.36047H7.81395ZM5.5814 8.93023V7.93023C5.31562 7.93023 5.02122 7.79013 4.76126 7.46869C4.49734 7.14236 4.34884 6.71879 4.34884 6.36047H3.34884H2.34884C2.34884 7.20795 2.67476 8.06927 3.20618 8.72636C3.74157 9.38836 4.56345 9.93023 5.5814 9.93023V8.93023ZM0.762791 14.4651L1.76033 14.5352C1.91337 12.3563 3.62855 10.7209 5.5814 10.7209V9.72093V8.72093C2.47378 8.72093 -0.0156948 11.2762 -0.234752 14.3951L0.762791 14.4651ZM5.5814 9.72093V10.7209C7.55047 10.7209 9.24924 12.3538 9.40246 14.5352L10.4 14.4651L11.3975 14.3951C11.1787 11.2788 8.70999 8.72093 5.5814 8.72093V9.72093ZM10.4 14.4651V13.4651H0.762791V14.4651V15.4651H10.4V14.4651ZM11.1442 14.4651L12.1426 14.4087C12.0777 13.2602 11.7322 12.1507 11.16 11.2154L10.307 11.7372L9.45394 12.2591C9.84916 12.9051 10.099 13.6933 10.1458 14.5215L11.1442 14.4651ZM10.307 11.7372L10.8036 12.6052C11.149 12.4076 11.5187 12.3023 11.907 12.3023V11.3023V10.3023C11.1418 10.3023 10.4324 10.5133 9.81039 10.8692L10.307 11.7372ZM11.907 11.3023V12.3023C13.0708 12.3023 14.104 13.2433 14.2426 14.5691L15.2372 14.4651L16.2318 14.3611C15.9983 12.1287 14.2036 10.3023 11.907 10.3023V11.3023ZM15.2372 14.4651V13.4651H11.1442V14.4651V15.4651H15.2372V14.4651Z" fill="#484769" style="fill:#484769;fill:color(display-p3 0.2824 0.2784 0.4118);fill-opacity:1;" mask="url(#path-1-inside-1_102_2)"/>
</svg>
