<svg width="30" height="30" viewBox="0 0 30 30" fill="none" xmlns="http://www.w3.org/2000/svg">
<g filter="url(#filter0_d_1_99)">
<path d="M19.7596 14.5596C21.0591 12.955 21.6412 10.9656 21.3893 8.9893C21.1374 7.01303 20.0702 5.19571 18.4011 3.90089C16.7321 2.60607 14.5843 1.92926 12.3875 2.00586C10.1907 2.08246 8.1068 2.90681 6.55281 4.31401C4.99882 5.7212 4.08931 7.60745 4.00624 9.59539C3.92316 11.5833 4.67265 13.5263 6.10475 15.0357C7.53686 16.5451 9.54596 17.5095 11.7301 17.736C13.9143 17.9625 16.1124 17.4344 17.8848 16.2574H17.8834C17.9228 16.3059 17.9666 16.3525 18.0149 16.397L23.1819 21.0725C23.4335 21.3004 23.7749 21.4285 24.1309 21.4286C24.4869 21.4287 24.8284 21.3008 25.0802 21.0731C25.332 20.8454 25.4736 20.5365 25.4737 20.2143C25.4738 19.8922 25.3325 19.5832 25.0809 19.3553L19.9139 14.6798C19.866 14.6359 19.8144 14.5965 19.7596 14.5596ZM20.1059 9.89142C20.1059 10.7686 19.9149 11.6371 19.544 12.4475C19.173 13.2578 18.6293 13.9941 17.9439 14.6144C17.2585 15.2346 16.4448 15.7266 15.5493 16.0623C14.6537 16.3979 13.6939 16.5707 12.7246 16.5707C11.7552 16.5707 10.7954 16.3979 9.89986 16.0623C9.00432 15.7266 8.19061 15.2346 7.50519 14.6144C6.81978 13.9941 6.27607 13.2578 5.90513 12.4475C5.53418 11.6371 5.34326 10.7686 5.34326 9.89142C5.34326 8.11997 6.12093 6.42108 7.50519 5.16847C8.88946 3.91587 10.7669 3.21216 12.7246 3.21216C14.6822 3.21216 16.5597 3.91587 17.9439 5.16847C19.3282 6.42108 20.1059 8.11997 20.1059 9.89142Z" fill="#6A63A1"/>
</g>
<defs>
<filter id="filter0_d_1_99" x="-1.14282" y="0" width="32" height="32" filterUnits="userSpaceOnUse" color-interpolation-filters="sRGB">
<feFlood flood-opacity="0" result="BackgroundImageFix"/>
<feColorMatrix in="SourceAlpha" type="matrix" values="0 0 0 0 0 0 0 0 0 0 0 0 0 0 0 0 0 0 127 0" result="hardAlpha"/>
<feOffset dy="4"/>
<feGaussianBlur stdDeviation="2"/>
<feComposite in2="hardAlpha" operator="out"/>
<feColorMatrix type="matrix" values="0 0 0 0 0 0 0 0 0 0 0 0 0 0 0 0 0 0 0.25 0"/>
<feBlend mode="normal" in2="BackgroundImageFix" result="effect1_dropShadow_1_99"/>
<feBlend mode="normal" in="SourceGraphic" in2="effect1_dropShadow_1_99" result="shape"/>
</filter>
</defs>
</svg>
