<svg width="24" height="24" viewBox="0 0 24 24" fill="none" xmlns="http://www.w3.org/2000/svg">
<g filter="url(#filter0_i_2034_507)">
<path d="M16.9025 14.5596C18.202 12.955 18.784 10.9656 18.5321 8.9893C18.2803 7.01303 17.213 5.19571 15.544 3.90089C13.8749 2.60607 11.7272 1.92926 9.53034 2.00586C7.33351 2.08246 5.24965 2.90681 3.69566 4.31401C2.14168 5.7212 1.23216 7.60745 1.14909 9.59539C1.06601 11.5833 1.8155 13.5263 3.2476 15.0357C4.67971 16.5451 6.68882 17.5095 8.87298 17.736C11.0571 17.9625 13.2553 17.4344 15.0276 16.2574H15.0263C15.0656 16.3059 15.1095 16.3525 15.1578 16.397L20.3247 21.0725C20.5763 21.3004 20.9177 21.4285 21.2737 21.4286C21.6297 21.4287 21.9712 21.3008 22.223 21.0731C22.4749 20.8454 22.6164 20.5365 22.6165 20.2143C22.6167 19.8922 22.4754 19.5832 22.2237 19.3553L17.0568 14.6798C17.0088 14.6359 16.9572 14.5965 16.9025 14.5596ZM17.2487 9.89142C17.2487 10.7686 17.0578 11.6371 16.6868 12.4475C16.3159 13.2578 15.7722 13.9941 15.0868 14.6144C14.4014 15.2346 13.5877 15.7266 12.6921 16.0623C11.7966 16.3979 10.8367 16.5707 9.86741 16.5707C8.89809 16.5707 7.93825 16.3979 7.04271 16.0623C6.14717 15.7266 5.33346 15.2346 4.64805 14.6144C3.96263 13.9941 3.41893 13.2578 3.04798 12.4475C2.67704 11.6371 2.48611 10.7686 2.48611 9.89142C2.48611 8.11997 3.26378 6.42108 4.64805 5.16847C6.03231 3.91587 7.90977 3.21216 9.86741 3.21216C11.8251 3.21216 13.7025 3.91587 15.0868 5.16847C16.471 6.42108 17.2487 8.11997 17.2487 9.89142Z" fill="#28275C"/>
</g>
<defs>
<filter id="filter0_i_2034_507" x="0" y="0" width="24" height="28" filterUnits="userSpaceOnUse" color-interpolation-filters="sRGB">
<feFlood flood-opacity="0" result="BackgroundImageFix"/>
<feBlend mode="normal" in="SourceGraphic" in2="BackgroundImageFix" result="shape"/>
<feColorMatrix in="SourceAlpha" type="matrix" values="0 0 0 0 0 0 0 0 0 0 0 0 0 0 0 0 0 0 127 0" result="hardAlpha"/>
<feOffset dy="4"/>
<feGaussianBlur stdDeviation="2"/>
<feComposite in2="hardAlpha" operator="arithmetic" k2="-1" k3="1"/>
<feColorMatrix type="matrix" values="0 0 0 0 0 0 0 0 0 0 0 0 0 0 0 0 0 0 0.25 0"/>
<feBlend mode="normal" in2="shape" result="effect1_innerShadow_2034_507"/>
</filter>
</defs>
</svg>
