<svg width="25" height="23" viewBox="0 0 25 23" fill="none" xmlns="http://www.w3.org/2000/svg">
<path d="M19.3487 17.7735L17.8371 15.0566C17.5862 14.6099 17.1576 14.2295 16.694 14.042C16.1934 13.8396 15.6825 13.8228 15.1671 13.9768L13.4493 14.4903C13.4057 14.4381 13.3435 14.3785 13.2939 14.3411C13.2939 14.3411 13.2754 14.3336 13.2814 14.3188L13.2688 14.2965C13.138 14.14 12.9885 13.976 12.796 13.8119C11.893 12.7908 11.154 11.5773 10.5045 10.0893C10.2078 9.38249 10.0355 8.79504 9.95535 8.19307C10.33 8.12021 10.6305 8.01736 10.8573 7.93651L11.6181 7.70913C12.195 7.56276 12.5675 7.28191 12.7234 6.89625C12.8854 6.49576 12.8128 6.03496 12.5304 5.50651L11.3388 3.38505C11.2259 3.18407 11.113 2.9831 10.9816 2.77462C10.7247 2.34283 10.3272 1.99221 9.84512 1.79726C9.30742 1.57982 8.80245 1.5482 8.26257 1.70956L6.47117 2.24502C5.77152 2.42806 5.25237 2.80492 4.92627 3.39791L4.92027 3.41275C4.57127 4.16907 4.43167 4.94104 4.47967 5.99598C4.56476 7.65271 5.01958 9.35542 5.9025 11.3866C7.11643 13.8795 8.72735 16.0842 10.7473 17.9711L10.7969 18.0085C11.3995 18.5456 12.5425 19.5601 13.9958 20.2341L14.1998 20.3166C15.1825 20.714 16.0261 20.7617 16.8539 20.4752C17.1604 20.3575 17.4794 20.2621 17.7553 20.1666C17.9642 20.1303 18.1174 20.0714 18.2707 20.0126L18.467 19.9539L18.5161 19.9392C19.5707 19.5718 19.9066 18.7412 19.3487 17.7735ZM18.034 19.1575L17.7886 19.2308L17.758 19.253C17.6293 19.3045 17.5252 19.3487 17.4085 19.3705L17.3349 19.3925C17.0404 19.4805 16.6968 19.5832 16.3413 19.7156C15.7649 19.914 15.2168 19.8822 14.4937 19.5898L14.3454 19.5298C13.0775 18.9307 12.0588 18.0355 11.4562 17.4984L11.4251 17.4686C9.49844 15.6712 7.95623 13.5633 6.81755 11.2043C5.96028 9.26984 5.53708 7.64897 5.45309 6.09622C5.41218 5.13045 5.52232 4.48464 5.82934 3.83215C6.05892 3.42449 6.40084 3.16581 6.87963 3.04877L8.69557 2.50599C8.99005 2.41797 9.24254 2.43378 9.52066 2.54625C9.76169 2.64372 9.9482 2.8227 10.0922 3.05351L10.1047 3.07584C10.2236 3.26199 10.3365 3.46297 10.4494 3.66395L11.6409 5.7854C11.8667 6.18736 11.8383 6.41752 11.7904 6.53618C11.7424 6.65484 11.6333 6.81784 11.1791 6.92754L10.3938 7.16226C10.1178 7.25778 9.79883 7.35313 9.39965 7.43333L9.35057 7.448L9.29549 7.4775C9.05664 7.58801 8.97211 7.74368 8.96884 8.0185L8.96339 8.08533L8.95794 8.15216C9.0512 8.82845 9.23662 9.49023 9.56491 10.2788C10.2586 11.871 11.0662 13.1814 12.044 14.2844L12.0877 14.3366C12.212 14.4559 12.3363 14.5752 12.4421 14.687C12.4797 14.754 12.5419 14.8137 12.5915 14.851C12.6537 14.9107 12.7033 14.948 12.7284 14.9926L12.8282 15.1193L12.8653 15.1343L12.9149 15.1716C13.0142 15.2463 13.0883 15.2763 13.144 15.2988C13.3294 15.3737 13.5202 15.3819 13.7411 15.3159L15.5816 14.7658C15.8761 14.6777 16.11 14.6861 16.3696 14.791C16.6477 14.9035 16.8533 15.142 16.9536 15.3206L18.4839 18.045C18.7849 18.581 18.6535 18.9593 18.034 19.1575Z" fill="#484769" style="fill:#484769;fill:color(display-p3 0.2824 0.2784 0.4118);fill-opacity:1;"/>
</svg>
