<svg width="18" height="16" viewBox="0 0 18 16" fill="none" xmlns="http://www.w3.org/2000/svg">
<path d="M8.63265 9C8.0991 9 7.57752 8.85338 7.13389 8.57868C6.69025 8.30397 6.34448 7.91353 6.1403 7.45671C5.93612 6.99989 5.88269 6.49723 5.98678 6.01228C6.09088 5.52732 6.34781 5.08187 6.72509 4.73223C7.10237 4.3826 7.58305 4.1445 8.10636 4.04804C8.62966 3.95157 9.17208 4.00108 9.66502 4.1903C10.158 4.37952 10.5793 4.69995 10.8757 5.11108C11.1721 5.5222 11.3304 6.00555 11.3304 6.5C11.3295 7.1628 11.045 7.79822 10.5393 8.26689C10.0335 8.73556 9.34787 8.99921 8.63265 9ZM8.63265 5C8.31252 5 7.99958 5.08797 7.73339 5.2528C7.46721 5.41762 7.25975 5.65189 7.13724 5.92598C7.01473 6.20007 6.98268 6.50167 7.04513 6.79264C7.10759 7.08361 7.26175 7.35088 7.48811 7.56066C7.71448 7.77044 8.00289 7.9133 8.31688 7.97118C8.63086 8.02906 8.95631 7.99935 9.25207 7.88582C9.54784 7.77229 9.80063 7.58003 9.97849 7.33336C10.1563 7.08668 10.2513 6.79667 10.2513 6.5C10.2508 6.1023 10.0802 5.721 9.77672 5.43978C9.47326 5.15856 9.06181 5.0004 8.63265 5Z" fill="#0177FF"/>
<path d="M8.63265 15L4.08109 10.0255C4.01784 9.95081 3.95525 9.87564 3.89333 9.8C3.11623 8.8507 2.69626 7.69155 2.6977 6.5C2.6977 5.04131 3.32299 3.64236 4.43601 2.61091C5.54903 1.57946 7.05861 1 8.63265 1C10.2067 1 11.7163 1.57946 12.8293 2.61091C13.9423 3.64236 14.5676 5.04131 14.5676 6.5C14.5689 7.69098 14.1491 8.84954 13.3725 9.7985L13.372 9.8C13.372 9.8 13.2101 9.997 13.1858 10.0235L8.63265 15ZM4.75497 9.1975C4.75497 9.1975 4.88069 9.3515 4.90928 9.3845L8.63265 13.454L12.3609 9.379C12.3846 9.3515 12.5109 9.1965 12.5114 9.196C13.1466 8.42057 13.4898 7.47352 13.4885 6.5C13.4885 5.30653 12.9769 4.16193 12.0663 3.31802C11.1556 2.47411 9.92051 2 8.63265 2C7.3448 2 6.10969 2.47411 5.19904 3.31802C4.28838 4.16193 3.77679 5.30653 3.77679 6.5C3.77545 7.47415 4.1191 8.42179 4.75497 9.1975Z" fill="#0177FF"/>
</svg>
