<svg width="38" height="36" viewBox="0 0 38 36" fill="none" xmlns="http://www.w3.org/2000/svg">
<path d="M6.7555 33C6.7555 33 4.22217 33 4.22217 30.25C4.22217 27.5 6.7555 19.25 19.4222 19.25C32.0888 19.25 34.6222 27.5 34.6222 30.25C34.6222 33 32.0888 33 32.0888 33H6.7555ZM19.4222 16.5C21.4378 16.5 23.3709 15.6308 24.7962 14.0836C26.2215 12.5365 27.0222 10.438 27.0222 8.25C27.0222 6.06196 26.2215 3.96354 24.7962 2.41637C23.3709 0.869194 21.4378 0 19.4222 0C17.4065 0 15.4734 0.869194 14.0482 2.41637C12.6229 3.96354 11.8222 6.06196 11.8222 8.25C11.8222 10.438 12.6229 12.5365 14.0482 14.0836C15.4734 15.6308 17.4065 16.5 19.4222 16.5Z" fill="#374564"/>
</svg>
