<svg width="15" height="9" viewBox="0 0 15 9" fill="none" xmlns="http://www.w3.org/2000/svg">
<path d="M14.6348 0.329385C14.4239 0.11848 14.1378 0 13.8395 0C13.5412 0 13.2551 0.11848 13.0441 0.329385L7.47535 5.89813L1.9066 0.329385C1.69442 0.124457 1.41024 0.0110629 1.11527 0.0136262C0.8203 0.0161894 0.538136 0.134505 0.329552 0.343089C0.120968 0.551673 0.00265382 0.833837 9.05991e-05 1.12881C-0.00247262 1.42378 0.110921 1.70796 0.315849 1.92013L6.67997 8.28426C6.89094 8.49516 7.17704 8.61364 7.47535 8.61364C7.77366 8.61364 8.05975 8.49516 8.27072 8.28426L14.6348 1.92013C14.8458 1.70917 14.9642 1.42307 14.9642 1.12476C14.9642 0.82645 14.8458 0.540354 14.6348 0.329385Z" fill="#374564"/>
</svg>
